<svg width="148" height="60" viewBox="0 0 148 60" fill="none" xmlns="http://www.w3.org/2000/svg">
<path d="M99.9381 28.2822C99.3227 27.7612 98.398 27.8343 97.873 28.4452L92.6182 34.5611C91.548 33.968 90.3158 33.6298 89.0057 33.6298C88.8057 33.6298 88.6076 33.6378 88.4117 33.6533L87.4086 33.7273L77.3066 10.7132H78.3908C81.3871 10.7132 83.8248 8.30299 83.8248 5.34056C83.8248 3.49915 82.3109 2.00098 80.45 2.00098H70.0139C68.1529 2.00098 66.6391 3.49915 66.6391 5.34056C66.6391 8.30299 69.0768 10.7132 72.073 10.7132H74.1113L76.8805 17.022L68.5967 25.1046C65.5889 23.1498 61.9955 22.0121 58.1395 22.0121C47.5857 22.0119 39 30.5327 39 41.006C39 51.4792 47.5857 60 58.1391 60C66.4115 60 73.4748 54.7643 76.1416 47.4566L89.0057 48.3821C93.1041 48.3821 96.4385 45.0731 96.4385 41.0058C96.4385 39.2872 95.8432 37.704 94.8463 36.4486L100.103 30.3311C100.627 29.7204 100.554 28.8029 99.9381 28.2822ZM72.0725 7.80586C70.6916 7.80586 69.5682 6.69996 69.5682 5.34037C69.5682 5.10198 69.7678 4.90797 70.0133 4.90797H80.4494C80.6949 4.90797 80.8945 5.10198 80.8945 5.34037C80.8945 6.69996 79.7711 7.80586 78.3902 7.80586H72.0725ZM68.8459 28.9378C70.6697 30.5335 72.1303 32.529 73.0871 34.7848L62.0156 35.6023L68.8459 28.9378ZM58.1391 57.0928C49.2012 57.0928 41.9297 49.8764 41.9297 41.006C41.9297 32.1355 49.2012 24.9191 58.1391 24.9191C61.1748 24.9191 64.0182 25.7516 66.4498 27.1986L57.4992 35.9316C54.9588 36.2451 52.9863 38.4011 52.9863 41.0058C52.9863 43.7176 55.1246 45.9431 57.8156 46.1092L73.085 47.2318C70.6281 53.0196 64.8539 57.0928 58.1391 57.0928ZM60.3619 41.006C60.3619 42.2225 59.3648 43.2123 58.1391 43.2123C56.9133 43.2123 55.916 42.2227 55.916 41.006C55.916 39.7892 56.9133 38.7996 58.1391 38.7996C59.3648 38.7996 60.3619 39.7894 60.3619 41.006ZM73.9916 44.3704L62.6152 43.5364C63.0455 42.7898 63.2916 41.9258 63.2916 41.0058C63.2916 40.0857 63.0455 39.2219 62.6152 38.4752L73.9916 37.6412C74.2252 38.7265 74.3482 39.852 74.3482 41.0056C74.3482 42.1591 74.2252 43.285 73.9916 44.3704ZM82.7684 45.0138L76.9367 44.5863C77.1605 43.4265 77.2777 42.2295 77.2777 41.006C77.2777 39.7824 77.1605 38.5854 76.9367 37.4255L82.7684 36.9979C82.0123 38.1527 81.5729 39.5293 81.5729 41.0058C81.5729 42.4822 82.0125 43.8591 82.7684 45.0138ZM76.143 34.559C75.0613 31.5931 73.2555 28.9683 70.9385 26.896L78.133 19.8763L84.3131 33.9558L76.143 34.559ZM89.0055 45.4751C86.5225 45.4751 84.5025 43.4703 84.5025 41.006C84.5025 38.5416 86.5225 36.5368 89.0055 36.5368C89.5869 36.5368 90.1432 36.6467 90.6539 36.8469L87.8908 40.0629C87.3658 40.6738 87.4395 41.5913 88.0551 42.112C88.3309 42.3454 88.6688 42.4596 89.0049 42.4596C89.4189 42.4596 89.8305 42.2861 90.1201 41.9491L92.8822 38.7343C93.2799 39.4004 93.5084 40.177 93.5084 41.006C93.5086 43.4703 91.4885 45.4751 89.0055 45.4751Z" fill="black" fill-opacity="0.87"/>
<path d="M119.861 22.0112C117.882 22.0112 115.972 22.3108 114.175 22.8666L107.123 4.90719H115.416C115.662 4.90719 115.861 5.10119 115.861 5.33958C115.861 6.69918 114.738 7.80507 113.357 7.80507C112.548 7.80507 111.892 8.4557 111.892 9.25867C111.892 10.0616 112.548 10.7123 113.357 10.7123C116.353 10.7123 118.791 8.30201 118.791 5.33958C118.791 3.49817 117.277 2 115.416 2H104.98C104.496 2 104.044 2.23703 103.771 2.63338C103.498 3.02973 103.44 3.53403 103.615 3.98135L108.407 16.1838L102.352 23.2308C101.827 23.8417 101.901 24.7592 102.516 25.28C102.792 25.5133 103.13 25.6275 103.466 25.6275C103.88 25.6275 104.292 25.454 104.581 25.117L109.614 19.2592L111.454 23.9437C105.103 27.0381 100.722 33.5234 100.722 41.0054C100.722 51.4786 109.307 59.9994 119.861 59.9994C130.414 59.9994 139 51.4784 139 41.0052C139 30.5319 130.414 22.0112 119.861 22.0112ZM119.861 57.092C110.923 57.092 103.652 49.8756 103.652 41.0052C103.652 34.7547 107.262 29.3254 112.522 26.6636L116.6 37.0489C115.446 37.9875 114.708 39.4124 114.708 41.0052C114.708 43.8248 117.02 46.1187 119.861 46.1187C122.702 46.1187 125.013 43.8248 125.013 41.0052C125.013 38.1856 122.702 35.8916 119.861 35.8916C119.672 35.8916 119.485 35.9019 119.302 35.9217L115.242 25.5835C116.706 25.1507 118.257 24.9183 119.861 24.9183C128.799 24.9183 136.07 32.1348 136.07 41.0052C136.07 49.8756 128.799 57.092 119.861 57.092ZM117.638 41.0052C117.638 39.7886 118.635 38.7988 119.861 38.7988C121.087 38.7988 122.084 39.7884 122.084 41.0052C122.084 42.2219 121.087 43.2115 119.861 43.2115C118.635 43.2115 117.638 42.2217 117.638 41.0052Z" fill="black" fill-opacity="0.87"/>
<path fill-rule="evenodd" clip-rule="evenodd" d="M53.5734 32.0847C53.9787 32.8016 53.7217 33.7089 52.9992 34.1111C51.5702 34.9068 50.4033 36.0955 49.6392 37.5339C48.8751 38.9724 48.5463 40.5993 48.6924 42.2189C48.8385 43.8385 49.4532 45.3817 50.4626 46.6627C51.4719 47.9436 52.8329 48.9077 54.3817 49.439C55.9304 49.9702 57.6009 50.0459 59.1919 49.6569C59.9963 49.4602 60.809 49.9478 61.0072 50.746C61.2054 51.5442 60.714 52.3507 59.9096 52.5474C57.757 53.0737 55.4969 52.9713 53.4016 52.2526C51.3062 51.5339 49.4649 50.2295 48.0993 48.4964C46.7336 46.7634 45.902 44.6755 45.7043 42.4843C45.5067 40.2931 45.9516 38.0919 46.9853 36.1458C48.0191 34.1996 49.5978 32.5915 51.5312 31.5149C52.2537 31.1127 53.168 31.3678 53.5734 32.0847Z" fill="black" fill-opacity="0.87"/>
<path fill-rule="evenodd" clip-rule="evenodd" d="M123.997 32.0847C123.592 32.8016 123.849 33.7089 124.572 34.1111C126.001 34.9068 127.167 36.0955 127.932 37.5339C128.696 38.9724 129.024 40.5993 128.878 42.2189C128.732 43.8385 128.118 45.3817 127.108 46.6627C126.099 47.9436 124.738 48.9077 123.189 49.439C121.64 49.9702 119.97 50.0459 118.379 49.6569C117.574 49.4602 116.762 49.9478 116.564 50.746C116.365 51.5442 116.857 52.3507 117.661 52.5474C119.814 53.0737 122.074 52.9713 124.169 52.2526C126.265 51.5339 128.106 50.2295 129.472 48.4964C130.837 46.7634 131.669 44.6755 131.866 42.4843C132.064 40.2931 131.619 38.0919 130.585 36.1458C129.552 34.1996 127.973 32.5915 126.04 31.5149C125.317 31.1127 124.403 31.3678 123.997 32.0847Z" fill="black" fill-opacity="0.87"/>
<path fill-rule="evenodd" clip-rule="evenodd" d="M22 13.1378C22 12.5898 22.4477 12.1455 23 12.1455L33 12.1455C33.5523 12.1455 34 12.5898 34 13.1378C34 13.6859 33.5523 14.1301 33 14.1301L23 14.1301C22.4477 14.1301 22 13.6859 22 13.1378Z" fill="black" fill-opacity="0.87"/>
<path fill-rule="evenodd" clip-rule="evenodd" d="M30 23.061C30 22.513 30.4477 22.0687 31 22.0687H35C35.5523 22.0687 36 22.513 36 23.061C36 23.6091 35.5523 24.0534 35 24.0534H31C30.4477 24.0534 30 23.6091 30 23.061Z" fill="black" fill-opacity="0.87"/>
<path fill-rule="evenodd" clip-rule="evenodd" d="M9 23.061C9 22.513 9.44772 22.0687 10 22.0687L23 22.0687C23.5523 22.0687 24 22.513 24 23.061C24 23.6091 23.5523 24.0534 23 24.0534L10 24.0534C9.44772 24.0534 9 23.6091 9 23.061Z" fill="black" fill-opacity="0.87"/>
</svg>
