<svg width="40" height="40" viewBox="0 0 40 40" fill="none" xmlns="http://www.w3.org/2000/svg">
<path d="M9.2503 35.2844L1.45736 21.7158C1.15774 21.1941 1 20.6024 1 20C1 19.3976 1.15774 18.8059 1.45736 18.2842L9.2503 4.71592C9.54996 4.19418 9.98098 3.76094 10.5 3.45973C11.0191 3.15852 11.6078 2.99996 12.2072 3H27.793C28.3923 3.00002 28.981 3.1586 29.5 3.4598C30.019 3.76101 30.45 4.19423 30.7496 4.71592L38.5426 18.2842C38.8422 18.8059 39 19.3977 39 20.0001C39 20.6026 38.8422 21.1944 38.5426 21.7161L30.7496 35.2844C30.4499 35.806 30.019 36.2392 29.5 36.5403C28.981 36.8415 28.3923 37 27.793 37H12.2072C11.6078 37.0001 11.019 36.8415 10.5 36.5403C9.98095 36.2391 9.54994 35.8058 9.2503 35.2841V35.2844Z" fill="#2196F3"/>
<path opacity="0.07" d="M36 27.1062L25.3231 16.251L20.7251 15L16.595 16.5605L15 20.7853L16.2825 25.4891L27.6049 37L30.0075 36.8915L36 27.1062Z" fill="black"/>
<path d="M20.2246 13.5444C16.4191 13.5444 13.334 16.6295 13.334 20.4353C13.334 24.2408 16.4191 27.3259 20.2246 27.3259C24.0301 27.3259 27.1149 24.2408 27.1149 20.4353C27.1149 16.6295 24.0298 13.5444 20.2246 13.5444ZM20.2246 25.6635C17.337 25.6635 14.9961 23.3226 14.9961 20.435C14.9961 17.5475 17.337 15.2069 20.2246 15.2069C23.1121 15.2069 25.453 17.5478 25.453 20.4353C25.453 23.3229 23.1121 25.6638 20.2246 25.6638" fill="white"/>
<path d="M16.9536 20.1689V22.3108C17.2705 22.8549 17.7176 23.3117 18.2548 23.6402V20.1689H16.9536ZM19.5337 18.3633V24.1298C19.755 24.1705 19.9814 24.1951 20.214 24.1951C20.4261 24.1951 20.6329 24.1728 20.8358 24.139V18.3633H19.5337ZM22.2344 21.0589V23.6025C22.7801 23.2554 23.2282 22.7749 23.5362 22.2062V21.0592L22.2344 21.0589ZM25.1828 24.6793L24.469 25.3938C24.4085 25.4544 24.3745 25.5365 24.3745 25.6221C24.3745 25.7077 24.4085 25.7898 24.469 25.8504L27.1768 28.5573C27.2374 28.6178 27.3195 28.6517 27.4051 28.6517C27.4907 28.6517 27.5728 28.6178 27.6334 28.5573L28.3472 27.8438C28.4073 27.783 28.441 27.701 28.441 27.6156C28.441 27.5302 28.4073 27.4482 28.3472 27.3875L25.6391 24.6793C25.5785 24.6191 25.4965 24.5853 25.411 24.5853C25.3255 24.5853 25.2435 24.6191 25.1828 24.6793Z" fill="white"/>
</svg>
