<svg width="40" height="40" viewBox="0 0 40 40" fill="none" xmlns="http://www.w3.org/2000/svg">
<path d="M28.4328 25.333C28.7686 25.3327 29.0906 25.1991 29.3281 24.9616C29.5655 24.7242 29.6991 24.4022 29.6995 24.0664V16.4664C29.6991 16.1305 29.5655 15.8086 29.3281 15.5711C29.0906 15.3337 28.7686 15.2001 28.4328 15.1997H6.89948C6.56365 15.2001 6.24169 15.3337 6.00423 15.5711C5.76676 15.8086 5.63319 16.1305 5.63281 16.4664V24.0664C5.63319 24.4022 5.76676 24.7242 6.00423 24.9616C6.24169 25.1991 6.56365 25.3327 6.89948 25.333H28.4328ZM21.2877 17.7424L22.5498 21.4333L23.771 17.7424H24.8386L23.0528 22.7299H21.9779L20.1954 17.7424H21.2877ZM18.7135 20.9789C18.6134 20.8769 18.4886 20.8025 18.3512 20.7629C18.2332 20.7221 17.9645 20.6495 17.545 20.5452C17.0052 20.4115 16.6265 20.2471 16.4088 20.052C16.2633 19.9287 16.1467 19.7749 16.0673 19.6014C15.9879 19.428 15.9478 19.2392 15.9496 19.0485C15.9496 18.7948 16.0248 18.5469 16.1656 18.336C16.3173 18.1085 16.5344 17.9324 16.7882 17.8309C17.1004 17.7074 17.4342 17.6481 17.7698 17.6567C18.3958 17.6567 18.8669 17.7939 19.1833 18.0684C19.3402 18.2051 19.4659 18.374 19.5518 18.5636C19.6378 18.7531 19.682 18.9589 19.6816 19.1671L18.6747 19.2112C18.6545 18.9989 18.5556 18.8017 18.3975 18.6585C18.2096 18.533 17.9851 18.4737 17.7597 18.4902C17.5174 18.4763 17.2769 18.5394 17.0725 18.6705C17.0221 18.7046 16.981 18.7508 16.9531 18.8049C16.9251 18.859 16.9112 18.9192 16.9126 18.9801C16.9128 19.0386 16.9263 19.0963 16.9523 19.1488C16.9782 19.2013 17.0158 19.2471 17.0623 19.2828C17.1889 19.3894 17.4974 19.5005 17.9876 19.6161C18.3626 19.6928 18.7274 19.8132 19.0744 19.975C19.3006 20.0908 19.491 20.266 19.6254 20.4817C19.7624 20.727 19.831 21.0047 19.8242 21.2856C19.8173 21.5665 19.7351 21.8405 19.5862 22.0788C19.4254 22.3301 19.1898 22.5246 18.9127 22.635C18.5664 22.7662 18.1976 22.828 17.8275 22.817C17.197 22.817 16.7128 22.6712 16.3749 22.3798C16.0172 22.0485 15.8004 21.5924 15.7695 21.1059L16.7492 21.0109C16.781 21.2867 16.9079 21.5429 17.1082 21.7354C17.3152 21.8986 17.5745 21.9808 17.8378 21.9667C18.0987 21.9857 18.358 21.9129 18.5709 21.7609C18.6461 21.7049 18.7074 21.6324 18.7502 21.5489C18.793 21.4655 18.816 21.3733 18.8175 21.2795C18.8202 21.1701 18.7833 21.0633 18.7135 20.9789ZM11.4245 18.3461C11.6407 18.1172 11.9035 17.9372 12.1952 17.8184C12.4868 17.6996 12.8005 17.6446 13.1152 17.6572C13.6627 17.634 14.1971 17.8285 14.6018 18.1981C14.8519 18.4523 15.0283 18.7697 15.1121 19.1164L14.1154 19.3539C14.0693 19.1117 13.9379 18.8941 13.745 18.7405C13.5521 18.587 13.3105 18.5077 13.0642 18.5171C12.8939 18.5117 12.7247 18.5446 12.5689 18.6135C12.4131 18.6824 12.2749 18.7855 12.1644 18.9152C11.9342 19.1805 11.8191 19.6103 11.8191 20.2045C11.8191 20.8349 11.9324 21.284 12.1592 21.5516C12.2662 21.6814 12.4016 21.7851 12.5549 21.8547C12.7082 21.9243 12.8753 21.9579 13.0436 21.9529C13.2977 21.9579 13.5443 21.8668 13.7341 21.6979C13.9526 21.48 14.0977 21.1994 14.1491 20.8951L15.1254 21.2047C15.0185 21.6808 14.7557 22.1076 14.3787 22.4173C13.9933 22.693 13.5271 22.8323 13.0537 22.8132C12.749 22.8226 12.4457 22.7669 12.1642 22.6499C11.8826 22.5329 11.6293 22.3572 11.421 22.1345C10.9947 21.6821 10.7815 21.0636 10.7815 20.2789C10.7816 19.4496 10.9959 18.8054 11.4245 18.3461Z" fill="#3B873E"/>
<path d="M32.3333 2H9.66667C8.95967 2.00071 8.28185 2.2538 7.78193 2.70373C7.282 3.15367 7.00079 3.7637 7 4.4V15.2H8.33333V4.4C8.33373 4.08185 8.47433 3.77683 8.7243 3.55187C8.97426 3.3269 9.31317 3.20036 9.66667 3.2H32.3333C32.6868 3.20036 33.0257 3.3269 33.2757 3.55187C33.5257 3.77683 33.6663 4.08185 33.6667 4.4V29.4543C33.6663 29.503 33.6627 29.5517 33.6558 29.6H27.6667C27.1364 29.6005 26.6281 29.7904 26.2531 30.1278C25.8782 30.4653 25.6673 30.9228 25.6667 31.4V36.7902C25.613 36.7964 25.5589 36.7997 25.5048 36.8H9.66667C9.31317 36.7996 8.97426 36.6731 8.7243 36.4481C8.47433 36.2232 8.33373 35.9181 8.33333 35.6V27.2H7V35.6C7.00079 36.2363 7.282 36.8463 7.78193 37.2963C8.28185 37.7462 8.95967 37.9993 9.66667 38H25.5048C25.8552 38.0008 26.2022 37.9391 26.5259 37.8185C26.8495 37.6978 27.1434 37.5206 27.3905 37.2971L34.219 31.1514C34.4674 30.9291 34.6643 30.6646 34.7983 30.3733C34.9324 30.082 35.0009 29.7696 35 29.4543V4.4C34.9992 3.7637 34.718 3.15367 34.2181 2.70373C33.7181 2.2538 33.0403 2.00071 32.3333 2Z" fill="#4CAF50"/>
</svg>
