<svg width="68" height="68" viewBox="0 0 68 68" fill="none" xmlns="http://www.w3.org/2000/svg">
<path d="M42.6007 25.413C42.0683 24.8805 41.2082 24.8805 40.6758 25.413L34 32.0751L27.3242 25.3993C26.7918 24.8669 25.9317 24.8669 25.3993 25.3993C24.8669 25.9317 24.8669 26.7918 25.3993 27.3242L32.0751 34L25.3993 40.6758C24.8669 41.2082 24.8669 42.0683 25.3993 42.6007C25.9317 43.1331 26.7918 43.1331 27.3242 42.6007L34 35.9249L40.6758 42.6007C41.2082 43.1331 42.0683 43.1331 42.6007 42.6007C43.1331 42.0683 43.1331 41.2082 42.6007 40.6758L35.9249 34L42.6007 27.3242C43.1195 26.8055 43.1195 25.9317 42.6007 25.413Z" fill="#F44336"/>
<path fill-rule="evenodd" clip-rule="evenodd" d="M34 62C49.464 62 62 49.464 62 34C62 18.536 49.464 6 34 6C18.536 6 6 18.536 6 34C6 49.464 18.536 62 34 62ZM34 64C50.5685 64 64 50.5685 64 34C64 17.4315 50.5685 4 34 4C17.4315 4 4 17.4315 4 34C4 50.5685 17.4315 64 34 64Z" fill="#F44336"/>
</svg>
