<svg width="40" height="40" viewBox="0 0 40 40" fill="none" xmlns="http://www.w3.org/2000/svg">
<path d="M20.7821 3H23.0763C23.0763 4.02453 23.0763 5.04523 23.0763 6.06977C26.9425 6.06977 30.8087 6.07744 34.6749 6.05826C35.3276 6.08512 36.046 6.03907 36.6137 6.42663C37.0116 6.99453 36.9652 7.71593 36.9922 8.36826C36.9729 15.0297 36.9807 21.6872 36.9845 28.3448C36.9652 29.4614 37.0888 30.601 36.8532 31.7023C36.6987 32.5005 35.7331 32.5197 35.0881 32.5465C31.0868 32.558 27.0815 32.5388 23.0763 32.5465C23.0763 33.6977 23.0763 34.8488 23.0763 36H20.6778C14.7917 34.9371 8.8939 33.9548 3 32.9302C3 23.978 3 15.0258 3 6.0736C8.92866 5.04907 14.8573 4.03988 20.7821 3Z" fill="#3B873E"/>
<path d="M23.0762 7.22119C27.3247 7.22119 31.5733 7.22119 35.8218 7.22119C35.8218 15.2793 35.8218 23.3375 35.8218 31.3956C31.5733 31.3956 27.3247 31.3956 23.0762 31.3956C23.0762 30.6282 23.0762 29.8607 23.0762 29.0933C24.1074 29.0933 25.1348 29.0933 26.166 29.0933C26.166 28.1992 26.166 27.3013 26.166 26.4072C25.1348 26.4072 24.1074 26.4072 23.0762 26.4072C23.0762 25.8969 23.0762 25.3827 23.0762 24.8724C24.1074 24.8724 25.1348 24.8724 26.166 24.8724C26.166 23.9783 26.166 23.0804 26.166 22.1863C25.1348 22.1863 24.1074 22.1863 23.0762 22.1863C23.0762 21.676 23.0762 21.1618 23.0762 20.6514C24.1074 20.6514 25.1348 20.6514 26.166 20.6514C26.166 19.7574 26.166 18.8594 26.166 17.9654C25.1348 17.9654 24.1074 17.9654 23.0762 17.9654C23.0762 17.455 23.0762 16.9408 23.0762 16.4305C24.1074 16.4305 25.1348 16.4305 26.166 16.4305C26.166 15.5364 26.166 14.6385 26.166 13.7444C25.1348 13.7444 24.1074 13.7444 23.0762 13.7444C23.0762 13.2341 23.0762 12.7199 23.0762 12.2096C24.1074 12.2096 25.1348 12.2096 26.166 12.2096C26.166 11.3155 26.166 10.4176 26.166 9.52352C25.1348 9.52352 24.1074 9.52352 23.0762 9.52352C23.0762 8.75608 23.0762 7.98863 23.0762 7.22119Z" fill="white"/>
<path d="M27.7109 9.52344C29.5146 9.52344 31.3145 9.52344 33.1182 9.52344C33.1182 10.4175 33.1182 11.3154 33.1182 12.2095C31.3145 12.2095 29.5146 12.2095 27.7109 12.2095C27.7109 11.3154 27.7109 10.4175 27.7109 9.52344Z" fill="#3B873E"/>
<path d="M14.4408 13.1188C15.3137 13.0574 16.1904 13.0036 17.0672 12.9614C16.0359 15.0604 15.0008 17.1593 13.9503 19.2506C15.0124 21.3994 16.0977 23.5329 17.1637 25.6818C16.2329 25.628 15.3059 25.5705 14.3751 25.5053C13.7185 23.9051 12.919 22.3587 12.4478 20.6857C11.9226 22.2436 11.1733 23.7133 10.5707 25.2405C9.7249 25.229 8.87905 25.1944 8.0332 25.1599C9.02582 23.2298 9.98367 21.2843 11.0072 19.3657C10.1382 17.3896 9.18417 15.4518 8.28812 13.4871C9.13783 13.4372 9.98754 13.3874 10.8372 13.3413C11.4127 14.8417 12.0423 16.3228 12.5174 17.8615C13.0272 16.2307 13.7881 14.6958 14.4408 13.1188Z" fill="white"/>
<path d="M27.7109 13.7441C29.5146 13.7441 31.3145 13.7441 33.1182 13.7441C33.1182 14.6382 33.1182 15.5361 33.1182 16.4302C31.3145 16.4302 29.5146 16.4302 27.7109 16.4302C27.7109 15.5361 27.7109 14.6382 27.7109 13.7441Z" fill="#3B873E"/>
<path d="M27.7109 17.9653C29.5146 17.9653 31.3145 17.9653 33.1182 17.9653C33.1182 18.8594 33.1182 19.7573 33.1182 20.6514C31.3145 20.6514 29.5146 20.6514 27.7109 20.6514C27.7109 19.7573 27.7109 18.8594 27.7109 17.9653Z" fill="#3B873E"/>
<path d="M27.7109 22.186C29.5146 22.186 31.3145 22.186 33.1182 22.186C33.1182 23.0801 33.1182 23.978 33.1182 24.8721C31.3145 24.8721 29.5146 24.8721 27.7109 24.8721C27.7109 23.978 27.7109 23.0801 27.7109 22.186Z" fill="#3B873E"/>
<path d="M27.7109 26.4072C29.5146 26.4072 31.3145 26.4072 33.1182 26.4072C33.1182 27.3013 33.1182 28.1992 33.1182 29.0933C31.3145 29.0933 29.5146 29.0933 27.7109 29.0933C27.7109 28.1992 27.7109 27.3013 27.7109 26.4072Z" fill="#3B873E"/>
</svg>
