<svg width="40" height="40" viewBox="0 0 40 40" fill="none" xmlns="http://www.w3.org/2000/svg">
<path d="M10.6667 0C8.45761 0 6.66675 1.79086 6.66675 4V36C6.66675 38.2091 8.45761 40 10.6667 40H28.3432C29.4041 40 30.4215 39.5786 31.1717 38.8284L38.8285 31.1716C39.5787 30.4214 40.0001 29.404 40.0001 28.3431V4C40.0001 1.79086 38.2092 0 36.0001 0H10.6667Z" fill="black" fill-opacity="0.08"/>
<path d="M30 30V40L40 30H30Z" fill="#C5CAE9"/>
<path d="M20 40H30V30L20 40Z" fill="#E0E0E0"/>
<path d="M0 10V21.6667H26.6667V10H0Z" fill="#E63E00"/>
<path d="M5.71672 17.4164C5.71672 18.1764 5.54172 18.718 5.18672 19.043C4.83505 19.3647 4.29505 19.528 3.56838 19.528C3.18672 19.528 2.87505 19.4764 2.63172 19.3714C2.38838 19.268 2.19338 19.123 2.05005 18.9314C1.90672 18.7397 1.80838 18.5197 1.75672 18.2664C1.70172 18.0147 1.67505 17.7464 1.67505 17.468V17.1564H2.99505V17.378C2.99505 17.758 3.03505 18.038 3.12005 18.223C3.20338 18.4047 3.37338 18.498 3.63505 18.498C3.89672 18.498 4.06838 18.4047 4.15172 18.223C4.23505 18.0397 4.27672 17.758 4.27672 17.378V12.2764H5.71672C5.71672 12.2764 5.71672 17.4164 5.71672 17.4164Z" fill="white"/>
<path d="M8.41676 17.3967C8.41676 17.5634 8.43176 17.7151 8.45676 17.8501C8.48343 17.9867 8.53343 18.1017 8.60676 18.1951C8.6801 18.2901 8.7801 18.3634 8.90343 18.4167C9.0251 18.4684 9.1801 18.4967 9.36676 18.4967C9.58676 18.4967 9.7851 18.4251 9.9601 18.2817C10.1368 18.1384 10.2268 17.9151 10.2268 17.6167C10.2268 17.4567 10.2034 17.3184 10.1618 17.2017C10.1184 17.0851 10.0468 16.9801 9.94676 16.8884C9.8451 16.7934 9.71343 16.7101 9.5501 16.6334C9.38676 16.5567 9.1851 16.4784 8.94676 16.3984C8.62676 16.2917 8.3501 16.1734 8.11676 16.0467C7.88343 15.9217 7.68843 15.7734 7.53176 15.6017C7.3751 15.4317 7.25843 15.2351 7.18676 15.0117C7.11176 14.7867 7.07676 14.5301 7.07676 14.2351C7.07676 13.5284 7.27343 13.0034 7.66676 12.6567C8.0601 12.3101 8.60176 12.1367 9.28843 12.1367C9.60676 12.1367 9.90343 12.1717 10.1734 12.2417C10.4434 12.3117 10.6768 12.4234 10.8734 12.5817C11.0684 12.7384 11.2234 12.9384 11.3318 13.1801C11.4418 13.4234 11.4984 13.7151 11.4984 14.0551V14.2551H10.1168C10.1168 13.9151 10.0568 13.6534 9.93843 13.4684C9.81843 13.2867 9.61677 13.1934 9.33677 13.1934C9.17676 13.1934 9.04343 13.2184 8.93843 13.2634C8.83343 13.3101 8.74676 13.3717 8.68343 13.4484C8.6201 13.5251 8.5751 13.6167 8.55176 13.7167C8.52843 13.8167 8.51676 13.9201 8.51676 14.0267C8.51676 14.2484 8.56343 14.4317 8.65676 14.5817C8.7501 14.7334 8.9501 14.8717 9.25676 14.9967L10.3668 15.4767C10.6401 15.5967 10.8618 15.7217 11.0351 15.8534C11.2084 15.9851 11.3468 16.1234 11.4501 16.2734C11.5534 16.4234 11.6284 16.5867 11.6668 16.7684C11.7068 16.9467 11.7268 17.1484 11.7268 17.3667C11.7268 18.1201 11.5084 18.6684 11.0701 19.0117C10.6334 19.3551 10.0251 19.5284 9.24676 19.5284C8.43343 19.5284 7.8501 19.3517 7.5001 18.9984C7.1501 18.6451 6.9751 18.1384 6.9751 17.4784V17.1884H8.41676V17.3967Z" fill="white"/>
<path d="M12.972 14.3517C13.0203 13.8967 13.132 13.5034 13.3003 13.1767C13.472 12.8517 13.717 12.5951 14.0353 12.4117C14.3536 12.2301 14.7853 12.1367 15.3236 12.1367C15.8636 12.1367 16.2936 12.2301 16.6136 12.4117C16.9336 12.5951 17.1786 12.8517 17.347 13.1767C17.5186 13.5034 17.627 13.8967 17.6786 14.3517C17.727 14.8084 17.7536 15.3067 17.7536 15.8467C17.7536 16.3917 17.727 16.8934 17.6786 17.3451C17.627 17.7984 17.517 18.1884 17.347 18.5151C17.177 18.8417 16.9336 19.0917 16.6136 19.2651C16.2936 19.4384 15.8636 19.5251 15.3236 19.5251C14.7853 19.5251 14.3536 19.4367 14.0353 19.2651C13.717 19.0917 13.4703 18.8417 13.3003 18.5151C13.1303 18.1884 13.0203 17.7984 12.972 17.3451C12.922 16.8934 12.897 16.3917 12.897 15.8467C12.897 15.3084 12.922 14.8101 12.972 14.3517ZM14.372 17.0717C14.3953 17.4084 14.442 17.6817 14.512 17.8917C14.582 18.1017 14.682 18.2551 14.812 18.3517C14.942 18.4484 15.1153 18.4967 15.327 18.4967C15.542 18.4967 15.712 18.4484 15.8436 18.3517C15.9736 18.2534 16.0736 18.1017 16.1453 17.8917C16.2136 17.6817 16.2603 17.4084 16.2853 17.0717C16.3086 16.7351 16.3203 16.3284 16.3203 15.8484C16.3203 15.3684 16.3086 14.9617 16.2853 14.6284C16.2603 14.2951 16.2136 14.0217 16.1453 13.8084C16.0736 13.5951 15.9736 13.4401 15.8436 13.3451C15.7136 13.2467 15.542 13.1984 15.327 13.1984C15.1153 13.1984 14.9436 13.2467 14.812 13.3451C14.682 13.4417 14.582 13.5951 14.512 13.8084C14.442 14.0217 14.3953 14.2951 14.372 14.6284C14.3486 14.9617 14.337 15.3684 14.337 15.8484C14.337 16.3284 14.3486 16.7351 14.372 17.0717Z" fill="white"/>
<path d="M22.6065 17.168H22.6265V12.2764H23.9465V19.4164H22.3082L20.5465 14.4164H20.5265V19.4164H19.2048V12.2764H20.8648L22.6065 17.168Z" fill="white"/>
</svg>
