<svg width="130" height="48" viewBox="0 0 130 48" fill="none" xmlns="http://www.w3.org/2000/svg">
<path d="M34.0377 16.9848C33.5334 7.72939 26.2972 0.372844 17.3929 0.220154H17.2562H17.1196C7.88604 0.377738 0.445312 8.2824 0.445312 18.0174C0.445312 31.1331 15.1085 43.5881 17.2533 45.3578V33.6946C21.6224 33.6959 25.8203 32.003 28.9573 28.9747C32.0943 25.9465 33.9239 21.8208 34.0583 17.4722C34.0531 17.3091 34.0462 17.1466 34.0377 16.9848ZM17.2562 28.7302C14.9168 28.7302 12.6298 28.0393 10.6847 26.7449C8.73959 25.4506 7.22363 23.6109 6.32858 21.4585C5.43353 19.3061 5.19959 16.9377 5.65635 14.653C6.11312 12.3682 7.24007 10.2696 8.89467 8.62264C10.5493 6.97569 12.6572 5.85436 14.9518 5.40047C17.2465 4.94658 19.6247 5.18051 21.7858 6.07269C23.9469 6.96487 25.7938 8.47521 27.0928 10.4127C28.3919 12.3502 29.0847 14.6277 29.0837 16.9574C29.0835 20.0808 27.8373 23.0763 25.6192 25.2848C23.4011 27.4934 20.3929 28.7341 17.2562 28.7341V28.7302Z" fill="white"/>
<path d="M17.474 10.1303C16.5534 10.1295 15.6416 10.3057 14.7912 10.6488C15.1604 10.8589 15.4754 11.1485 15.712 11.4953C15.9487 11.8421 16.1007 12.2371 16.1564 12.6499C16.2122 13.0627 16.1702 13.4824 16.0337 13.877C15.8972 14.2716 15.6698 14.6306 15.3689 14.9265C15.0679 15.2223 14.7015 15.4473 14.2975 15.5841C13.8935 15.721 13.4628 15.7661 13.0382 15.7159C12.6136 15.6658 12.2064 15.5218 11.8477 15.295C11.489 15.0681 11.1884 14.7644 10.9689 14.4071C10.4087 15.7629 10.3103 17.258 10.6882 18.6723C11.0661 20.0866 11.9003 21.3455 13.0681 22.2638C14.2359 23.1821 15.6757 23.7113 17.1756 23.7736C18.6755 23.8359 20.1563 23.4279 21.4002 22.6097C22.6441 21.7916 23.5854 20.6064 24.0856 19.2285C24.5859 17.8507 24.6186 16.3529 24.1791 14.9556C23.7395 13.5583 22.8509 12.3352 21.6439 11.4662C20.4369 10.5973 18.9752 10.1283 17.474 10.1284V10.1303Z" fill="white"/>
<path d="M39.2813 9.24768C39.6584 9.40421 39.9828 9.66012 40.2179 9.98643C40.4708 10.327 40.583 10.6347 40.5543 10.9094C40.5257 11.1841 40.3047 11.3734 39.8914 11.4775C39.482 11.5816 38.7994 11.4726 37.8436 11.1508C37.8323 10.6881 37.9379 10.2297 38.1511 9.8158C38.3581 9.4377 38.7349 9.24833 39.2813 9.24768ZM38.872 19.8984C38.872 19.7847 38.877 19.6002 38.887 19.3449C38.8969 19.0896 38.9066 18.8197 38.9159 18.5353C38.9252 18.2516 38.9349 17.9769 38.9449 17.7113C38.9549 17.4456 38.9598 17.2563 38.9598 17.1432C39.1762 16.8385 39.4613 16.5858 39.7935 16.4044C40.1234 16.22 40.4712 16.0677 40.8319 15.9497C40.9026 17.0502 41.0696 18.1429 41.3311 19.2159C41.604 20.3709 41.8966 21.5307 42.2087 22.6954C42.5209 23.8601 42.7988 25.0105 43.0424 26.1468C43.2758 27.1922 43.3982 28.258 43.4078 29.3276C43.4078 30.1795 42.9592 30.6054 42.062 30.6054C41.7963 30.6073 41.5339 30.5493 41.2953 30.4359C41.0567 30.3225 40.8485 30.1568 40.6871 29.952C40.2833 29.4586 39.9794 28.8955 39.7915 28.2922C39.5523 27.5577 39.3717 26.8064 39.2514 26.045C39.1171 25.2421 39.0245 24.4332 38.9738 23.6213C38.9246 22.8263 38.8953 22.0972 38.886 21.4341C38.8766 20.771 38.872 20.2594 38.872 19.8994V19.8984Z" fill="white"/>
<path d="M42.1666 31.0458C41.8506 31.0484 41.5382 30.9791 41.254 30.8434C40.9697 30.7076 40.7212 30.5091 40.528 30.2633C40.0989 29.7313 39.7758 29.1243 39.5758 28.4744C39.3319 27.7177 39.1473 26.9438 39.0237 26.1593C38.888 25.3363 38.7943 24.5072 38.7431 23.675C38.6943 22.871 38.6645 22.1238 38.6555 21.4528C38.6456 20.8053 38.6406 20.2791 38.6406 19.9006C38.6406 19.7764 38.6456 19.5788 38.6555 19.3285C38.6655 19.0781 38.6744 18.7993 38.6844 18.5127C38.6943 18.2262 38.7033 17.9494 38.7132 17.6814C38.7232 17.4134 38.7272 17.2275 38.7272 17.1209V17.0143L38.7889 16.9263C39.0344 16.5769 39.3576 16.2869 39.734 16.0783C40.0816 15.8804 40.4482 15.7166 40.8284 15.5893L41.2612 15.4475L41.2861 15.8954C41.3554 16.9861 41.5185 18.0692 41.7736 19.1328C42.0432 20.2879 42.3367 21.4655 42.6461 22.6334C42.9556 23.8012 43.2371 24.9807 43.4809 26.131C43.718 27.2088 43.8427 28.3077 43.853 29.4104C43.856 30.4658 43.256 31.0458 42.1666 31.0458ZM39.4236 17.2334C39.4236 17.3469 39.4176 17.5014 39.4097 17.7058C39.3997 17.9738 39.3901 18.2506 39.3808 18.5362C39.3715 18.8218 39.3619 19.0944 39.352 19.3539C39.34 19.66 39.338 19.8194 39.338 19.9006C39.338 20.2801 39.338 20.7985 39.353 21.443C39.3619 22.1032 39.3918 22.8407 39.4395 23.6339C39.4893 24.4432 39.5803 25.2495 39.7121 26.0498C39.8299 26.7994 40.0058 27.539 40.2384 28.2622C40.4113 28.8302 40.6914 29.3611 41.0642 29.8271C41.1926 29.9946 41.359 30.1303 41.5503 30.2232C41.7415 30.3161 41.9523 30.3637 42.1656 30.3621C42.871 30.3621 43.1605 30.0873 43.1605 29.4153C43.1503 28.3596 43.0306 27.3076 42.8033 26.2757C42.5626 25.1402 42.284 23.9743 41.9766 22.8104C41.6691 21.6465 41.3707 20.4523 41.1 19.2893C40.8742 18.3393 40.7169 17.3748 40.6295 16.403C40.4422 16.4836 40.2595 16.574 40.0822 16.674C39.8265 16.8148 39.6025 17.0051 39.4236 17.2334V17.2334ZM39.6634 11.7846C39.2087 11.7846 38.6118 11.6564 37.8546 11.3933L37.6208 11.3131V11.0696C37.6098 10.5473 37.7286 10.0303 37.967 9.56336C38.1511 9.2181 38.5491 8.80731 39.3977 8.80731H39.4684L39.533 8.8347C39.967 9.01726 40.3408 9.31494 40.6125 9.69442C40.911 10.1072 41.0503 10.5004 41.0105 10.8613C40.9797 11.1547 40.7956 11.5459 40.0962 11.7298C39.9552 11.7661 39.8101 11.7845 39.6644 11.7846H39.6634ZM38.3262 10.8309C39.2575 11.1244 39.7062 11.1244 39.9181 11.0725C40.2971 10.9747 40.316 10.8397 40.316 10.7957C40.3359 10.607 40.2444 10.3722 40.0444 10.1003C39.8613 9.8416 39.6127 9.63427 39.3231 9.49881C38.8346 9.51739 38.6655 9.72768 38.5799 9.89004C38.4306 10.1836 38.3442 10.5042 38.3262 10.8319V10.8309Z" fill="white"/>
<path d="M44.5205 20.9031C44.5205 20.4023 44.6476 20.0403 44.9017 19.8172C45.1559 19.5941 45.5661 19.4832 46.1324 19.4845H46.4256C46.4843 19.7932 46.5526 20.1499 46.6307 20.5546C46.7138 20.9779 46.8316 21.3939 46.9829 21.7985C47.1307 22.2056 47.3173 22.5979 47.5402 22.9703C47.7376 23.3083 48.0077 23.5995 48.3316 23.8232C48.3526 23.1426 48.528 22.4754 48.8449 21.8705C49.1585 21.2554 49.5631 20.6898 50.0456 20.1923C50.5144 19.7109 51.0472 19.2945 51.6295 18.9544C52.159 18.6356 52.7385 18.4061 53.3444 18.2752H53.9898C54.9277 18.2752 55.7281 18.4825 56.3911 18.8971C57.0557 19.3122 57.6207 19.865 58.0471 20.5171C58.5024 21.2171 58.8438 21.9833 59.0586 22.7876C59.2936 23.6369 59.4751 24.4997 59.6019 25.3711C59.7256 26.2147 59.8038 27.0642 59.8361 27.9161C59.8654 28.7354 59.8801 29.4344 59.8801 30.0128H57.7409C57.6235 28.8559 57.4771 27.7473 57.3017 26.687C57.243 26.2632 57.1649 25.815 57.0675 25.3425C56.9701 24.8699 56.8627 24.4264 56.7453 24.0117C56.6279 23.5971 56.5009 23.2115 56.3641 22.8548C56.2455 22.5335 56.0879 22.2276 55.8949 21.9436C55.8168 21.8666 55.7141 21.7606 55.5867 21.6257C55.4593 21.4908 55.3259 21.3559 55.1865 21.221C55.0497 21.0893 54.9227 20.9735 54.8053 20.8735C54.7461 20.8161 54.6782 20.7681 54.6041 20.7313C54.0178 20.5773 53.5099 20.6882 53.0803 21.064C52.6073 21.496 52.2195 22.0108 51.9367 22.5823C51.5839 23.2731 51.3133 24.0019 51.1302 24.7541C50.9248 25.5636 50.7537 26.3395 50.6169 27.0819C50.4802 27.8243 50.3825 28.4702 50.3238 29.0197C50.2651 29.5693 50.226 29.9019 50.2067 30.0178C49.7177 30.3646 49.2585 30.466 48.8289 30.3218C48.3993 30.1777 47.9938 29.874 47.6122 29.4107C47.1914 28.8812 46.8463 28.2973 46.5867 27.6752C46.2832 26.9809 46.0047 26.2434 45.7512 25.4629C45.4977 24.6824 45.2669 23.8949 45.0588 23.1006C44.8587 22.3108 44.6793 21.5783 44.5205 20.9031Z" fill="white"/>
<path d="M49.3341 30.6055C49.1641 30.6053 48.9954 30.5773 48.8347 30.5227C48.3444 30.3582 47.883 30.0154 47.4626 29.5051C47.0226 28.952 46.6614 28.3421 46.389 27.6924C46.0834 26.9929 45.7988 26.2392 45.5432 25.4531C45.2875 24.6669 45.0558 23.8768 44.8501 23.0808C44.6444 22.2848 44.4606 21.545 44.3068 20.878L44.2979 20.8406V20.8021C44.2979 20.2012 44.4656 19.75 44.7972 19.4613C45.1287 19.1727 45.5961 19.0426 46.2572 19.0426H46.8394L46.8934 19.3244C46.9519 19.6318 47.0185 19.9874 47.0931 20.3913C47.1727 20.7957 47.2852 21.193 47.4296 21.5794C47.5697 21.965 47.7462 22.3368 47.9569 22.6897C48.0235 22.7962 48.0976 22.8979 48.1786 22.9941C48.2681 22.514 48.4282 22.0493 48.654 21.6149C48.9835 20.9712 49.4079 20.3793 49.9133 19.8584C50.4012 19.3547 50.9558 18.9183 51.5621 18.5609C52.1241 18.2236 52.7389 17.9806 53.3816 17.8417L53.4166 17.8348H54.0956C55.0943 17.8348 55.9641 18.0614 56.6812 18.5087C57.3863 18.9497 57.9863 19.5362 58.4398 20.2278C58.9136 20.957 59.269 21.7548 59.4934 22.5922C59.7314 23.4553 59.9152 24.3321 60.0436 25.2176C60.1689 26.0716 60.2482 26.9316 60.2813 27.7938C60.3103 28.6115 60.3252 29.3198 60.3252 29.8981V30.2429H57.524L57.4921 29.9326C57.3762 28.7908 57.2294 27.6815 57.0557 26.6353C56.9977 26.2156 56.9198 25.7713 56.824 25.3063C56.7281 24.8413 56.6242 24.4029 56.5084 24.0029C56.3925 23.603 56.2707 23.2256 56.1379 22.8779C56.0325 22.5933 55.8945 22.3216 55.7264 22.0681C55.6486 21.9902 55.5497 21.8888 55.4328 21.7637C55.316 21.6385 55.1792 21.5006 55.0464 21.3696C54.9135 21.2386 54.7967 21.1332 54.6898 21.0445C54.6349 20.9992 54.601 20.9736 54.581 20.9588C54.1226 20.8484 53.7531 20.9332 53.4196 21.2248C52.9802 21.6283 52.62 22.1082 52.357 22.6405C52.018 23.3057 51.7576 24.0071 51.581 24.731C51.3813 25.5319 51.2075 26.3072 51.0737 27.0323C50.9399 27.7574 50.842 28.4017 50.7851 28.9406C50.7282 29.4794 50.6852 29.8272 50.6653 29.9563L50.6423 30.0971L50.5255 30.1809C50.12 30.4607 49.7215 30.6055 49.3341 30.6055ZM44.9959 20.7637C45.1467 21.4139 45.3255 22.1361 45.5262 22.9094C45.7269 23.6828 45.9586 24.4748 46.2083 25.2413C46.4579 26.0077 46.7336 26.7387 47.0302 27.4185C47.2773 28.0101 47.6053 28.5656 48.0049 29.0696C48.3414 29.4785 48.6969 29.7474 49.0604 29.8696C49.346 29.9681 49.6536 29.908 49.9982 29.6932C50.0161 29.5553 50.0451 29.308 50.092 28.8608C50.151 28.3041 50.2508 27.6451 50.3916 26.9013C50.5324 26.1575 50.7022 25.3713 50.9079 24.5556C51.0976 23.7801 51.3771 23.0288 51.7408 22.3163C52.0433 21.7082 52.457 21.1605 52.9612 20.7007C53.4755 20.2505 54.0877 20.1096 54.7817 20.2879C54.8906 20.3076 54.9814 20.3766 55.1422 20.5056C55.2661 20.6041 55.4019 20.7312 55.5417 20.8731C55.6815 21.0149 55.8163 21.1499 55.9412 21.2859C56.066 21.4218 56.1649 21.5213 56.2407 21.5942L56.2637 21.6169L56.2817 21.6425C56.4903 21.9496 56.6607 22.2803 56.789 22.6276C56.9298 22.9951 57.0606 23.3931 57.1795 23.8098C57.2983 24.2266 57.4072 24.6807 57.507 25.1615C57.6069 25.6422 57.6858 26.1003 57.7447 26.5259C57.9035 27.4835 58.0443 28.4963 58.1532 29.5464H59.6222C59.6222 29.046 59.6032 28.4628 59.5802 27.8106C59.5481 26.9727 59.4711 26.1371 59.3496 25.3073C59.2253 24.4504 59.0476 23.6018 58.8173 22.7666C58.6119 21.999 58.2864 21.2678 57.8526 20.5992C57.4536 19.9906 56.9259 19.4744 56.3057 19.086C55.7065 18.7097 54.9575 18.5185 54.0936 18.5185H53.4865C52.9327 18.6451 52.4032 18.859 51.9186 19.152C51.3649 19.4774 50.8583 19.875 50.4126 20.3342C49.9567 20.806 49.574 21.3419 49.2771 21.9242C48.985 22.4825 48.823 23.0981 48.8028 23.7261L48.7848 24.3586L48.2555 24C47.8905 23.7482 47.5858 23.4207 47.3627 23.0404C47.1279 22.6501 46.931 22.2388 46.7745 21.8119C46.6176 21.3908 46.4954 20.9579 46.409 20.5174C46.3537 20.2311 46.3031 19.9684 46.2572 19.7293C45.7888 19.7293 45.4443 19.814 45.2586 19.9746C45.0888 20.1244 45.0009 20.3884 44.9949 20.7637H44.9959Z" fill="white"/>
<path d="M67.0963 29.3177C67.4103 29.1084 67.7888 28.837 68.2317 28.5036C68.6746 28.1702 69.1219 27.8127 69.5735 27.4312C70.0201 27.0559 70.4436 26.6555 70.8418 26.2321C71.1975 25.8626 71.5092 25.4554 71.7709 25.0184C71.9795 24.6861 72.0963 24.3074 72.1101 23.9187C72.1101 23.5762 71.9333 23.2905 71.5796 23.0618C70.9502 23.0618 70.262 23.0855 69.5151 23.1329C68.7682 23.1804 68.021 23.1995 67.2734 23.1904C66.5472 23.183 65.8226 23.121 65.1063 23.0052C64.4487 22.9046 63.8147 22.6917 63.234 22.3764C62.6821 22.0688 62.2291 21.6189 61.9254 21.0769C61.6013 20.5153 61.4393 19.7965 61.4393 18.9204C61.4241 17.9603 61.6304 17.0091 62.0432 16.1361C62.4408 15.3161 62.9862 14.5713 63.6537 13.9368C64.3337 13.2899 65.091 12.7241 65.9095 12.2512C66.7165 11.7792 67.5574 11.3641 68.426 11.0092C68.9449 11.1465 69.4275 11.3898 69.8412 11.7228C70.2636 12.0556 70.6401 12.4396 70.9616 12.8654C70.8302 13.2791 70.5398 13.6281 70.1503 13.8402C69.7102 14.0847 69.2458 14.2855 68.7642 14.4398C68.2428 14.6114 67.6972 14.7924 67.1275 14.9828C66.5767 15.1628 66.0548 15.4172 65.5773 15.7384C65.1043 16.064 64.7074 16.4825 64.4127 16.9667C64.098 17.4717 63.9406 18.1333 63.9406 18.9516C63.9406 19.5612 64.098 20.0087 64.4127 20.294C64.7616 20.5962 65.1902 20.7987 65.6508 20.879C66.2236 20.988 66.8084 21.0264 67.3912 20.993C68.0401 20.9644 68.7038 20.9215 69.3822 20.8643C70.0607 20.8072 70.7243 20.7747 71.3733 20.7669C71.9624 20.7493 72.5505 20.8264 73.1137 20.995C73.5919 21.1359 74.0173 21.409 74.3377 21.7808C74.6423 22.1428 74.7946 22.676 74.7946 23.3806C74.7946 23.6854 74.6913 24.0753 74.4846 24.5504C74.2498 25.0791 73.9739 25.5898 73.6592 26.0781C72.9292 27.2141 72.0354 28.2432 71.0049 29.1344C70.5424 29.5357 70.0384 29.8899 69.501 30.1912C68.9997 30.4674 68.5327 30.6055 68.0998 30.6055C67.6871 30.6055 67.4167 30.4628 67.2885 30.1775C67.1635 29.9069 67.098 29.6141 67.0963 29.3177V29.3177Z" fill="white"/>
<path d="M68.1055 31.0459C67.414 31.0459 67.1177 30.6978 66.9922 30.4067C66.8512 30.0905 66.7776 29.7487 66.7759 29.4028V29.2218L66.926 29.1235C67.2303 28.9151 67.5987 28.6437 68.0235 28.3143C68.4482 27.9849 68.8858 27.626 69.3254 27.2454C69.7531 26.876 70.1588 26.482 70.5404 26.0655C70.8718 25.7117 71.1623 25.3222 71.4067 24.9042C71.5817 24.62 71.6809 24.2962 71.6952 23.9632C71.6952 23.8324 71.6636 23.6417 71.4087 23.443C70.8328 23.443 70.1977 23.4696 69.5161 23.5138C68.7772 23.562 68.0274 23.5827 67.2895 23.5718C66.5588 23.5621 65.83 23.4964 65.1094 23.3752C64.4239 23.2666 63.7631 23.0382 63.1575 22.7006C62.5599 22.3596 62.0686 21.8608 61.738 21.2591C61.3923 20.6436 61.2165 19.855 61.2165 18.916C61.2025 17.8967 61.4165 16.887 61.8427 15.9602C62.2507 15.0961 62.8096 14.3111 63.4934 13.6416C64.1807 12.9707 64.9457 12.3835 65.7723 11.8923C66.58 11.4067 67.4219 10.9795 68.2912 10.614L68.4008 10.5688L68.5154 10.5993C69.0719 10.7511 69.5895 11.0193 70.0337 11.3859C70.4711 11.7405 70.8611 12.1492 71.1944 12.6022L71.2931 12.7428L71.2398 12.909C71.0844 13.4059 70.7446 13.825 70.2895 14.0811C69.8385 14.342 69.3623 14.5571 68.8681 14.7232C68.357 14.8963 67.822 15.0785 67.2629 15.2699C66.7536 15.442 66.2712 15.6842 65.8295 15.9897C65.405 16.291 65.0486 16.6775 64.7835 17.1244C64.5088 17.5767 64.3705 18.1903 64.3705 18.9484C64.3705 19.4617 64.4891 19.8334 64.7242 20.0517C65.021 20.3126 65.3843 20.4872 65.7742 20.5561C66.3075 20.6597 66.8518 20.6961 67.3942 20.6643C68.0235 20.6357 68.6784 20.5925 69.3333 20.5354C69.9882 20.4784 70.6669 20.443 71.3089 20.4371C71.9254 20.4194 72.5405 20.5031 73.1295 20.6849C73.6614 20.8478 74.1343 21.1611 74.4907 21.5866C74.8404 22.0133 75.0172 22.6299 75.0172 23.4175C75.0172 23.7744 74.9085 24.2041 74.6863 24.7321C74.4486 25.2816 74.1696 25.8125 73.8516 26.3201C73.1183 27.4947 72.2202 28.5589 71.1845 29.4804C70.7125 29.9008 70.1985 30.2718 69.6504 30.5876C69.1091 30.8875 68.5895 31.0459 68.1055 31.0459ZM67.4762 29.5709C67.4977 29.762 67.5483 29.9487 67.6264 30.1245C67.656 30.1924 67.7252 30.3497 68.1055 30.3497C68.468 30.3497 68.873 30.2238 69.3096 29.977C69.8158 29.6861 70.2908 29.3445 70.7271 28.9573C71.7126 28.081 72.5674 27.0691 73.2658 25.9524C73.5667 25.4747 73.8308 24.9751 74.056 24.4578C74.2398 24.0222 74.3326 23.6712 74.3326 23.4096C74.3326 22.7842 74.2082 22.3142 73.9622 22.0133C73.6902 21.6892 73.3285 21.4519 72.922 21.3309C72.4036 21.1712 71.8622 21.0981 71.3198 21.1146C70.6916 21.1244 70.0426 21.1579 69.3916 21.2129C68.7248 21.2709 68.062 21.3113 67.4239 21.3437C66.8228 21.3783 66.2198 21.3374 65.629 21.2218C65.1141 21.1278 64.6354 20.8937 64.2461 20.5453C63.8668 20.1913 63.6741 19.6515 63.6741 18.9405C63.6741 18.0556 63.847 17.3211 64.1868 16.7606C64.5015 16.2317 64.9242 15.7745 65.4275 15.4184C65.922 15.0759 66.4624 14.8042 67.0327 14.6111C67.5925 14.419 68.1285 14.2365 68.6409 14.0634C69.0915 13.915 69.526 13.7219 69.9379 13.4872C70.1934 13.3455 70.3967 13.126 70.5177 12.8608C70.2445 12.5136 69.9334 12.1977 69.5901 11.9188C69.2516 11.6393 68.8618 11.428 68.4423 11.2964C67.6434 11.6368 66.8688 12.031 66.1239 12.4764C65.3453 12.942 64.625 13.4982 63.9784 14.1332C63.3539 14.7455 62.8435 15.4633 62.471 16.2532C62.0885 17.0882 61.8972 17.9974 61.9109 18.915C61.9109 19.735 62.0571 20.4106 62.3445 20.9219C62.6138 21.4139 63.0144 21.8223 63.5023 22.1018C64.0375 22.3979 64.621 22.5977 65.226 22.6918C65.9117 22.8057 66.6052 22.8669 67.3004 22.8747C68.0205 22.8845 68.7515 22.8649 69.4736 22.8177C70.2135 22.7695 70.9029 22.7449 71.5223 22.7449H71.627L71.7139 22.8029C72.2721 23.1726 72.3886 23.6328 72.3886 23.9534C72.3751 24.4046 72.2451 24.8448 72.0113 25.2316C71.7415 25.6964 71.4201 26.1294 71.0531 26.5227C70.6532 26.9596 70.228 27.373 69.7798 27.7607C69.3304 28.154 68.8829 28.5168 68.4482 28.8531C68.0837 29.1353 67.7578 29.3743 67.4762 29.5709Z" fill="white"/>
<path d="M77.565 9.24768C77.9423 9.40421 78.267 9.6601 78.5022 9.98639C78.7553 10.327 78.8675 10.6346 78.8389 10.9093C78.8102 11.184 78.5907 11.3733 78.1804 11.4774C77.7708 11.5814 77.0877 11.4725 76.1312 11.1507C76.1199 10.688 76.2255 10.2297 76.4389 9.81577C76.6434 9.43769 77.0188 9.24833 77.565 9.24768ZM77.1563 19.8989C77.1563 19.7852 77.1613 19.6007 77.1713 19.3454C77.1813 19.0901 77.191 18.8203 77.2003 18.5359C77.2096 18.2522 77.2193 17.9775 77.2292 17.7119C77.2392 17.4462 77.2442 17.2569 77.2442 17.1438C77.4607 16.8391 77.7461 16.5864 78.0785 16.4051C78.4086 16.2206 78.7567 16.0683 79.1176 15.9504C79.1884 17.0509 79.3555 18.1435 79.6172 19.2164C79.8903 20.3714 80.183 21.5311 80.4954 22.6958C80.8078 23.8604 81.0859 25.0108 81.3297 26.147C81.5632 27.1923 81.6858 28.2581 81.6954 29.3277C81.6954 30.1795 81.2465 30.6054 80.3486 30.6054C80.0828 30.6073 79.8201 30.5493 79.5814 30.4359C79.3426 30.3225 79.1343 30.1569 78.9728 29.952C78.5695 29.4579 78.2664 28.8941 78.0795 28.2904C77.8392 27.5563 77.6574 26.8054 77.536 26.0442C77.4009 25.2414 77.3076 24.4325 77.2562 23.6206C77.2069 22.8257 77.1776 22.0967 77.1683 21.4336C77.159 20.7705 77.155 20.2589 77.1563 19.8989Z" fill="white"/>
<path d="M80.2313 31.0458C79.9152 31.0484 79.6028 30.9791 79.3185 30.8434C79.0342 30.7076 78.7857 30.5091 78.5924 30.2633C78.1632 29.7313 77.8401 29.1243 77.6401 28.4744C77.3961 27.7177 77.2115 26.9438 77.0878 26.1593C76.9521 25.3363 76.8585 24.5072 76.8072 23.675C76.7585 22.871 76.7286 22.1238 76.7196 21.4528C76.7097 20.8053 76.7047 20.2791 76.7047 19.9006C76.7047 19.7764 76.7097 19.5788 76.7196 19.3285C76.7296 19.0781 76.7386 18.7993 76.7485 18.5127C76.7585 18.2262 76.7674 17.9494 76.7774 17.6814C76.7873 17.4134 76.7913 17.2275 76.7913 17.1209V17.0143L76.853 16.9263C77.0986 16.5769 77.4219 16.2869 77.7983 16.0783C78.146 15.8804 78.5126 15.7166 78.8929 15.5893L79.3258 15.4475L79.3506 15.8954C79.4199 16.9861 79.583 18.0692 79.8382 19.1328C80.1079 20.2879 80.4014 21.4655 80.7109 22.6334C81.0204 23.8012 81.302 24.9807 81.5458 26.131C81.7829 27.2088 81.9076 28.3077 81.9179 29.4104C81.9209 30.4658 81.3209 31.0458 80.2313 31.0458ZM77.4888 17.2334C77.4888 17.3469 77.4829 17.5014 77.4749 17.7058C77.465 17.9738 77.4553 18.2506 77.4461 18.5362C77.4368 18.8218 77.4271 19.0944 77.4172 19.3539C77.4053 19.66 77.4033 19.8194 77.4033 19.9006C77.4033 20.2801 77.4033 20.7985 77.4182 21.443C77.4271 22.1032 77.457 22.8407 77.5048 23.6339C77.5545 24.4432 77.6455 25.2495 77.7774 26.0498C77.8952 26.7994 78.0711 27.539 78.3038 28.2622C78.4767 28.8302 78.7569 29.3611 79.1297 29.8271C79.2581 29.9946 79.4246 30.1303 79.6159 30.2232C79.8071 30.3161 80.0179 30.3637 80.2313 30.3621C80.9368 30.3621 81.2263 30.0873 81.2263 29.4153C81.2161 28.3596 81.0964 27.3076 80.8691 26.2757C80.6283 25.1402 80.3497 23.9743 80.0422 22.8104C79.7347 21.6465 79.4362 20.4523 79.1655 19.2893C78.9396 18.3393 78.7823 17.3748 78.6949 16.403C78.5076 16.4836 78.3249 16.574 78.1476 16.674C77.8918 16.8148 77.6678 17.0051 77.4888 17.2334ZM77.7287 11.7846C77.2739 11.7846 76.6769 11.6564 75.9196 11.3933L75.6858 11.3131V11.0696C75.6747 10.5473 75.7936 10.0303 76.032 9.56336C76.2161 9.2181 76.6142 8.80731 77.463 8.80731H77.5336L77.5983 8.8347C78.0324 9.01726 78.4062 9.31494 78.678 9.69442C78.9765 10.1072 79.1158 10.5004 79.076 10.8613C79.0451 11.1547 78.8611 11.5459 78.1615 11.7298C78.0202 11.7662 77.8747 11.7846 77.7287 11.7846V11.7846ZM76.3913 10.8309C77.3227 11.1244 77.7714 11.1244 77.9834 11.0725C78.3625 10.9747 78.3814 10.8397 78.3814 10.7957C78.4013 10.607 78.3098 10.3722 78.1098 10.1003C77.9266 9.8416 77.6779 9.63427 77.3883 9.49881C76.8998 9.51739 76.7306 9.72768 76.645 9.89004C76.4953 10.1835 76.4086 10.5041 76.3903 10.8319L76.3913 10.8309Z" fill="white"/>
<path d="M90.0551 45.7116C91.118 45.7116 92.0675 45.5173 92.9036 45.1287C93.7173 44.7556 94.4411 44.2118 95.0258 43.5343C95.6088 42.8536 96.0625 42.0722 96.3645 41.2286C96.6775 40.3662 96.8364 39.4556 96.8341 38.5383C96.8341 38.0635 96.8104 37.4371 96.7631 36.6592C96.7158 35.8812 96.6445 35.0369 96.5492 34.1262C96.4539 33.2155 96.3162 32.2857 96.136 31.3367C95.9655 30.4277 95.7422 29.5294 95.4672 28.6463C95.2318 27.8693 94.9027 27.1238 94.4872 26.4262C94.0984 25.7908 93.6473 25.34 93.134 25.0737C92.6401 25.4533 92.156 25.7995 91.6815 26.1124C91.215 26.4214 90.719 26.6837 90.2009 26.8955C89.684 27.1058 89.1503 27.2726 88.6056 27.3939C88.0257 27.5203 87.4336 27.5822 86.8401 27.5785C86.1356 27.5915 85.4323 27.5151 84.747 27.3512C84.2063 27.2202 83.707 26.956 83.2946 26.5827C82.886 26.1917 82.5865 25.7011 82.4255 25.1592C82.2356 24.5718 82.1406 23.8333 82.1406 22.944C82.1438 22.3043 82.3002 21.6746 82.5966 21.1077C82.914 20.4905 83.3219 19.9243 83.8069 19.4277C84.3252 18.8917 84.8965 18.4096 85.5121 17.9888C86.1366 17.559 86.7935 17.1783 87.4769 16.8501C88.1164 16.5402 88.7841 16.2923 89.4708 16.1097C90.041 15.9509 90.629 15.8647 91.2207 15.8532C91.714 15.8532 92.1223 15.8675 92.4457 15.896C92.7338 15.9146 93.015 15.9919 93.272 16.1233C93.5126 16.2593 93.7136 16.4555 93.8553 16.6927C94.0493 17.0207 94.2067 17.369 94.3249 17.7313C94.7617 19.2114 95.265 20.8055 95.8347 22.5136C96.4044 24.2217 96.9455 25.977 97.4582 27.7797C97.9709 29.5823 98.4028 31.3992 98.7541 33.2304C99.0972 34.9794 99.2737 36.7569 99.281 38.5392C99.281 40.0569 99.0675 41.3426 98.6404 42.3965C98.2133 43.4504 97.653 44.3138 96.9595 44.9868C96.2794 45.6529 95.4764 46.1809 94.5951 46.5414C93.7433 46.8936 92.8475 47.1283 91.9324 47.239C91.0724 47.3422 90.2048 47.366 89.3406 47.3099C88.6102 47.2691 87.8853 47.1595 87.1755 46.9825C86.5676 46.8212 86.1071 46.6363 85.7941 46.4277C85.481 46.2191 85.4052 46.0436 85.5666 45.9011C85.7279 45.7586 86.1599 45.6588 86.8625 45.6018C87.565 45.5448 88.6292 45.5814 90.0551 45.7116ZM90.4537 18.2434C89.0486 18.5471 87.9144 18.9682 87.0511 19.5064C86.1878 20.0447 85.5423 20.6235 85.1145 21.2427C84.6874 21.8594 84.4547 22.4747 84.4165 23.0888C84.3782 23.7028 84.4923 24.2294 84.7587 24.6686C85.0296 25.1099 85.4336 25.4538 85.9127 25.6509C86.4156 25.8692 86.9898 25.8786 87.6354 25.6791C88.2809 25.4796 88.9692 25.0478 89.7003 24.3839C90.4307 23.72 91.1666 22.7332 91.9081 21.4234C91.9081 21.0996 91.9129 20.7485 91.9226 20.3702C91.9357 20.0212 91.903 19.6721 91.8254 19.3316C91.759 19.0359 91.6112 18.7646 91.3986 18.5484C91.1893 18.3451 90.8743 18.2434 90.4537 18.2434V18.2434Z" fill="white"/>
<path d="M90.3457 47.7798C90.0369 47.7798 89.7329 47.7698 89.4338 47.7497C88.6829 47.707 87.9376 47.5939 87.2079 47.4118C86.5582 47.2389 86.0745 47.0428 85.7269 46.8117C85.5385 46.6854 85.286 46.4854 85.2665 46.1931C85.2619 46.1088 85.277 46.0246 85.3107 45.9472C85.3445 45.8698 85.3959 45.8014 85.4608 45.7474C85.6123 45.6134 85.9192 45.4484 86.9525 45.3648C87.6692 45.3066 88.7559 45.3445 90.1826 45.4775C91.1075 45.4913 92.0242 45.303 92.8688 44.9259C93.6372 44.5725 94.321 44.0586 94.8743 43.4189C95.429 42.7697 95.861 42.0252 96.1494 41.2215C96.4477 40.3968 96.5996 39.5262 96.5981 38.6492C96.5981 38.189 96.5748 37.5636 96.5272 36.7926C96.4796 36.0216 96.4087 35.1768 96.3155 34.2757C96.2222 33.3746 96.0843 32.4492 95.9066 31.5161C95.7381 30.6208 95.518 29.736 95.2472 28.8661C95.0192 28.1159 94.7013 27.396 94.3003 26.7221C94.0438 26.2755 93.69 25.8925 93.265 25.6016C92.83 25.9307 92.3968 26.2376 91.9753 26.5163C91.4904 26.8372 90.9752 27.1097 90.437 27.33C89.902 27.5472 89.3497 27.7193 88.786 27.8446C88.1822 27.9766 87.5657 28.0418 86.9476 28.0388C86.2147 28.0512 85.4831 27.971 84.7703 27.8C84.1775 27.6522 83.6308 27.3592 83.1795 26.9474C82.7291 26.5169 82.3981 25.9769 82.219 25.3802C82.019 24.7626 81.918 23.9809 81.918 23.0575C81.9218 22.3649 82.0906 21.6832 82.4103 21.0688C82.7431 20.4223 83.1702 19.829 83.6777 19.3083C84.213 18.7568 84.8025 18.2607 85.4375 17.8275C86.0759 17.388 86.7474 16.9984 87.4458 16.6623C88.1044 16.3435 88.7918 16.0883 89.4989 15.9C90.0971 15.7343 90.7138 15.6446 91.3344 15.633C91.8345 15.633 92.257 15.6476 92.5881 15.6767C92.9219 15.6997 93.2474 15.7905 93.5447 15.9437C93.8364 16.1074 94.0807 16.344 94.2537 16.6302C94.4619 16.9798 94.6306 17.3514 94.7568 17.7382L94.7616 17.7537C95.1928 19.2171 95.6988 20.8212 96.2659 22.5215C96.8331 24.2217 97.3808 25.9997 97.8926 27.799C98.4044 29.5983 98.8424 31.4423 99.194 33.2756C99.54 35.0448 99.7181 36.8427 99.7262 38.6453C99.7262 40.199 99.5028 41.539 99.0609 42.6265C98.6191 43.7141 98.0276 44.6278 97.3041 45.3309C96.5928 46.0252 95.7543 46.5758 94.8344 46.9525C93.9547 47.3157 93.0299 47.5581 92.0851 47.673C91.5078 47.7421 90.9271 47.7778 90.3457 47.7798ZM86.0367 46.198C86.0551 46.2126 86.0775 46.2281 86.1037 46.2456C86.3843 46.432 86.8146 46.6039 87.3817 46.7544C88.0695 46.9253 88.7718 47.0313 89.4794 47.0709C90.3215 47.1248 91.1667 47.1014 92.0045 47.001C92.8882 46.8936 93.7533 46.6669 94.5761 46.3271C95.4153 45.9833 96.1803 45.4808 96.8292 44.8473C97.4847 44.2093 98.0228 43.3781 98.4297 42.3741C98.8366 41.37 99.0454 40.1135 99.0454 38.6473C99.0373 36.887 98.863 35.1313 98.5249 33.4037C98.1772 31.5899 97.7479 29.7673 97.2371 27.9844C96.7263 26.2016 96.1844 24.4295 95.6201 22.7409C95.0559 21.0523 94.5441 19.4278 94.1109 17.9586C94.0016 17.6235 93.8564 17.3012 93.6778 16.9973C93.5673 16.8095 93.4096 16.6538 93.2204 16.5458C93.0043 16.437 92.7684 16.3733 92.527 16.3584C92.2152 16.3312 91.8141 16.3166 91.3334 16.3166C90.7708 16.3282 90.2119 16.4104 89.6698 16.5613C89.0049 16.7386 88.3584 16.9788 87.7391 17.2789C87.0721 17.5996 86.4308 17.9713 85.8211 18.3907C85.2253 18.7982 84.6722 19.2647 84.1701 19.7832C83.7094 20.2552 83.3215 20.7933 83.0193 21.3795C82.7472 21.8994 82.603 22.4766 82.5987 23.0633C82.5987 23.9158 82.6891 24.6276 82.8668 25.1782C83.0109 25.6642 83.2786 26.1044 83.6437 26.4561C84.0152 26.7904 84.4641 27.027 84.9499 27.1445C85.6067 27.3006 86.2805 27.3734 86.9554 27.361C87.5234 27.3643 88.0901 27.305 88.6452 27.1843C89.1709 27.0655 89.6858 26.9031 90.1845 26.6988C90.6816 26.4954 91.1575 26.2437 91.6053 25.9472C92.0715 25.6394 92.5532 25.2947 93.0368 24.9228L93.2087 24.7907L93.4029 24.8878C93.9682 25.1792 94.4712 25.6773 94.8879 26.3628C95.3179 27.0838 95.659 27.8543 95.9037 28.6574C96.1828 29.5524 96.4097 30.4628 96.5835 31.384C96.7641 32.3356 96.904 33.2833 97.0001 34.2C97.0963 35.1166 97.1672 35.9682 97.2148 36.746C97.2633 37.5423 97.2866 38.1637 97.2866 38.6444C97.2894 39.6003 97.1251 40.5494 96.801 41.4487C96.4849 42.3302 96.011 43.1468 95.4026 43.8588C94.7866 44.5718 94.0249 45.1446 93.1689 45.5387C92.2295 45.9597 91.209 46.1696 90.1797 46.1533H90.1476C88.752 46.0232 87.7003 45.9853 87.0205 46.0397C86.4543 46.0873 86.1746 46.1523 86.0367 46.199V46.198ZM86.8748 26.2852C86.5376 26.289 86.2033 26.2229 85.8929 26.0909C85.3504 25.8657 84.8929 25.4749 84.5858 24.9743C84.2847 24.48 84.1526 23.8819 84.1973 23.1983C84.242 22.5147 84.4886 21.8388 84.9538 21.1766C85.419 20.5143 86.0901 19.9084 86.9874 19.3462C87.8848 18.784 89.0599 18.347 90.4963 18.0363L90.5322 18.0285H90.5681C91.076 18.0285 91.4732 18.1674 91.7471 18.4412C92.0036 18.7014 92.1824 19.0279 92.2638 19.3841C92.3489 19.7535 92.3854 20.1325 92.3725 20.5114C92.3628 20.8756 92.358 21.2271 92.358 21.5553V21.6446L92.3143 21.7223C91.5607 23.0565 90.7954 24.08 90.0417 24.7655C89.2881 25.451 88.5403 25.92 87.8508 26.1327C87.535 26.2324 87.206 26.2841 86.8748 26.2861V26.2852ZM90.6021 18.7043C89.26 18.9957 88.1645 19.4064 87.3477 19.9181C86.531 20.4299 85.9104 20.9863 85.5122 21.5592C85.1141 22.1321 84.9091 22.6856 84.8752 23.2352C84.8412 23.7848 84.9402 24.2431 85.1665 24.616C85.4 24.9975 85.7495 25.2942 86.1639 25.4627C86.5931 25.6491 87.0797 25.6569 87.6498 25.4782C88.2441 25.2947 88.8948 24.884 89.5843 24.2567C90.2739 23.6294 90.9741 22.6924 91.6782 21.4592C91.6782 21.1504 91.684 20.8241 91.6927 20.4881C91.7039 20.169 91.6736 19.8498 91.6024 19.5385C91.5508 19.3034 91.434 19.0877 91.2654 18.916C91.1285 18.782 90.9051 18.7102 90.6011 18.7053L90.6021 18.7043Z" fill="white"/>
<path d="M100.111 11.9654C100.116 11.7018 100.14 11.4389 100.184 11.1788C100.232 10.8686 100.321 10.5658 100.449 10.278C100.565 10.009 100.729 9.76215 100.933 9.54902C101.031 9.44909 101.15 9.37062 101.282 9.3188C101.413 9.26698 101.555 9.24299 101.697 9.24844C101.746 9.25398 101.795 9.26345 101.843 9.27674C101.891 9.29032 101.94 9.29979 101.989 9.30504C102.316 10.4518 102.513 11.6299 102.576 12.8184C102.636 13.9478 102.616 15.0799 102.517 16.2068C102.419 17.3031 102.272 18.361 102.077 19.3805C101.882 20.4 101.721 21.3389 101.593 22.197C101.475 22.9646 101.397 23.7376 101.359 24.5129C101.329 25.1993 101.432 25.7806 101.668 26.2569C101.624 25.8914 101.6 25.5239 101.594 25.156C101.586 24.7102 101.625 24.2647 101.712 23.8268C101.804 23.3547 101.952 22.8943 102.152 22.4547C102.362 21.9902 102.667 21.5719 103.047 21.225C103.483 20.8375 103.999 20.5451 104.56 20.3672C105.176 20.1577 105.945 20.0529 106.864 20.0529C107.823 20.0529 108.65 20.2156 109.346 20.5409C110.017 20.847 110.605 21.3023 111.063 21.8701C111.527 22.4587 111.871 23.1281 112.076 23.8424C112.306 24.6282 112.42 25.4418 112.414 26.2588C112.414 26.6589 112.409 27.1118 112.399 27.6173C112.394 28.0912 112.325 28.5623 112.194 29.0187C112.075 29.4341 111.841 29.8097 111.518 30.1049C111.196 30.4003 110.721 30.548 110.094 30.548C110.094 30.2435 110.114 29.8291 110.153 29.3047C110.193 28.7803 110.217 28.2227 110.227 27.6319C110.236 27.0412 110.216 26.4407 110.167 25.8304C110.128 25.2645 109.992 24.7089 109.767 24.186C109.568 23.7232 109.261 23.3121 108.871 22.9856C108.489 22.6713 107.966 22.5142 107.3 22.5142C107.065 22.5142 106.777 22.5285 106.435 22.5571C106.074 22.5903 105.722 22.682 105.392 22.8284C105.01 23.0013 104.663 23.2385 104.365 23.5292C104.002 23.892 103.73 24.3325 103.573 24.8154C103.377 25.3587 103.264 26.0448 103.235 26.8737C103.205 27.7025 103.308 28.7175 103.543 29.9185C103.407 30.2614 103.235 30.4615 103.029 30.5187C102.775 30.5816 102.514 30.6105 102.252 30.6046C101.962 30.613 101.674 30.5598 101.408 30.4487C101.142 30.3377 100.904 30.1714 100.711 29.9615C100.31 29.5327 100.001 28.9563 99.7856 28.2321C99.5531 27.4104 99.4104 26.5671 99.3597 25.7162C99.2929 24.7631 99.2685 23.767 99.2865 22.7279C99.3046 21.6889 99.3583 20.631 99.4479 19.5542C99.536 18.4774 99.6242 17.4576 99.7124 16.4947C99.8006 15.5318 99.8888 14.6534 99.977 13.8597C100.055 13.2309 100.1 12.5987 100.111 11.9654Z" fill="white"/>
<path d="M102.319 31.0444C101.986 31.0534 101.656 30.9906 101.35 30.8603C101.044 30.73 100.77 30.5354 100.548 30.2898C100.12 29.8248 99.7887 29.1979 99.5644 28.4268C99.3312 27.5825 99.1881 26.7162 99.1375 25.8423C99.0696 24.8859 99.045 23.872 99.0647 22.8279C99.0844 21.7838 99.1375 20.7192 99.224 19.637C99.3106 18.5549 99.3972 17.5361 99.4838 16.5778C99.5703 15.6194 99.6579 14.7323 99.7435 13.9455C99.8181 13.3271 99.8608 12.7052 99.8714 12.0825C99.876 11.8022 99.9013 11.5226 99.9471 11.246C99.9983 10.9069 100.094 10.5759 100.231 10.2614C100.361 9.95589 100.545 9.67566 100.773 9.43366C100.902 9.30033 101.057 9.1953 101.229 9.12542C101.401 9.05554 101.586 9.02238 101.772 9.0281C101.849 9.03176 101.925 9.04453 101.998 9.06612L102.078 9.08464H102.322L102.392 9.33617C102.719 10.5069 102.917 11.7096 102.982 12.9228C103.041 14.0664 103.021 15.2126 102.924 16.3535C102.826 17.4542 102.68 18.5325 102.487 19.5571C102.312 20.4832 102.165 21.3509 102.045 22.1425C102.26 21.7506 102.536 21.3952 102.863 21.0896C103.326 20.6699 103.874 20.3525 104.47 20.1586C105.11 19.9373 105.91 19.8252 106.846 19.8252C107.83 19.8252 108.704 19.9997 109.431 20.3438C110.136 20.6726 110.755 21.16 111.238 21.7672C111.719 22.3898 112.077 23.0975 112.291 23.8525C112.525 24.6686 112.642 25.5135 112.637 26.3619C112.637 26.7577 112.637 27.2033 112.622 27.7268C112.616 28.2299 112.543 28.73 112.407 29.2145C112.272 29.6882 112.01 30.1166 111.648 30.4536C111.267 30.8085 110.717 30.9888 110.015 30.9888H109.671V30.6476C109.671 30.3327 109.69 29.9057 109.73 29.3802C109.769 28.8547 109.791 28.3078 109.801 27.7287C109.81 27.1496 109.791 26.5588 109.743 25.9612C109.708 25.4339 109.586 24.9158 109.381 24.4277C109.207 24.0145 108.937 23.6474 108.594 23.3553C108.286 23.096 107.842 22.9653 107.275 22.9653C107.055 22.9653 106.783 22.979 106.455 23.0073C106.139 23.0377 105.83 23.1201 105.542 23.251C105.204 23.4075 104.896 23.6217 104.633 23.8837C104.317 24.2104 104.081 24.6051 103.944 25.037C103.764 25.544 103.66 26.202 103.632 26.9927C103.605 27.7833 103.704 28.7894 103.927 29.9583L103.946 30.0558L103.911 30.1475C103.736 30.593 103.49 30.864 103.18 30.9518C102.899 31.0219 102.609 31.0531 102.319 31.0444V31.0444ZM101.752 9.70858C101.663 9.70571 101.574 9.7216 101.491 9.7552C101.408 9.7888 101.333 9.83935 101.271 9.90356C101.098 10.0876 100.96 10.3005 100.862 10.5324C100.748 10.7928 100.669 11.0668 100.627 11.3474C100.586 11.5905 100.564 11.8361 100.559 12.0825C100.549 12.7297 100.505 13.3759 100.427 14.0186C100.342 14.7986 100.254 15.6848 100.168 16.6402C100.083 17.5956 99.9953 18.6231 99.9097 19.6936C99.8241 20.764 99.771 21.8218 99.7523 22.8425C99.7336 23.8632 99.7523 24.8606 99.8232 25.7974C99.8717 26.6233 100.008 27.4418 100.228 28.2396C100.425 28.9093 100.704 29.4455 101.06 29.8326C101.217 30.0072 101.412 30.1453 101.629 30.2371C101.847 30.3289 102.082 30.3722 102.318 30.3639C102.543 30.3697 102.768 30.3454 102.987 30.2918C103.016 30.284 103.114 30.2372 103.229 29.9827C103.009 28.807 102.911 27.7921 102.94 26.9664C102.969 26.1065 103.087 25.3812 103.29 24.8089C103.463 24.2742 103.759 23.7868 104.155 23.3855C104.476 23.0676 104.851 22.8082 105.263 22.6193C105.622 22.4578 106.005 22.3566 106.397 22.32C106.741 22.2907 107.037 22.2761 107.276 22.2761C108.01 22.2761 108.603 22.4623 109.04 22.8279C109.464 23.1886 109.797 23.6422 110.013 24.1528C110.248 24.7111 110.389 25.304 110.429 25.9076C110.477 26.5257 110.497 27.1418 110.488 27.7395C110.479 28.3371 110.454 28.9035 110.415 29.4299C110.391 29.7575 110.375 30.0441 110.366 30.2859C110.665 30.2645 110.949 30.1491 111.177 29.9564C111.449 29.7035 111.646 29.381 111.744 29.0244C111.864 28.5972 111.928 28.1565 111.932 27.7131C111.942 27.1964 111.947 26.7548 111.947 26.3629C111.952 25.5791 111.845 24.7986 111.629 24.0446C111.439 23.374 111.121 22.7455 110.694 22.1922C110.277 21.667 109.741 21.2457 109.131 20.9619C108.498 20.6616 107.729 20.5096 106.844 20.5096C105.985 20.5096 105.261 20.607 104.696 20.802C104.192 20.9638 103.728 21.2296 103.335 21.582C102.995 21.8975 102.723 22.2774 102.534 22.6992C102.349 23.1147 102.212 23.5497 102.125 23.9958C102.045 24.4102 102.008 24.8316 102.016 25.2534C102.021 25.6093 102.045 25.9646 102.086 26.318L102.35 28.4004L101.432 26.5052C101.178 25.9807 101.065 25.3353 101.095 24.6012C101.133 23.815 101.211 23.0311 101.329 22.2527C101.454 21.3957 101.615 20.4452 101.807 19.4255C101.996 18.4223 102.14 17.3674 102.235 16.2882C102.33 15.1781 102.349 14.0628 102.292 12.9501C102.235 11.8558 102.064 10.7702 101.782 9.71053L101.752 9.70858Z" fill="white"/>
<path d="M110.635 16.1305C110.633 16.0815 110.643 16.0328 110.664 15.9882C110.666 15.9395 110.676 15.8916 110.693 15.8458C110.804 15.716 110.923 15.592 111.047 15.4743C111.204 15.3222 111.303 15.2462 111.342 15.2462H117.267C117.256 14.9117 117.227 14.5781 117.178 14.2468C117.119 13.7918 117.065 13.2871 117.016 12.7326C116.966 12.158 116.951 11.5811 116.972 11.0049C116.984 10.454 117.068 9.90686 117.222 9.37661C117.349 8.92556 117.591 8.51293 117.927 8.17735C118.251 7.8634 118.707 7.70642 119.297 7.70642C119.297 9.62979 119.434 11.1723 119.709 12.3338C119.984 13.4954 120.353 14.3904 120.816 15.019C121.277 15.6476 121.803 16.0571 122.392 16.2475C122.975 16.437 123.589 16.5193 124.203 16.4903C124.815 16.4628 125.422 16.3719 126.014 16.2192C126.532 16.0812 127.059 15.9763 127.591 15.9053C128.052 15.8481 128.421 15.891 128.697 16.034C128.974 16.177 129.111 16.515 129.11 17.048C129.11 17.4478 129.017 17.7334 128.83 17.905C128.644 18.0766 128.285 18.2099 127.755 18.3048L126.974 18.4023C126.61 18.4504 126.203 18.4933 125.751 18.531C125.299 18.5687 124.817 18.6116 124.306 18.6597C123.795 18.7078 123.313 18.7507 122.861 18.7884C122.409 18.8261 121.997 18.8498 121.624 18.8596C121.25 18.8693 120.975 18.8742 120.799 18.8742C120.799 18.9717 120.789 19.1316 120.77 19.3617C120.751 19.5918 120.741 19.7429 120.741 19.819C120.74 20.6479 120.879 21.4713 121.153 22.2565C121.428 23.0469 121.728 23.8324 122.052 24.6131C122.377 25.3938 122.677 26.1738 122.952 26.9531C123.227 27.7347 123.366 28.5551 123.364 29.3809C123.364 29.5388 123.349 29.6964 123.32 29.8518C123.294 30.0053 123.233 30.1514 123.143 30.2799C123.047 30.4095 122.914 30.5089 122.76 30.5655C122.593 30.6305 122.362 30.6162 122.067 30.5226C121.717 30.4421 121.387 30.2912 121.101 30.0796C120.814 29.868 120.576 29.6004 120.402 29.2941C120.012 28.5927 119.738 27.8359 119.592 27.0516C119.409 26.1417 119.291 25.2208 119.237 24.2953C119.178 23.3241 119.085 22.4141 118.958 21.5652C118.859 20.8184 118.656 20.088 118.354 19.3939C118.079 18.7939 117.637 18.4273 117.028 18.2941L111.339 17.0441C111.261 17.0441 111.143 16.9632 110.985 16.8013C110.872 16.6948 110.773 16.5749 110.69 16.4445C110.669 16.3998 110.659 16.3511 110.661 16.3021C110.639 16.2474 110.631 16.1889 110.635 16.1305V16.1305Z" fill="white"/>
<path d="M122.489 31.0458C122.303 31.0418 122.118 31.0089 121.942 30.9485C121.553 30.8563 121.187 30.6853 120.868 30.4466C120.549 30.2078 120.285 29.9064 120.091 29.5617C119.689 28.8305 119.406 28.0418 119.254 27.2244C119.071 26.3001 118.952 25.3647 118.899 24.4246C118.841 23.4712 118.75 22.5645 118.626 21.7289C118.532 21.0139 118.34 20.3146 118.056 19.6497C117.83 19.1501 117.481 18.8541 116.989 18.745L111.405 17.4955C111.236 17.478 111.068 17.3709 110.854 17.1479C110.718 17.0183 110.6 16.8708 110.506 16.7096C110.471 16.6391 110.449 16.5628 110.443 16.4847C110.42 16.4065 110.41 16.3254 110.411 16.2441C110.41 16.1695 110.422 16.0952 110.445 16.024C110.453 15.9654 110.467 15.9077 110.487 15.8517L110.507 15.7932L110.545 15.7455C110.663 15.6059 110.788 15.4727 110.92 15.3462C111.146 15.1242 111.284 15.018 111.456 15.018H116.933C116.919 14.8496 116.897 14.6441 116.866 14.4026C116.806 13.9361 116.752 13.4229 116.704 12.8775C116.654 12.29 116.639 11.7001 116.659 11.1109C116.672 10.532 116.76 9.95707 116.92 9.39984C117.062 8.89437 117.332 8.43238 117.705 8.05689C118.091 7.67806 118.628 7.48621 119.302 7.48621H119.65V7.82706C119.65 9.71537 119.784 11.2443 120.046 12.373C120.306 13.4842 120.654 14.3451 121.081 14.9333C121.491 15.4982 121.955 15.8682 122.463 16.0348C122.998 16.2105 123.562 16.2868 124.125 16.2597C124.704 16.2331 125.279 16.1459 125.839 15.9997C126.365 15.858 126.899 15.7504 127.439 15.6773C127.965 15.6111 128.402 15.6676 128.737 15.8429C129.129 16.0494 129.332 16.4905 129.332 17.1566C129.332 17.6514 129.203 18.0224 128.948 18.26C128.711 18.4801 128.308 18.6389 127.711 18.747H127.691L126.925 18.8443C126.562 18.893 126.151 18.9369 125.702 18.9748C125.254 19.0128 124.784 19.0557 124.282 19.1034C123.78 19.1511 123.298 19.194 122.854 19.2319C122.411 19.2699 121.986 19.2952 121.612 19.304L121.116 19.3147C121.112 19.368 121.107 19.4264 121.102 19.49C121.078 19.7734 121.074 19.8796 121.074 19.9185C121.074 20.7109 121.205 21.4982 121.463 22.249C121.73 23.028 122.026 23.8071 122.343 24.5862C122.661 25.3653 122.962 26.1561 123.236 26.943C123.519 27.7583 123.662 28.6138 123.662 29.475C123.661 29.6526 123.645 29.8299 123.613 30.0048C123.579 30.2067 123.5 30.3988 123.382 30.5677C123.249 30.7511 123.065 30.8923 122.851 30.9738C122.736 31.0206 122.613 31.0451 122.489 31.0458V31.0458ZM111.519 16.8177H111.538L117.148 18.073C117.857 18.2308 118.379 18.6652 118.695 19.3654C119.005 20.087 119.214 20.8463 119.317 21.6228C119.444 22.4778 119.538 23.404 119.596 24.3768C119.648 25.2859 119.763 26.1904 119.939 27.0842C120.077 27.8332 120.334 28.5562 120.701 29.2267C120.849 29.493 121.053 29.7256 121.299 29.909C121.545 30.0925 121.828 30.2227 122.129 30.2911L122.151 30.2969C122.433 30.3895 122.553 30.3632 122.592 30.3476C122.682 30.3159 122.76 30.259 122.816 30.184C122.877 30.0963 122.917 29.9965 122.934 29.8918C122.959 29.7559 122.972 29.618 122.973 29.4799C122.974 28.6926 122.843 27.9104 122.585 27.165C122.315 26.3859 122.02 25.6068 121.705 24.8423C121.384 24.0574 121.083 23.2589 120.812 22.47C120.53 21.6489 120.387 20.788 120.388 19.9214C120.388 19.8328 120.398 19.6741 120.418 19.4345C120.437 19.2134 120.446 19.0605 120.446 18.9778V18.6369H120.793C120.971 18.6369 121.242 18.6369 121.598 18.6223C121.954 18.6077 122.361 18.5892 122.797 18.5522C123.234 18.5152 123.717 18.4714 124.218 18.4236C124.719 18.3759 125.198 18.3331 125.646 18.2951C126.093 18.2571 126.484 18.2152 126.836 18.1685L127.599 18.0711C128.187 17.964 128.4 17.8306 128.475 17.7614C128.584 17.664 128.643 17.4488 128.643 17.1527C128.643 16.9307 128.614 16.5431 128.419 16.4399C128.223 16.3367 127.917 16.3016 127.537 16.3493C127.027 16.4185 126.523 16.5203 126.027 16.6541C125.419 16.8129 124.795 16.9075 124.167 16.9365C123.518 16.9666 122.869 16.8785 122.253 16.6765C121.603 16.4642 121.022 16.0094 120.525 15.3238C120.044 14.6626 119.66 13.7189 119.379 12.5201C119.121 11.4167 118.982 9.95981 118.965 8.18544C118.679 8.21574 118.412 8.33798 118.204 8.53311C117.914 8.82824 117.704 9.19071 117.594 9.58682C117.45 10.0886 117.372 10.6063 117.361 11.1275C117.341 11.6897 117.356 12.2526 117.404 12.8132C117.45 13.3508 117.503 13.8553 117.562 14.312C117.612 14.6571 117.642 15.0046 117.653 15.3531V15.6939H111.559C111.531 15.7173 111.487 15.7572 111.42 15.8225C111.304 15.9364 111.212 16.0328 111.143 16.1146V16.1867L111.115 16.2383C111.114 16.2506 111.114 16.263 111.115 16.2753L111.142 16.3298V16.4126C111.21 16.5063 111.285 16.5939 111.368 16.6746C111.413 16.7272 111.464 16.7752 111.519 16.8177V16.8177Z" fill="white"/>
</svg>
