<svg width="34" height="48" viewBox="0 0 34 48" fill="none" xmlns="http://www.w3.org/2000/svg">
<g clip-path="url(#clip0)">
<path d="M34.0377 16.9848C33.5334 7.72939 26.2972 0.372844 17.3929 0.220154H17.2562H17.1196C7.88604 0.377738 0.445312 8.2824 0.445312 18.0174C0.445312 31.1331 15.1085 43.5881 17.2533 45.3578V33.6946C21.6224 33.6959 25.8203 32.003 28.9573 28.9747C32.0943 25.9465 33.9239 21.8208 34.0583 17.4722C34.0531 17.3091 34.0462 17.1466 34.0377 16.9848ZM17.2562 28.7302C14.9168 28.7302 12.6298 28.0393 10.6847 26.7449C8.73959 25.4506 7.22363 23.6109 6.32858 21.4585C5.43353 19.3061 5.19959 16.9377 5.65635 14.653C6.11312 12.3682 7.24007 10.2696 8.89467 8.62264C10.5493 6.97569 12.6572 5.85436 14.9518 5.40047C17.2465 4.94658 19.6247 5.18051 21.7858 6.07269C23.9469 6.96487 25.7938 8.47521 27.0928 10.4127C28.3919 12.3502 29.0847 14.6277 29.0837 16.9574C29.0835 20.0808 27.8373 23.0763 25.6192 25.2848C23.4011 27.4934 20.3929 28.7341 17.2562 28.7341V28.7302Z" fill="white"/>
<path d="M17.474 10.1303C16.5534 10.1295 15.6416 10.3057 14.7912 10.6488C15.1604 10.8589 15.4754 11.1485 15.712 11.4953C15.9487 11.8421 16.1007 12.2371 16.1564 12.6499C16.2122 13.0627 16.1702 13.4824 16.0337 13.877C15.8972 14.2716 15.6698 14.6306 15.3689 14.9265C15.0679 15.2223 14.7015 15.4473 14.2975 15.5841C13.8935 15.721 13.4628 15.7661 13.0382 15.7159C12.6136 15.6658 12.2064 15.5218 11.8477 15.295C11.489 15.0681 11.1884 14.7644 10.9689 14.4071C10.4087 15.7629 10.3103 17.258 10.6882 18.6723C11.0661 20.0866 11.9003 21.3455 13.0681 22.2638C14.2359 23.1821 15.6757 23.7113 17.1756 23.7736C18.6755 23.8359 20.1563 23.4279 21.4002 22.6097C22.6441 21.7916 23.5854 20.6064 24.0856 19.2285C24.5859 17.8507 24.6186 16.3529 24.1791 14.9556C23.7395 13.5583 22.8509 12.3352 21.6439 11.4662C20.4369 10.5973 18.9752 10.1283 17.474 10.1284V10.1303Z" fill="white"/>
</g>
<defs>
<clipPath id="clip0">
<rect width="34" height="48" fill="white"/>
</clipPath>
</defs>
</svg>
