<svg width="58" height="58" viewBox="0 0 58 58" fill="none" xmlns="http://www.w3.org/2000/svg">
<path d="M20.5001 28.292C18.5451 28.292 16.9584 29.8787 16.9584 31.8337C16.9584 33.7887 18.5451 35.3753 20.5001 35.3753C22.4551 35.3753 24.0417 33.7887 24.0417 31.8337C24.0417 29.8787 22.4551 28.292 20.5001 28.292ZM37.5001 28.292C35.5451 28.292 33.9584 29.8787 33.9584 31.8337C33.9584 33.7887 35.5451 35.3753 37.5001 35.3753C39.4551 35.3753 41.0418 33.7887 41.0418 31.8337C41.0418 29.8787 39.4551 28.292 37.5001 28.292ZM29.0001 0.666992C13.3601 0.666992 0.666748 13.3603 0.666748 29.0003C0.666748 44.6403 13.3601 57.3337 29.0001 57.3337C44.6401 57.3337 57.3334 44.6403 57.3334 29.0003C57.3334 13.3603 44.6401 0.666992 29.0001 0.666992ZM29.0001 51.667C16.5051 51.667 6.33342 41.4953 6.33342 29.0003C6.33342 28.1787 6.39008 27.357 6.47508 26.5637C13.1617 23.5887 18.4601 18.1203 21.2367 11.3487C26.3651 18.602 34.8084 23.3337 44.3568 23.3337C46.5667 23.3337 48.6917 23.0787 50.7318 22.597C51.3268 24.6087 51.6668 26.762 51.6668 29.0003C51.6668 41.4953 41.4951 51.667 29.0001 51.667Z" fill="#7BC67E"/>
</svg>
