<svg width="40" height="40" viewBox="0 0 40 40" fill="none" xmlns="http://www.w3.org/2000/svg">
<path d="M39.8131 7.12994C39.7044 7.04051 39.5665 6.99442 39.4258 7.00054C39.0399 7.00054 38.5407 7.26207 38.2721 7.40237L38.1657 7.45685C37.715 7.67476 37.2245 7.79807 36.7242 7.81918C36.2115 7.83553 35.7696 7.86549 35.1941 7.92543C31.7847 8.2755 30.2642 10.8853 28.7995 13.4094C28.0017 14.7824 27.178 16.2085 26.0488 17.2983C25.8152 17.5245 25.5669 17.7352 25.3056 17.9289C24.1369 18.7966 22.6695 19.4164 21.528 19.855C20.4289 20.2745 19.2288 20.6518 18.0696 21.0169C17.0072 21.3506 16.0049 21.6666 15.083 22.0085C14.6671 22.1624 14.3138 22.2809 14.0015 22.3845C13.1615 22.6569 12.556 22.8653 11.6709 23.4742C11.3259 23.7098 10.9795 23.9645 10.7449 24.1552C10.0424 24.7151 9.42054 25.3692 8.89706 26.099C8.44689 26.7721 7.92669 27.3958 7.34512 27.9597C7.15828 28.1422 6.82689 28.2321 6.33049 28.2321C5.74954 28.2321 5.04448 28.1122 4.29852 27.9855C3.52937 27.8493 2.7343 27.7199 2.05243 27.7199C1.49875 27.7199 1.07463 27.8098 0.758241 27.9923C0.758241 27.9923 0.225018 28.3029 0 28.7047L0.220926 28.8042C0.563523 28.9897 0.880713 29.2186 1.16464 29.4852C1.46087 29.7585 1.79084 29.9929 2.14653 30.1827C2.26008 30.2242 2.36333 30.2897 2.44928 30.3747C2.35655 30.5109 2.22017 30.6866 2.07698 30.8746C1.2901 31.903 0.830519 32.5528 1.09372 32.9069C1.21987 32.9724 1.36077 33.0043 1.50284 32.9995C3.21843 32.9995 4.14032 32.5541 5.30632 31.9902C5.64453 31.8267 5.98819 31.6592 6.39732 31.4862C7.07919 31.1906 7.81288 30.7193 8.59158 30.2208C9.61029 29.5574 10.6754 28.8764 11.7091 28.5481C12.5586 28.2893 13.4435 28.1652 14.3316 28.1803C15.4226 28.1803 16.5708 28.3261 17.6782 28.4677C18.5033 28.574 19.3583 28.6829 20.197 28.7333C20.523 28.7524 20.8243 28.762 21.1176 28.762C21.5098 28.7631 21.9018 28.7426 22.2917 28.7007L22.3858 28.668C22.9736 28.307 23.2491 27.5319 23.5164 26.7828C23.6882 26.3006 23.8328 25.8674 24.0619 25.5923C24.0754 25.5788 24.09 25.5665 24.1055 25.5555C24.1163 25.5495 24.1287 25.5474 24.1408 25.5493C24.153 25.5513 24.1641 25.5573 24.1723 25.5664C24.1723 25.5664 24.1723 25.5732 24.1723 25.5882C24.036 28.5181 22.855 30.3788 21.6603 32.0324L20.8625 32.8865C20.8625 32.8865 21.9794 32.8865 22.6149 32.6413C24.9333 31.9493 26.683 30.4238 27.9567 27.991C28.2708 27.3665 28.5517 26.7258 28.7982 26.0717C28.82 26.0173 29.0204 25.9165 29.0013 26.1984C28.9945 26.2815 28.9891 26.3741 28.9823 26.4708C28.9823 26.5281 28.9823 26.5866 28.9713 26.6452C28.9386 27.0538 28.8418 27.9174 28.8418 27.9174L29.5578 27.5347C31.2843 26.445 32.6153 24.2465 33.6244 20.8262C34.0445 19.4014 34.3527 17.9861 34.6241 16.7398C34.9486 15.2414 35.2282 13.9569 35.5487 13.4584C36.0519 12.6765 36.8197 12.148 37.5629 11.6345C37.6638 11.565 37.7661 11.4983 37.8657 11.4247C38.7998 10.7696 39.7285 10.0136 39.9331 8.60377V8.57244C40.0818 7.52087 39.9563 7.25253 39.8131 7.12994Z" fill="#2196F3"/>
<path d="M39.8131 7.12994C39.7044 7.04051 39.5665 6.99442 39.4258 7.00054C39.0399 7.00054 38.5407 7.26207 38.2721 7.40237L38.1657 7.45685C37.715 7.67476 37.2245 7.79807 36.7242 7.81918C36.2115 7.83553 35.7696 7.86549 35.1941 7.92543C31.7847 8.2755 30.2642 10.8853 28.7995 13.4094C28.0017 14.7824 27.178 16.2085 26.0488 17.2983C25.8152 17.5245 25.5669 17.7352 25.3056 17.9289C24.1369 18.7966 22.6695 19.4164 21.528 19.855C20.4289 20.2745 19.2288 20.6518 18.0696 21.0169C17.0072 21.3506 16.0049 21.6666 15.083 22.0085C14.6671 22.1624 14.3138 22.2809 14.0015 22.3845C13.1615 22.6569 12.556 22.8653 11.6709 23.4742C11.3259 23.7098 10.9795 23.9645 10.7449 24.1552C10.0424 24.7151 9.42054 25.3692 8.89706 26.099C8.44689 26.7721 7.92669 27.3958 7.34512 27.9597C7.15828 28.1422 6.82689 28.2321 6.33049 28.2321C5.74954 28.2321 5.04448 28.1122 4.29852 27.9855C3.52937 27.8493 2.7343 27.7199 2.05243 27.7199C1.49875 27.7199 1.07463 27.8098 0.758241 27.9923C0.758241 27.9923 0.225018 28.3029 0 28.7047L0.220926 28.8042C0.563523 28.9897 0.880713 29.2186 1.16464 29.4852C1.46087 29.7585 1.79084 29.9929 2.14653 30.1827C2.26008 30.2242 2.36333 30.2897 2.44928 30.3747C2.35655 30.5109 2.22017 30.6866 2.07698 30.8746C1.2901 31.903 0.830519 32.5528 1.09372 32.9069C1.21987 32.9724 1.36077 33.0043 1.50284 32.9995C3.21843 32.9995 4.14032 32.5541 5.30632 31.9902C5.64453 31.8267 5.98819 31.6592 6.39732 31.4862C7.07919 31.1906 7.81288 30.7193 8.59158 30.2208C9.61029 29.5574 10.6754 28.8764 11.7091 28.5481C12.5586 28.2893 13.4435 28.1652 14.3316 28.1803C15.4226 28.1803 16.5708 28.3261 17.6782 28.4677C18.5033 28.574 19.3583 28.6829 20.197 28.7333C20.523 28.7524 20.8243 28.762 21.1176 28.762C21.5098 28.7631 21.9018 28.7426 22.2917 28.7007L22.3858 28.668C22.9736 28.307 23.2491 27.5319 23.5164 26.7828C23.6882 26.3006 23.8328 25.8674 24.0619 25.5923C24.0754 25.5788 24.09 25.5665 24.1055 25.5555C24.1163 25.5495 24.1287 25.5474 24.1408 25.5493C24.153 25.5513 24.1641 25.5573 24.1723 25.5664C24.1723 25.5664 24.1723 25.5732 24.1723 25.5882C24.036 28.5181 22.855 30.3788 21.6603 32.0324L20.8625 32.8865C20.8625 32.8865 21.9794 32.8865 22.6149 32.6413C24.9333 31.9493 26.683 30.4238 27.9567 27.991C28.2708 27.3665 28.5517 26.7258 28.7982 26.0717C28.82 26.0173 29.0204 25.9165 29.0013 26.1984C28.9945 26.2815 28.9891 26.3741 28.9823 26.4708C28.9823 26.5281 28.9823 26.5866 28.9713 26.6452C28.9386 27.0538 28.8418 27.9174 28.8418 27.9174L29.5578 27.5347C31.2843 26.445 32.6153 24.2465 33.6244 20.8262C34.0445 19.4014 34.3527 17.9861 34.6241 16.7398C34.9486 15.2414 35.2282 13.9569 35.5487 13.4584C36.0519 12.6765 36.8197 12.148 37.5629 11.6345C37.6638 11.565 37.7661 11.4983 37.8657 11.4247C38.7998 10.7696 39.7285 10.0136 39.9331 8.60377V8.57244C40.0818 7.52087 39.9563 7.25253 39.8131 7.12994Z" fill="black" fill-opacity="0.6"/>
</svg>
