<svg width="848" height="737" viewBox="0 0 848 737" fill="none" xmlns="http://www.w3.org/2000/svg">
<path fill-rule="evenodd" clip-rule="evenodd" d="M745.042 247.827C756.805 195.026 758.956 136.956 796.737 98.1863C836.218 57.6729 894.722 27.8051 950.691 36.7967C1004.56 45.4509 1035.32 100.567 1070.53 142.172C1095.31 171.455 1103.71 208.25 1123.57 241.051C1148.92 282.902 1201.91 311.553 1202.7 360.414C1203.52 411.264 1168.07 458.064 1127.58 488.908C1088.11 518.966 1036.37 522.284 986.762 524.885C938.128 527.435 889.694 524.77 845.788 503.682C797.961 480.711 748.641 450.478 729.235 401.196C709.916 352.133 733.587 299.247 745.042 247.827Z" fill="#FAFAFA"/>
<path fill-rule="evenodd" clip-rule="evenodd" d="M79.9583 400.828C68.1957 348.027 66.0444 289.957 28.2631 251.187C-11.2171 210.673 -69.722 180.806 -125.69 189.797C-179.559 198.451 -210.315 253.568 -245.529 295.173C-270.314 324.455 -278.709 361.251 -298.573 394.051C-323.918 435.903 -376.908 464.553 -377.697 513.414C-378.518 564.264 -343.071 611.065 -302.576 641.908C-263.112 671.967 -211.374 675.284 -161.762 677.885C-113.127 680.435 -64.6936 677.77 -20.7879 656.682C27.0394 633.711 76.3598 603.478 95.7652 554.197C115.084 505.134 91.4132 452.248 79.9583 400.828Z" fill="#FAFAFA"/>
</svg>
