<svg width="40" height="40" viewBox="0 0 40 40" fill="none" xmlns="http://www.w3.org/2000/svg">
<g clip-path="url(#clip0)">
<path d="M19.9531 0.11084L21.0318 2.12882C21.2743 2.50113 21.5372 2.83087 21.8464 3.13796C22.7496 4.03749 23.6073 4.9796 24.378 5.98874C26.2055 8.37903 27.4386 11.0335 28.3187 13.9042C28.8469 15.658 29.1334 17.4571 29.1549 19.2761C29.2431 24.7146 27.3713 29.3844 23.5973 33.2651C22.9809 33.879 22.3215 34.4476 21.6142 34.9534C21.2404 34.9534 21.0633 34.6677 20.9093 34.405C20.6228 33.9231 20.4469 33.3732 20.3587 32.8261C20.2259 32.1678 20.1389 31.5102 20.182 30.8307V30.524C20.1516 30.4584 19.8221 0.265744 19.9534 0.111142V0.111444L19.9531 0.11084Z" fill="white"/>
<path d="M19.9531 0.11084L21.0318 2.12882C21.2743 2.50113 21.5372 2.83087 21.8464 3.13796C22.7496 4.03749 23.6073 4.9796 24.378 5.98874C26.2055 8.37903 27.4386 11.0335 28.3187 13.9042C28.8469 15.658 29.1334 17.4571 29.1549 19.2761C29.2431 24.7146 27.3713 29.3844 23.5973 33.2651C22.9809 33.879 22.3215 34.4476 21.6142 34.9534C21.2404 34.9534 21.0633 34.6677 20.9093 34.405C20.6228 33.9231 20.4469 33.3732 20.3587 32.8261C20.2259 32.1678 20.1389 31.5102 20.182 30.8307V30.524C20.1516 30.4584 19.8221 0.265744 19.9534 0.111142V0.111444L19.9531 0.11084Z" fill="black" fill-opacity="0.12"/>
<path d="M19.9521 0.0432054C19.9078 -0.0446642 19.8638 0.0217664 19.8193 0.0646443C19.8408 0.504898 19.6865 0.897442 19.4454 1.27247C19.1802 1.64479 18.8291 1.93074 18.4765 2.23753C16.5188 3.92577 14.9778 5.96519 13.7435 8.24587C12.1015 11.3156 11.255 14.6051 11.0152 18.0685C10.9055 19.3177 11.4121 23.726 11.8074 24.9979C12.8861 28.3743 14.8238 31.2037 17.3335 33.6592C17.9499 34.2504 18.6093 34.7988 19.2914 35.326C19.4897 35.326 19.5112 35.15 19.5564 35.0189C19.6428 34.7387 19.7098 34.4524 19.7547 34.1632L20.1967 30.8748L19.9518 0.0432054H19.9521Z" fill="black" fill-opacity="0.08"/>
<path d="M21.0323 36.2893C21.0766 35.786 21.3191 35.3683 21.5832 34.9519C21.3179 34.8426 21.1208 34.6249 20.9668 34.3822C20.834 34.1632 20.7243 33.9002 20.6385 33.6587C20.3301 32.7377 20.2647 31.7714 20.1761 30.8305V30.2607C20.0664 30.3486 20.0433 31.0935 20.0433 31.2044C19.9818 32.1963 19.8451 33.1912 19.6468 34.165C19.581 34.56 19.537 34.9538 19.293 35.3046C19.293 35.3487 19.293 35.3925 19.3145 35.4583C19.7111 36.6209 19.8199 37.8045 19.8866 39.0112V39.4514C19.8866 39.9771 19.8651 39.8663 20.3035 40.0426C20.4802 40.1082 20.6773 40.1305 20.854 40.2616C20.9868 40.2616 21.0084 40.1523 21.0084 40.0641L20.9426 39.3406V37.3226C20.921 36.9702 20.9868 36.6206 21.0308 36.2911L21.0323 36.2893Z" fill="#E0E0E0"/>
</g>
<defs>
<clipPath id="clip0">
<rect width="40" height="40" fill="white"/>
</clipPath>
</defs>
</svg>
