<svg width="40" height="40" viewBox="0 0 40 40" fill="none" xmlns="http://www.w3.org/2000/svg">
<g clip-path="url(#clip0)">
<path d="M23.6549 18.6758L17.1784 21.2918L11.544 24.368L9.96766 24.8828C9.56621 25.3551 9.14527 25.8335 8.69 26.318C8.19068 26.8508 7.72564 27.3353 7.36823 27.6865C6.97174 28.0741 6.38429 28.8007 6.08571 29.2609C5.64021 29.9512 5.28776 30.6839 5.136 31.2471C4.86674 32.2645 4.99897 33.2939 5.51786 34.2447C6.18361 35.4557 7.51026 36.691 9.05712 37.5327C9.84531 37.9627 11.1719 38.5137 12.1705 38.8225C13.83 39.3433 17.0413 39.9065 18.8085 39.9914C19.1658 40.0095 19.6456 40.0095 19.6651 39.9914C19.7043 39.961 19.9784 39.3131 20.2967 38.5078C21.3834 35.7645 22.1667 33.1909 22.5925 30.9928C22.8471 29.6607 23.0478 27.8864 23.1799 25.7852C23.2142 25.1978 23.2288 23.2297 23.1995 22.5636C23.1554 21.4736 23.0771 20.5895 22.9548 19.7236C22.9352 19.5964 22.9302 19.4813 22.9401 19.4753C22.9596 19.4571 23.0183 19.4329 23.8163 19.1482L23.6548 18.676V18.6758H23.6549V18.6758ZM22.1765 19.7477C22.2353 19.7477 22.3918 21.6067 22.431 22.7815C22.4408 23.0298 22.4359 23.1933 22.4261 23.1933C22.387 23.1933 21.5988 22.6181 21.0359 22.1821C20.5464 21.8006 19.6163 21.0375 19.4695 20.8922C19.4204 20.8498 19.4253 20.8438 19.8268 20.6742C20.5071 20.3895 22.1227 19.7477 22.1765 19.7477ZM18.8771 21.092C18.9212 21.092 19.0337 21.1707 19.3029 21.3766C20.3113 22.1578 21.6821 23.1025 22.2695 23.4174C22.4506 23.5143 22.4701 23.4779 22.0541 23.8292C21.1631 24.58 20.0519 25.3188 18.691 26.0636C18.4511 26.1968 18.2505 26.2997 18.2456 26.2997C18.2358 26.2997 18.2651 26.1484 18.3042 25.9667C18.6322 24.4588 18.8183 22.9329 18.8281 21.7096C18.833 21.104 18.833 21.104 18.8771 21.086C18.8672 21.092 18.8721 21.092 18.8771 21.092ZM18.1967 21.4129C18.2259 21.4492 18.2064 22.8057 18.1672 23.1751C18.0791 24.0592 17.942 24.8827 17.7169 25.8093C17.6631 26.0332 17.614 26.221 17.6044 26.2331C17.5847 26.2634 16.914 25.4519 16.6938 25.1371C16.3119 24.592 16.0134 24.047 15.7931 23.5142C15.6805 23.2417 15.5043 22.7088 15.5189 22.6906C15.5972 22.624 18.1771 21.3888 18.1967 21.4129ZM14.9951 22.9692C15 22.9692 15.0048 22.9692 15.0098 22.9752C15.0196 22.9873 15.0539 23.0843 15.0833 23.1932C15.2399 23.7201 15.5923 24.4952 15.8959 24.9917C16.2287 25.5368 16.6645 26.118 17.0266 26.4995C17.1441 26.6206 17.2518 26.7357 17.2664 26.7539C17.2959 26.7902 17.3056 26.7841 16.5077 27.1596C15.5826 27.5956 14.5741 28.0316 13.4188 28.4918C13.1428 28.6018 12.8671 28.7129 12.5916 28.8248C12.5475 28.8431 12.5622 28.8127 12.6894 28.5645C13.2622 27.4563 14.1335 25.2824 14.6231 23.7443C14.7063 23.4778 14.7895 23.2114 14.8042 23.1509C14.8238 23.066 14.8482 23.0358 14.9119 22.9934C14.9461 22.9814 14.9804 22.9692 14.9951 22.9692ZM14.0161 23.4718C14.0308 23.484 13.7811 24.1318 13.5363 24.7253C13.0615 25.8698 12.5426 26.9962 11.8475 28.3647C11.73 28.6008 11.6174 28.8189 11.6027 28.8431C11.5783 28.8855 11.5684 28.8733 11.4901 28.6856C11.3237 28.2799 11.1866 27.7591 11.1132 27.2807C11.0397 26.8083 11.0544 25.9848 11.1377 25.4762C11.2012 25.1008 11.1964 25.1068 11.3433 25.016C11.9698 24.6224 13.9965 23.4476 14.0161 23.4718ZM22.4604 23.8957V24.15C22.4604 25.5004 22.343 27.3534 22.1715 28.7038C22.1422 28.94 22.1176 29.1337 22.1128 29.1398C22.1128 29.1398 21.9709 29.0914 21.8044 29.0308C21.0702 28.7462 20.2722 28.3283 19.5526 27.8379C19.0777 27.517 18.3875 26.9901 18.4071 26.9658C18.4119 26.9598 18.6176 26.8266 18.8574 26.6691C19.817 26.0515 20.7372 25.3854 21.5352 24.7253C21.8338 24.477 22.2841 24.0774 22.3821 23.9684L22.4604 23.8957ZM10.3201 25.6881C10.3397 25.6881 10.3348 25.7365 10.3054 25.9545C10.2858 26.112 10.2614 26.4027 10.2516 26.6024C10.2124 27.4865 10.33 28.1406 10.6824 29.0368C10.7803 29.2851 10.8587 29.4909 10.8537 29.497C10.8194 29.5333 7.57882 30.7082 6.56053 31.0533C6.25704 31.1562 5.99275 31.247 5.97306 31.253C5.93886 31.2652 5.93394 31.2592 5.94862 31.1561C6.06119 30.266 6.60949 29.1034 7.37312 28.1223C7.88226 27.4684 8.28859 27.0869 8.98371 26.5963C9.48302 26.2452 10.2516 25.7184 10.3103 25.6941C10.3104 25.6881 10.3152 25.6881 10.3201 25.6881ZM17.9568 27.3776C17.9616 27.3715 18.0791 27.4503 18.2211 27.5532C19.2687 28.3041 20.7274 29.0005 21.9708 29.3577L22.0834 29.3881L21.9268 29.497C21.2757 29.9451 19.1365 31.0472 16.9483 32.0585C16.6301 32.2038 16.3168 32.3492 16.258 32.3794C16.1993 32.4096 16.1454 32.4279 16.1454 32.4218C16.1454 32.4157 16.2336 32.2038 16.3461 31.9434C16.958 30.5264 17.5749 28.8006 17.8881 27.6016C17.9274 27.4866 17.9518 27.3837 17.9568 27.3776ZM17.1784 27.6925C17.1834 27.6987 17.1442 27.8257 17.0952 27.971C16.6693 29.2487 16.1112 30.6416 15.3965 32.2039C15.2154 32.6036 15.0636 32.9245 15.0587 32.9245C15.0539 32.9245 14.907 32.8155 14.7307 32.6823C13.6929 31.895 12.7726 30.9262 12.1705 29.9876L12.0824 29.8543L12.5278 29.7029C14.1237 29.164 15.4796 28.5827 16.8259 27.8682C17.0169 27.7713 17.1735 27.6925 17.1784 27.6925ZM22.015 29.7816C22.015 29.7816 22.0199 29.7877 22.015 29.7816C22.0198 29.9209 21.7702 31.1684 21.5645 32.0706C21.3932 32.8275 21.2463 33.421 20.9771 34.4685C20.8596 34.9289 20.7569 35.3102 20.7519 35.3102C20.7471 35.3102 20.7177 35.3042 20.6883 35.2922C19.2345 34.9651 17.9323 34.5109 16.7085 33.9054C16.3658 33.7358 15.8763 33.4633 15.8469 33.4331C15.8371 33.4208 16.1309 33.2514 16.5029 33.0515C18.7302 31.8465 21.0408 30.4779 21.8338 29.8906C21.9268 29.8179 22.0002 29.7816 22.015 29.7816ZM10.8488 30.254C10.8586 30.2661 10.2369 31.3743 9.36552 32.8821C9.06204 33.4089 8.70959 34.0265 8.57744 34.2566C8.44525 34.4868 8.24457 34.8501 8.13197 35.0681L7.92627 35.4617L7.70598 35.2316C7.44651 34.9651 6.99621 34.396 6.7955 34.081C6.37447 33.4332 6.09061 32.7489 5.97801 32.1252C5.92415 31.8345 5.92415 31.6891 5.97304 31.6711C6.04645 31.6468 7.35351 31.2653 8.5774 30.914C9.25784 30.7203 10.0459 30.4902 10.3299 30.4054C10.6138 30.3205 10.844 30.254 10.8488 30.254ZM11.4754 30.5507L11.632 30.7687C12.337 31.7437 13.0566 32.4644 13.9279 33.094C14.0846 33.2031 14.2021 33.2999 14.1922 33.3061C14.1581 33.3363 11.167 34.6502 9.78163 35.2437C9.00332 35.5828 8.362 35.8553 8.35717 35.8553C8.35229 35.8553 8.3082 35.819 8.25917 35.7766L8.17111 35.6978L8.31306 35.4436C8.77318 34.62 9.35092 33.7178 10.609 31.8405L11.4754 30.5507ZM15.3819 34.0084C15.3867 34.0024 15.6021 34.0992 15.8664 34.2204C16.5029 34.5171 17.007 34.7048 17.6826 34.9167C18.5148 35.1772 19.719 35.4315 20.4289 35.5041C20.5366 35.5162 20.5953 35.5284 20.5758 35.5465C20.5414 35.5708 19.8219 35.8675 19.2932 36.0734C18.4511 36.4003 15.8812 37.3389 13.786 38.0838C13.3993 38.2231 13.0664 38.3381 13.0468 38.3441C12.9979 38.3563 12.8363 38.3017 12.8363 38.2775C12.8363 38.2655 12.9538 38.0778 13.0958 37.8718C13.8006 36.8303 14.5007 35.6676 15.0833 34.5655C15.2448 34.2627 15.3819 34.0144 15.3819 34.0084ZM14.5202 34.0387C14.5251 34.0447 14.1776 34.735 13.5706 35.9219C13.3111 36.4245 13.0223 36.9937 12.9195 37.1936C12.8216 37.3873 12.6747 37.6902 12.5915 37.8597L12.4496 38.1685L12.3761 38.1443C12.1999 38.0837 10.9614 37.5447 10.6334 37.3813C10.2271 37.1814 9.80608 36.9393 9.49275 36.7334C9.10118 36.473 8.61169 36.0854 8.65081 36.0733C8.66058 36.0673 9.33126 35.8432 10.1389 35.5707C12.2831 34.85 13.4726 34.4323 14.251 34.1295C14.393 34.075 14.5154 34.0326 14.5202 34.0387ZM20.6149 35.8068H20.6197C20.6393 35.8674 19.8464 38.5924 19.5574 39.4522C19.4939 39.646 19.4695 39.6945 19.4351 39.6884C19.3519 39.6824 18.2016 39.4826 17.5014 39.3554C16.2826 39.1253 14.2363 38.6832 13.7224 38.5379L13.6049 38.5077L14.3342 38.3016C15.9007 37.8657 16.6546 37.6295 17.4182 37.3389C18.3826 36.9755 19.3373 36.5213 20.3016 35.9643C20.4533 35.8795 20.5806 35.8129 20.6149 35.8068Z" fill="url(#paint0_linear)"/>
<path d="M16.9772 0.000310155C16.8695 -0.0177568 15.1317 0.757337 14.0107 1.32043C12.498 2.08352 11.3232 2.81022 10.5987 3.43985C10.3295 3.67612 9.99163 4.09389 9.93786 4.25736C9.91829 4.31793 9.90845 4.39059 9.90845 4.46325L10.5644 5.23231L12.126 5.84997L15.8415 6.67354L20.0906 7.57583L20.1347 7.12167C20.12 7.12167 20.1102 7.11563 20.0956 7.11563L19.5374 7.00659L19.4249 6.75834C18.8473 5.49876 18.2109 3.93643 17.8389 2.88276C17.5501 2.06525 17.2759 1.12069 17.1241 0.442435C17.0409 0.0306636 17.0311 0.00645343 16.9774 0.000421791V0.000282033H16.9772V0.000310155ZM16.8988 0.309236H16.9039C16.9087 0.315212 16.9283 0.48488 16.9479 0.684594C17.031 1.53249 17.1829 2.34986 17.4227 3.23399C17.6038 3.90013 17.6038 3.86383 17.3934 3.78505C16.894 3.61555 14.6569 3.13715 13.0366 2.85861C12.7771 2.81619 12.5568 2.77383 12.5568 2.7678C12.5372 2.74359 13.7267 1.97447 14.2506 1.67177C14.9212 1.29019 16.7618 0.339478 16.8988 0.309236ZM12.1798 3.02208L12.3708 3.10071C13.4085 3.53678 16.0176 4.15446 17.4569 4.29978C17.6184 4.31796 17.7556 4.33617 17.7604 4.33617C17.7653 4.3422 17.6283 4.43303 17.452 4.53594C16.7569 4.96589 15.9932 5.49273 15.4645 5.89847C15.3079 6.01952 15.1659 6.11648 15.1464 6.11648C15.1268 6.11648 15.024 6.09224 14.9163 6.07406L14.7205 6.03767L14.2311 5.4442C13.3695 4.40877 12.6939 3.60946 12.4344 3.30663L12.1798 3.02208ZM11.9841 3.20976L12.6743 4.27557C13.0512 4.86296 13.433 5.4382 13.5163 5.56531C13.5995 5.69256 13.668 5.79554 13.6632 5.80157C13.6436 5.81973 12.6646 5.58351 12.1456 5.43825C11.612 5.28682 11.3917 5.21416 11.0638 5.08705L10.7945 4.978V4.89317C10.7994 4.48743 11.2155 3.88192 11.9204 3.26432L11.9841 3.20976ZM17.8486 4.6631C17.8682 4.6631 17.8926 4.71758 17.9513 4.88108C18.1178 5.33521 18.6368 6.55849 18.7639 6.79462C18.8032 6.87342 18.8716 6.87945 18.1815 6.74016C16.522 6.40703 15.9884 6.29815 15.9884 6.28603C15.9884 6.28 16.0373 6.23758 16.101 6.19517C16.615 5.84402 17.1339 5.39586 17.5941 4.91746C17.7067 4.80239 17.8095 4.6934 17.829 4.67519C17.8339 4.6631 17.8437 4.65707 17.8486 4.6631Z" fill="url(#paint1_linear)"/>
<path d="M9.97264 4.17285C9.97264 4.17285 9.86501 4.38488 9.96779 4.69978C10.0315 4.89349 10.2175 5.12962 10.4279 5.37189C10.4279 5.37189 12.6063 7.99995 12.8707 8.37545C14.0749 10.0952 14.5987 11.7907 14.6477 14.1282C14.677 15.63 14.4469 16.95 13.8742 18.4821C12.856 21.2313 10.7069 24.2652 7.39282 27.632L7.87753 27.4322C8.19081 27.1415 8.61671 26.8327 9.61532 26.1545C11.921 24.5921 14.5155 23.1569 17.6974 21.6794C22.2793 19.5478 29.8132 17.0529 34.1014 16.2415L34.5469 16.1567L34.4784 16.0235C34.0868 15.2726 33.8175 14.8064 33.4944 14.3098C32.5545 12.8686 31.414 11.6999 30.0188 10.731C28.0998 9.40491 25.6178 8.36942 22.4752 7.60036C21.8828 7.45496 20.5807 7.17644 19.5233 6.97661C17.2813 6.54678 15.8323 6.25 14.2364 5.91089C13.6637 5.78972 12.807 5.6081 12.2391 5.45675C11.9454 5.37795 11.3825 5.21448 10.9419 5.02677C10.5895 4.85714 10.0803 4.68758 9.97264 4.17285ZM11.2357 5.68679C11.2405 5.68082 11.3188 5.71703 11.4217 5.75945C11.6077 5.83809 11.8476 5.92895 12.1316 6.0259C12.3464 6.09901 12.5618 6.16965 12.7777 6.23782C13.0714 6.3286 13.3162 6.41341 13.321 6.41341C13.3554 6.45583 13.8498 8.41161 14.0163 9.16253C14.0798 9.44721 14.1288 9.68937 14.124 9.68937C14.1189 9.69552 14.0651 9.5925 14.0015 9.45324C13.4288 8.20578 12.5231 6.9402 11.4755 5.92284C11.3385 5.80184 11.2357 5.69282 11.2357 5.68679ZM13.6442 6.51034C13.6687 6.51034 13.7764 6.52851 13.9085 6.56482C14.7407 6.79491 16.2338 7.14614 17.1883 7.346C17.3499 7.37624 17.4772 7.41265 17.4772 7.42469C17.4772 7.43686 17.4184 7.47917 17.3449 7.52767C17.1834 7.63057 16.5323 8.10892 16.317 8.29062C15.7736 8.73872 15.2841 9.22315 14.9316 9.65913C14.7897 9.83477 14.6672 9.98009 14.6672 9.98009C14.6672 9.98009 14.6379 9.87719 14.6134 9.74994C14.4372 8.90822 14.07 7.66076 13.7371 6.78276C13.6833 6.64353 13.6392 6.51634 13.6392 6.50428C13.6392 6.51637 13.6392 6.51034 13.6442 6.51034ZM17.8834 7.50949C17.9128 7.52156 17.9618 7.72747 18.0597 8.1816C18.2408 9.05971 18.324 10.0407 18.2947 10.9551C18.2848 11.2094 18.2751 11.4455 18.2652 11.4759L18.2506 11.5364L17.996 11.4335C17.4722 11.2276 16.6205 10.9187 15.8911 10.6644C15.475 10.5251 15.1373 10.398 15.1373 10.3859C15.1373 10.3495 15.7443 9.59862 16.0037 9.31404C16.4981 8.77502 17.8394 7.49129 17.8834 7.50949ZM18.2212 7.56998C18.2359 7.55191 20.2479 7.98175 21.1633 8.19978C21.8438 8.36325 22.8326 8.61761 22.8913 8.64794C22.9207 8.66 22.8179 8.73266 22.4899 8.91431C21.1975 9.63498 20.238 10.2828 19.2835 11.0701C19.0339 11.276 18.8234 11.4455 18.8185 11.4455C18.8136 11.4455 18.8087 11.27 18.8087 11.058C18.8087 9.90749 18.6227 8.74481 18.2799 7.76383C18.2457 7.66693 18.2163 7.57612 18.2212 7.56998ZM23.4249 8.8417C23.4396 8.85985 23.3759 9.3504 23.3172 9.64101C23.141 10.5433 22.6661 11.8816 22.0837 13.1411C21.9808 13.3652 21.8878 13.5469 21.8779 13.5529C21.8682 13.5589 21.7361 13.4681 21.5843 13.3591C21.0164 12.9473 20.3703 12.5598 19.6653 12.1964C19.4696 12.0935 19.2982 12.0086 19.2933 11.9966C19.259 11.9603 20.8353 10.6704 21.6675 10.0528C22.3284 9.55626 23.4053 8.81744 23.4249 8.8417ZM23.7969 8.91433C23.841 8.91433 24.7319 9.21714 25.1969 9.3867C26.3474 9.81062 27.669 10.4101 28.5306 10.8945L28.8879 11.0944L28.6383 11.167C26.5334 11.7665 24.7319 12.4569 22.9941 13.3289C22.8521 13.4015 22.7248 13.4621 22.7151 13.4621C22.7053 13.4621 22.7542 13.3228 22.8179 13.1532C23.3417 11.7786 23.6795 10.3435 23.7626 9.12019C23.7676 9.00512 23.7822 8.91433 23.7969 8.91433ZM14.9267 11.4335C14.9414 11.4153 15.6218 11.6151 15.989 11.7422C16.547 11.936 17.7317 12.4265 17.7317 12.4629C17.7317 12.4689 17.5995 12.6082 17.4429 12.7778C16.8017 13.4378 16.1848 14.1341 15.4456 15.0183C15.2253 15.2787 15.0393 15.4907 15.0296 15.4907C15.0197 15.4907 15.0149 15.4543 15.0197 15.4058C15.1323 14.3885 15.1079 13.0805 14.9512 11.7544C14.9365 11.5848 14.9218 11.4395 14.9267 11.4335ZM29.2258 11.4517C29.2355 11.4637 28.9125 12.0935 28.7069 12.4507C28.4132 12.9715 27.9823 13.6619 27.0082 15.1758C26.4943 15.975 25.9165 16.8774 25.7257 17.1801C25.5298 17.4829 25.3683 17.7372 25.3633 17.7372C25.3585 17.7372 25.2949 17.6282 25.2263 17.495C24.678 16.4777 24.0221 15.5875 23.2437 14.7882C23.0969 14.6368 22.9354 14.4733 22.8815 14.4248C22.8277 14.3764 22.7836 14.328 22.7836 14.3219C22.7836 14.3038 23.6157 13.8616 24.2473 13.5468C25.3536 12.9897 26.8612 12.3236 27.9921 11.8936C28.5845 11.6636 29.216 11.4395 29.2258 11.4517ZM29.6027 11.5727C29.6222 11.5667 29.7398 11.6394 29.8818 11.7422C31.0713 12.5839 32.2363 13.6679 33.1567 14.7821C33.4161 15.0971 34.0574 15.9206 34.0476 15.9266C34.0476 15.9266 33.8224 15.9509 33.5581 15.975C31.4972 16.1689 28.8587 16.7077 26.3229 17.4647C26.1516 17.5131 25.9999 17.5555 25.99 17.5555C25.9803 17.5555 26.1712 17.3193 26.4111 17.0348C27.8992 15.2605 28.5797 14.1402 29.3825 12.1419C29.495 11.8452 29.593 11.5909 29.6027 11.5727C29.5978 11.5727 29.5978 11.5727 29.6027 11.5727ZM18.7009 12.9534C18.7695 12.9715 19.4059 13.341 19.8856 13.6377C20.3262 13.9101 20.9871 14.3462 21.0213 14.3824C21.0262 14.3885 20.7912 14.5399 20.5025 14.7155C19.5821 15.2847 18.794 15.8236 17.9715 16.4413C17.7366 16.6169 17.5408 16.7623 17.5359 16.7623C17.5163 16.7623 17.5212 16.738 17.6534 16.4413C18.094 15.4483 18.4464 14.2614 18.6472 13.1047C18.6667 13.0139 18.6863 12.9534 18.7009 12.9534ZM18.0645 13.0987C18.0792 13.1169 17.9128 13.8617 17.8101 14.2674C17.6093 15.0365 17.2715 15.9993 16.9436 16.726C16.8652 16.8954 16.7477 17.1437 16.6841 17.283L16.5617 17.5252L16.2876 17.1983C15.9694 16.8168 15.7099 16.5806 15.3771 16.3686C15.2449 16.2839 15.1421 16.2112 15.1421 16.1991C15.1421 16.1507 15.9792 15.2121 16.6205 14.5339C17.0806 14.0433 18.0499 13.0806 18.0645 13.0987ZM21.9564 15.0789L22.1963 15.2726C22.7444 15.7147 23.3906 16.3021 23.8851 16.8168C24.164 17.1013 24.7025 17.7009 24.8103 17.8462L24.8689 17.925L24.4725 18.0642C22.2304 18.8332 20.4975 19.5175 18.4758 20.438C18.2506 20.5409 18.0597 20.6257 18.0449 20.6257C18.0157 20.6257 17.9911 20.6559 18.4954 20.0806C19.7878 18.6093 20.9332 16.9863 21.785 15.4058L21.9564 15.0789ZM20.9332 15.3938C20.943 15.4058 20.2724 16.5745 19.8709 17.2346C19.3912 18.0218 18.5394 19.3419 17.952 20.2017C17.7073 20.5591 17.4968 20.8558 17.487 20.8618C17.4722 20.8679 17.4674 20.7771 17.4674 20.6378C17.4674 19.905 17.3156 19.1238 17.0513 18.4578C16.9387 18.1792 16.9191 18.1126 16.9436 18.0824C17.0366 17.9794 18.4611 16.9742 19.3618 16.3747C19.9688 15.9751 20.9184 15.3816 20.9332 15.3938ZM14.7455 17.271C14.7603 17.271 14.8729 17.3436 15.0002 17.4284C15.3134 17.6403 15.5925 17.8765 15.8421 18.1309C15.8519 18.1429 15.7246 18.2702 15.5582 18.4215C15.0931 18.8332 14.3882 19.4933 13.9771 19.8991C13.5462 20.323 13.5316 20.335 13.5805 20.2442C13.9037 19.6326 14.0651 19.2874 14.2365 18.8454C14.3882 18.4519 14.54 17.9856 14.6477 17.5798C14.6868 17.4042 14.7358 17.271 14.7455 17.271ZM16.3953 18.8696C16.4197 18.8636 16.4492 18.918 16.5813 19.1603C16.8603 19.6749 17.0757 20.3653 17.1297 20.9224L17.1393 21.0436L16.4688 21.3646C15.2694 21.9398 14.1631 22.509 13.414 22.9328C13.2036 23.054 12.8364 23.272 12.5966 23.4174C12.3567 23.5687 12.1609 23.6838 12.1609 23.6777C12.1609 23.6717 12.3126 23.5324 12.4986 23.3628C13.9624 22.0488 15.2302 20.6075 16.1799 19.1664C16.2827 19.0149 16.3758 18.8756 16.3855 18.8696L16.3953 18.8696ZM15.6366 19.0997C15.6562 19.1239 15.0981 19.9051 14.7163 20.3834C13.7715 21.5765 12.8365 22.509 11.6763 23.4174C11.5294 23.5324 11.3973 23.6353 11.3825 23.6475C11.3483 23.6717 11.3923 23.6111 11.9014 22.9268C12.2246 22.4969 12.4693 22.1335 12.7483 21.6855C12.9343 21.3888 12.9686 21.3464 13.2379 21.1101C13.9575 20.4682 15.617 19.0755 15.6366 19.0997Z" fill="#E31B0C"/>
</g>
<defs>
<linearGradient id="paint0_linear" x1="9.87249" y1="36.0477" x2="12.4451" y2="34.8189" gradientUnits="userSpaceOnUse">
<stop stop-color="#909CA9"/>
<stop offset="1" stop-color="#EDEDEE"/>
</linearGradient>
<linearGradient id="paint1_linear" x1="9.92562" y1="3.77622" x2="11.81" y2="3.77622" gradientUnits="userSpaceOnUse">
<stop stop-color="#939FAB"/>
<stop offset="1" stop-color="#DCDEE1"/>
</linearGradient>
<clipPath id="clip0">
<rect width="40" height="40" fill="white"/>
</clipPath>
</defs>
</svg>
