<svg width="40" height="40" viewBox="0 0 40 40" fill="none" xmlns="http://www.w3.org/2000/svg">
<path d="M35.1519 29.8617C33.1886 29.807 31.6887 29.9933 30.4057 30.5441C30.0411 30.7011 29.4602 30.705 29.4012 31.1703C29.601 31.3851 29.6321 31.7045 29.7915 31.9676C30.0978 32.4725 30.6149 33.1494 31.076 33.5036C31.5791 33.8912 32.0985 34.3065 32.6396 34.6426C33.5999 35.2402 34.6729 35.581 35.5989 36.1786C36.144 36.5321 36.6852 36.976 37.2178 37.3746C37.4814 37.5704 37.6571 37.8771 38 38V37.9437C37.8204 37.7107 37.7737 37.3905 37.6089 37.1464L36.8827 36.4061C36.1728 35.4455 35.2724 34.603 34.3137 33.9023C33.5501 33.3435 31.8411 32.5882 31.5223 31.6823L31.4663 31.626C32.0075 31.5634 32.642 31.3637 33.1411 31.2273C33.9809 30.9975 34.7312 31.0569 35.5982 30.8287L36.7707 30.4863V30.2596C36.3329 29.8015 36.0196 29.1943 35.5422 28.7798C34.2927 27.6948 32.9273 26.6105 31.5223 25.7054C30.7432 25.2044 29.7798 24.8787 28.9533 24.4539C28.6765 24.3104 28.1882 24.2367 28.0039 23.9981C27.5693 23.4346 27.3337 22.7205 26.9985 22.0634C26.2988 20.6883 25.6099 19.1855 24.9886 17.7375C24.5656 16.7507 24.2888 15.7774 23.7609 14.8921C21.2253 10.643 18.4961 8.07819 14.2686 5.55775C13.369 5.02117 12.2859 4.81034 11.1421 4.53373L9.29933 4.4196C8.92533 4.26029 8.53501 3.79266 8.18278 3.56598C6.78165 2.66402 3.1894 0.702357 2.15215 3.28223C1.49746 4.91021 3.13186 6.49856 3.71579 7.32364C4.12556 7.90223 4.65118 8.55057 4.94431 9.20128C5.13714 9.62928 5.1698 10.0581 5.33542 10.5106C5.74052 11.625 6.0943 12.8385 6.61914 13.868C6.88428 14.3896 7.17742 14.9388 7.51254 15.4049C7.71781 15.6902 8.07082 15.817 8.12602 16.2585C7.78157 16.7499 7.76135 17.514 7.56774 18.1361C6.69534 20.9411 7.02424 24.4277 8.29397 26.5035C8.68352 27.1415 9.60102 28.508 10.8622 27.9833C11.9655 27.5251 11.7198 26.1056 12.0355 24.8525C12.107 24.5696 12.0627 24.3603 12.2027 24.1701V24.2272L13.208 26.276C13.9521 27.4974 15.2716 28.7727 16.3905 29.6342C16.9706 30.0805 17.4278 30.8532 18.1773 31.114V31.0561H18.1221C17.9759 30.8255 17.7497 30.7304 17.5631 30.5441C17.1261 30.1074 16.6401 29.5653 16.2793 29.0644C15.2615 27.6567 14.3627 26.1151 13.5432 24.5109C13.1521 23.7453 12.8123 22.9004 12.4826 22.1205C12.3551 21.8201 12.3566 21.3651 12.0923 21.2106C11.7299 21.7813 11.1989 22.2433 10.919 22.9178C10.4726 23.9958 10.4151 25.3107 10.2495 26.6739L10.1375 26.7302C9.3592 26.5392 9.08629 25.7228 8.79704 25.0229C8.06615 23.2531 7.93008 20.4022 8.57388 18.3644C8.74028 17.8365 9.49216 16.1761 9.18737 15.6886C9.04197 15.2028 8.56222 14.9222 8.29474 14.5497C7.96273 14.0908 7.63073 13.4868 7.40135 12.9558C6.80264 11.5759 6.5235 10.0264 5.89447 8.63062C5.59278 7.96326 5.08427 7.28877 4.66595 6.69591C4.20331 6.03806 3.68469 5.55459 3.32547 4.76041C3.19795 4.47825 3.02456 4.02568 3.2135 3.73559C3.27338 3.53982 3.35968 3.45819 3.5494 3.39399C3.87286 3.13957 4.77481 3.4788 5.11227 3.62146C6.00799 4.00111 6.75521 4.36174 7.51409 4.87375C7.87798 5.12025 8.24576 5.5958 8.68663 5.72737H9.18892C9.97502 5.91125 10.856 5.78364 11.59 6.01112C12.8885 6.41375 14.0517 7.0391 15.1076 7.71914C18.3258 9.79097 20.9563 12.7394 22.757 16.2569C23.0463 16.8236 23.1723 17.3634 23.4265 17.9641C23.9412 19.1752 24.5897 20.422 25.1013 21.6069C25.6122 22.7886 26.1106 23.9815 26.8329 24.9651C27.2124 25.4819 28.6788 25.7593 29.3452 26.0462C29.8125 26.2475 30.5776 26.4575 31.02 26.7286C31.8652 27.2485 32.6847 27.8675 33.477 28.4366C33.8728 28.7235 35.0912 29.3473 35.1519 29.8617ZM10.1935 8.17726C9.78452 8.16933 9.4945 8.22323 9.18814 8.29139V8.34767H9.24413C9.43929 8.75744 9.78374 9.02058 10.0256 9.37249L10.5846 10.5677L10.6398 10.5114C10.9858 10.2634 11.1437 9.86627 11.1421 9.25915C11.0029 9.11014 10.9827 8.92388 10.863 8.74713C10.7044 8.50936 10.3949 8.3762 10.1935 8.17726Z" fill="#0B79D0"/>
</svg>
