<svg width="40" height="40" viewBox="0 0 40 40" fill="none" xmlns="http://www.w3.org/2000/svg">
<path d="M30.625 38.125H9.375C8.38044 38.125 7.42661 37.7299 6.72335 37.0266C6.02009 36.3234 5.625 35.3696 5.625 34.375V5.625C5.625 4.63044 6.02009 3.67661 6.72335 2.97335C7.42661 2.27009 8.38044 1.875 9.375 1.875H26.875L34.375 9.375V34.375C34.375 35.3696 33.9799 36.3234 33.2767 37.0266C32.5734 37.7299 31.6196 38.125 30.625 38.125Z" fill="#2196F3"/>
<path d="M30.625 38.125H9.375C8.38044 38.125 7.42661 37.7299 6.72335 37.0266C6.02009 36.3234 5.625 35.3696 5.625 34.375V5.625C5.625 4.63044 6.02009 3.67661 6.72335 2.97335C7.42661 2.27009 8.38044 1.875 9.375 1.875H26.875L34.375 9.375V34.375C34.375 35.3696 33.9799 36.3234 33.2767 37.0266C32.5734 37.7299 31.6196 38.125 30.625 38.125Z" fill="white" fill-opacity="0.9"/>
<path d="M5.625 28.125H34.375V34.375C34.375 35.3696 33.9799 36.3234 33.2767 37.0267C32.5734 37.7299 31.6196 38.125 30.625 38.125H9.375C8.38044 38.125 7.42661 37.7299 6.72335 37.0267C6.02009 36.3234 5.625 35.3696 5.625 34.375V28.125Z" fill="#2196F3"/>
<path d="M34.375 9.375H30.625C29.6304 9.375 28.6766 8.97991 27.9733 8.27665C27.2701 7.57339 26.875 6.61956 26.875 5.625V1.875L34.375 9.375Z" fill="#64B6F7"/>
<path d="M26.928 13C26.8652 12.8912 26.7743 12.7988 26.6618 12.7338L20.3635 9.09745C20.1385 8.96752 19.8612 8.96752 19.6362 9.09745L13.338 12.7338C13.2255 12.7988 13.1346 12.8913 13.0718 13L19.9999 17L26.928 13Z" fill="#2196F3" fill-opacity="0.5"/>
<path d="M20 25C20.1256 25 20.2512 24.9675 20.3636 24.9025L26.6619 21.2662C26.8869 21.1362 27.0255 20.8962 27.0255 20.6363V13.3636C27.0255 13.2337 26.9909 13.1088 26.9281 13L20 17V25Z" fill="#64B6F7"/>
<path d="M19.6363 24.9025C19.7488 24.9675 19.8744 25 20 25V17L13.0718 13C13.0091 13.1088 12.9744 13.2337 12.9744 13.3636V20.6363C12.9744 20.8962 13.113 21.1363 13.338 21.2662L19.6363 24.9025Z" fill="#2196F3"/>
<path d="M11.4468 34.7227C11.6551 34.7227 11.8283 34.7852 11.9663 34.9102C12.1043 35.0326 12.1733 35.1901 12.1733 35.3828C12.1733 35.5755 12.1043 35.7344 11.9663 35.8594C11.8283 35.9818 11.6551 36.043 11.4468 36.043C11.2358 36.043 11.0614 35.9805 10.9233 35.8555C10.7879 35.7305 10.7202 35.5729 10.7202 35.3828C10.7202 35.1927 10.7879 35.0352 10.9233 34.9102C11.0614 34.7852 11.2358 34.7227 11.4468 34.7227Z" fill="white"/>
<path d="M18.2647 36H16.9015L14.8858 32.4609V36H13.5147V30.3125H14.8858L16.8976 33.8516V30.3125H18.2647V36Z" fill="white"/>
<path d="M20.903 34.0703V36H19.5319V30.3125H21.8015C22.2364 30.3125 22.6205 30.3932 22.9538 30.5547C23.2897 30.7135 23.5489 30.9414 23.7312 31.2383C23.916 31.5326 24.0085 31.8672 24.0085 32.2422C24.0085 32.7969 23.8093 33.2409 23.4108 33.5742C23.015 33.9049 22.4707 34.0703 21.778 34.0703H20.903ZM20.903 33.0117H21.8015C22.0671 33.0117 22.2689 32.9453 22.4069 32.8125C22.5476 32.6797 22.6179 32.4922 22.6179 32.25C22.6179 31.9844 22.5463 31.7721 22.403 31.6133C22.2598 31.4544 22.0645 31.3737 21.8171 31.3711H20.903V33.0117Z" fill="white"/>
<path d="M27.2249 32.7812L28.2718 30.3125H29.7522L27.9202 33.957V36H26.5296V33.957L24.7015 30.3125H26.1741L27.2249 32.7812Z" fill="white"/>
</svg>
