<svg width="40" height="40" viewBox="0 0 40 40" fill="none" xmlns="http://www.w3.org/2000/svg">
<g clip-path="url(#clip0)">
<path d="M18.1574 34.3101C16.5677 32.6141 16.5202 32.5407 16.806 32.2199C17.2589 31.7116 36.5797 14.0257 36.8571 13.8656C37.097 13.727 39.4659 14.8707 39.9835 15.3751C40.1819 15.5684 38.6424 17.2138 30.2439 25.7851C24.7575 31.3843 20.1643 35.9885 20.0368 36.0167C19.9094 36.0449 19.0636 35.2769 18.1574 34.3101ZM13.7717 29.8044C12.9147 28.9429 12.3725 28.266 12.4266 28.1251C12.5243 27.8705 23.6316 18.8923 23.8393 18.9001C24.0953 18.9097 26.7094 20.8957 26.7094 21.0806C26.7094 21.2752 15.5434 31.2476 15.3255 31.2476C15.2605 31.2476 14.5614 30.5982 13.7717 29.8044ZM9.71325 25.6649C9.04232 24.9153 8.621 24.31 8.71138 24.2256C9.17946 23.7887 14.009 20.4398 14.1684 20.4417C14.428 20.4449 16.759 22.4433 16.759 22.6628C16.759 22.9327 11.5288 26.9586 11.1782 26.9586C11.0093 26.9586 10.3501 26.3765 9.71325 25.6649ZM6.38529 22.2488C5.42406 21.2768 5.30937 21.0955 5.5275 20.8929C5.8402 20.6023 21.1928 10.6912 21.5065 10.5774C21.7521 10.4882 23.8787 11.7759 23.8787 12.0137C23.8787 12.1837 8.14006 23.2054 7.75695 23.3036C7.60482 23.3427 7.0294 22.9002 6.38529 22.2488ZM16.6248 20.6838C15.9909 20.1577 15.4758 19.6365 15.48 19.5257C15.4841 19.415 16.0439 18.9333 16.7237 18.4555C17.4036 17.9777 20.452 15.7968 23.4978 13.609C26.5436 11.4212 29.161 9.63126 29.3143 9.63126C29.7242 9.63126 31.7993 10.831 31.7331 11.0297C31.6369 11.3184 18.3195 21.6358 18.0401 21.6381C17.8955 21.6395 17.2586 21.2099 16.6248 20.6838ZM3.29372 19.1388C2.53724 18.339 2.42725 18.1458 2.6255 17.965C2.79695 17.8088 12.3069 12.1919 13.4572 11.5675C13.6471 11.4644 15.6632 12.9186 15.5987 13.1121C15.5153 13.3624 4.79023 20.0958 4.47461 20.0961C4.32316 20.0962 3.79178 19.6654 3.29372 19.1388ZM26.2876 19.2028C25.5916 18.7035 24.9952 18.2141 24.9624 18.1154C24.9156 17.9746 31.2243 12.7314 32.6554 11.7218C32.9336 11.5255 33.1524 11.5909 34.3456 12.2266C35.0994 12.6283 35.7151 13.0386 35.7138 13.1383C35.7103 13.3936 28.2016 19.9995 27.8454 20.0606C27.6847 20.0882 26.9837 19.7022 26.2876 19.2028ZM0.735249 16.4249L-0.179688 15.4985L0.226435 15.2353C0.449801 15.0905 4.98365 12.6174 10.3017 9.73948L19.9708 4.50684L20.8954 4.9603C21.4039 5.2097 21.82 5.49821 21.82 5.60143C21.82 5.74269 1.94011 17.3514 1.6982 17.3514C1.67185 17.3514 1.23846 16.9345 0.735249 16.4249ZM15.601 11.7541C15.1528 11.4176 14.7866 11.0533 14.7871 10.9444C14.7877 10.8355 16.6 9.67927 18.8144 8.37504L22.8406 6.00372L23.8743 6.5547C24.4429 6.85773 24.908 7.16419 24.908 7.23572C24.908 7.4391 17.0132 12.3768 16.6973 12.371C16.5426 12.3684 16.0492 12.0905 15.601 11.7541ZM23.6642 10.728C23.1217 10.3927 22.6793 10.028 22.6811 9.91767C22.6844 9.73069 25.4264 7.89372 25.8763 7.77723C26.0831 7.72367 27.9286 8.69709 28.0778 8.93845C28.1227 9.01119 28.0263 9.18937 27.8634 9.3344C27.3062 9.83045 25.0188 11.3468 24.8346 11.3422C24.7334 11.3397 24.2068 11.0633 23.6642 10.728Z" fill="#50ABF1"/>
</g>
<defs>
<clipPath id="clip0">
<rect width="40" height="40" fill="white"/>
</clipPath>
</defs>
</svg>
