<svg width="40" height="40" viewBox="0 0 40 40" fill="none" xmlns="http://www.w3.org/2000/svg">
<path d="M28.6598 27.9632C28.8898 26.1123 28.821 25.8407 30.2468 26.1404L30.6087 26.1714C31.7052 26.2196 33.1397 26.0008 33.9819 25.6223C35.7958 24.8087 36.8712 23.4495 35.0828 23.8065C31.0027 24.6201 30.7222 23.2848 30.7222 23.2848C35.0308 17.1041 36.8319 9.25847 35.2774 7.33787C31.0377 2.09948 23.6983 4.57656 23.5753 4.64093L23.5361 4.64832C22.7299 4.48616 21.828 4.38978 20.8144 4.37395C18.9682 4.34475 17.5671 4.84214 16.5045 5.62129C16.5045 5.62129 3.4116 0.405761 4.02061 12.1802C4.15012 14.6851 7.73394 31.1336 12.0082 26.1654C13.5704 24.3489 15.0802 22.8128 15.0802 22.8128C15.83 23.2943 16.7275 23.5399 17.669 23.4516L17.7418 23.3918C17.7192 23.6173 17.729 23.8378 17.7712 24.0988C16.67 25.2888 16.9938 25.4978 14.7921 25.9357C12.5649 26.3796 13.8735 27.1697 14.7273 27.3762C15.7634 27.627 18.1591 27.9819 19.7783 25.7901L19.7139 26.0402C20.1461 26.3743 20.1167 28.4416 20.1778 29.9187C20.2389 31.3957 20.3415 32.7739 20.6529 33.5872C20.9643 34.3997 21.3318 36.493 24.2251 35.8936C26.6429 35.392 28.4914 34.6709 28.6598 27.9632Z" fill="#0B79D0"/>
<path d="M23.2038 37C21.9537 37 21.14 36.5314 20.6454 36.0786C19.8992 35.3961 19.6032 34.5164 19.4266 33.9909L19.3502 33.7715C18.9942 32.8394 18.8737 31.4977 18.8023 29.77C18.7916 29.5109 18.7838 29.2432 18.7757 28.9596C18.7696 28.7526 18.7622 28.4928 18.7515 28.2202C18.3073 28.4266 17.8319 28.5723 17.3312 28.6557C16.45 28.8018 15.5027 28.7543 14.5149 28.5148C13.8181 28.346 13.094 27.9959 12.6814 27.4549C11.4786 28.4766 10.3313 28.3377 9.70626 28.1358C8.60368 27.7792 7.61694 26.7775 6.68917 25.0726C6.02862 23.8587 5.38938 22.2765 4.78923 20.3707C3.74457 17.0516 3.08082 13.5556 3.02183 12.4082C2.83635 8.81548 3.8334 6.24642 5.98527 4.77273C9.38043 2.44728 14.5238 3.8145 16.3989 4.4354C17.6585 3.69907 19.1406 3.34038 20.8156 3.36657C21.7153 3.3807 22.5716 3.45753 23.3672 3.59467C24.1969 3.34176 25.8364 2.97859 27.7129 3.00099C31.1702 3.04096 34.0352 4.34754 35.9977 6.77946C37.398 8.51468 36.7059 12.1581 36.1683 14.1758C35.4125 17.0133 34.0875 20.032 32.4601 22.6597C32.9021 22.6628 33.542 22.6111 34.4524 22.4291C36.2482 22.0694 36.773 23.0032 36.9155 23.4211C37.4865 25.0981 35.0046 26.3651 34.2303 26.7134C33.2382 27.1603 31.6211 27.4322 30.2965 27.3733L30.2385 27.3695L29.8907 27.3398L29.8562 27.621L29.8232 27.8963C29.7343 31.2262 29.2436 33.3349 28.2341 34.7286C27.1763 36.1892 25.7056 36.5989 24.4104 36.868C23.9695 36.96 23.568 37 23.2038 37ZM20.5736 24.8804C21.3806 25.5064 21.4513 26.6845 21.5142 28.8862C21.522 29.1609 21.5294 29.421 21.5394 29.6639C21.57 30.3992 21.6414 32.1213 21.9192 32.8491C21.9587 32.9517 21.9939 33.0565 22.0308 33.1667C22.3407 34.0874 22.4963 34.5488 23.8362 34.2704C24.9616 34.0368 25.5397 33.8269 25.9924 33.2019C26.6504 32.2929 27.0186 30.4657 27.0861 27.7692L28.4548 27.8016L27.0953 27.6434L27.1351 27.3144C27.2655 26.2297 27.3593 25.4454 28.1073 24.9272C28.7071 24.5113 29.3911 24.5516 29.9358 24.6467C29.3374 24.2088 29.1718 23.694 29.1278 23.4832L29.0137 22.9381L29.3342 22.4763C31.1819 19.8177 32.7059 16.5502 33.5154 13.5115C34.3468 10.3891 34.0931 8.73072 33.8398 8.41717C30.4834 4.25795 24.662 5.97491 24.0544 6.17027L23.9514 6.22403L23.4361 6.3174L23.1721 6.26434C22.4448 6.1179 21.6368 6.03693 20.7701 6.02315C19.4089 6.00109 18.3109 6.31292 17.4105 6.97552L16.7858 7.43482L16.0606 7.14504C14.5121 6.53103 9.96246 5.29646 7.56186 6.94519C6.22938 7.86035 5.62248 9.6538 5.7575 12.2756C5.80192 13.1411 6.40882 16.4176 7.40871 19.5958C8.79129 23.9876 10.0477 25.4461 10.5722 25.616C10.6635 25.646 10.9012 25.4668 11.1375 25.1918C12.6747 23.3991 14.1365 21.9047 14.198 21.8417L14.9907 21.033L15.949 21.6504C16.3353 21.8996 16.7613 22.0405 17.1991 22.067L19.4849 20.1767L19.1537 23.4535C19.1463 23.5273 19.1427 23.6272 19.1726 23.8133L19.272 24.4345L18.841 24.9024L18.7913 24.9565L20.047 25.5188L20.5736 24.8804Z" fill="#0B79D0"/>
<path d="M35.0832 23.8045C31.0029 24.6181 30.7224 23.2826 30.7224 23.2826C35.0304 17.1025 36.8312 9.25737 35.2771 7.33733C31.0371 2.0995 23.698 4.57667 23.5754 4.64104L23.5358 4.64772C22.7296 4.48628 21.8278 4.38991 20.8139 4.37408C18.9676 4.34489 17.5671 4.84187 16.5044 5.62093C16.5044 5.62093 3.41162 0.40632 4.0206 12.1795C4.15011 14.6841 7.73381 31.1309 12.008 26.1632C13.5701 24.3469 15.0795 22.8109 15.0795 22.8109C15.8292 23.2924 16.7267 23.5379 17.6678 23.4496L17.7409 23.3899C17.7184 23.6153 17.7286 23.8358 17.7701 24.0968C16.6692 25.2867 16.9923 25.4956 14.7913 25.9335C12.5638 26.3774 13.8724 27.1673 14.7269 27.3738C15.7627 27.6246 18.1586 27.9795 19.7774 25.7879L19.7127 26.038C20.1441 26.3721 20.4472 28.2112 20.3962 29.8784C20.3453 31.5456 20.3115 32.6901 20.6516 33.5841C20.9918 34.4778 21.3305 36.4897 24.224 35.8904C26.6418 35.3892 27.8947 34.091 28.0693 31.9258C28.193 30.3863 28.4728 30.6138 28.4906 29.2372L28.7154 28.5855C28.9741 26.4984 28.7565 25.8252 30.2462 26.1385L30.6082 26.1692C31.7047 26.2177 33.1395 25.9986 33.9816 25.6201C35.7955 24.8062 36.8712 23.4475 35.0832 23.8045Z" fill="#2196F3"/>
<path d="M23.3594 36C21.0156 36.0003 20.2733 34.2102 19.9693 33.4783C19.525 32.4058 19.4289 28.2427 19.5279 24.8285C19.5349 24.5865 19.7424 24.3952 19.9948 24.4027C20.2454 24.4095 20.443 24.611 20.4362 24.853C20.3221 28.7908 20.4843 32.3591 20.813 33.1528C21.3266 34.3909 22.1053 35.474 24.3077 35.0192C26.3984 34.5866 27.1813 33.8219 27.5298 31.8726C27.7978 30.3764 28.3265 26.1202 28.3916 25.2802C28.4103 25.0388 28.6273 24.8575 28.8783 24.8759C29.1285 24.8939 29.3162 25.1043 29.2975 25.3453C29.2296 26.2194 28.703 30.4678 28.4248 32.0216C28.013 34.3244 26.9487 35.369 24.4979 35.8759C24.0818 35.9615 23.7033 36 23.3594 36ZM10.6521 27.2575C10.4284 27.2578 10.2255 27.2183 10.0498 27.1617C8.52747 26.6718 7.07757 24.2807 5.74008 20.0541C4.72212 16.8366 4.07705 13.4787 4.0205 12.3875C3.8526 9.15225 4.71681 6.86306 6.58839 5.58398C10.2912 3.05343 16.5206 5.4633 16.7839 5.56694C17.0162 5.65864 17.1275 5.91432 17.0324 6.1383C16.9377 6.36193 16.6722 6.46966 16.4404 6.37795V6.37829C16.3803 6.35443 10.4068 4.04649 7.11186 6.30023C5.51139 7.39488 4.77655 9.42804 4.92748 12.3442C4.97519 13.2632 5.57784 16.5411 6.60889 19.7988C7.80287 23.5716 9.16193 25.9528 10.3372 26.3305C10.5213 26.3902 11.0826 26.5705 11.8857 25.6399C13.3957 23.8876 14.783 22.4892 14.7968 22.4752C14.9703 22.3003 15.2581 22.2949 15.439 22.4619C15.62 22.6293 15.6264 22.9068 15.4528 23.0813C15.439 23.095 14.0729 24.4726 12.5841 26.2C11.879 27.0175 11.2028 27.2575 10.6521 27.2575ZM30.4176 23.5658C30.3303 23.5658 30.2419 23.5416 30.1642 23.4908C29.956 23.3558 29.9008 23.0834 30.0412 22.8826C34.2724 16.8267 35.7577 9.50986 34.4856 7.94237C32.8844 5.96921 30.6233 4.9383 27.7656 4.87933C25.6494 4.83501 23.9673 5.35626 23.6927 5.44728L23.6238 5.47421C23.3473 5.55807 23.1353 5.41182 23.0554 5.24103C22.9607 5.03887 23.0384 4.7999 23.2349 4.68501L23.3572 4.6366L23.3512 4.63831L23.3576 4.63626C23.8245 4.4716 25.5321 3.97729 27.6475 4.00081C30.8099 4.03286 33.422 5.20933 35.2013 7.40204C36.0433 8.43976 36.045 10.8305 35.2066 13.9611C34.352 17.1526 32.7437 20.5832 30.7948 23.3725C30.7071 23.4983 30.5636 23.5658 30.4176 23.5658ZM30.6336 26.3691C29.9111 26.3691 29.2636 26.2712 28.8758 26.0469C28.4771 25.8168 28.4011 25.5035 28.3912 25.3375C28.2824 23.4952 29.3364 23.1744 29.874 23.0282C29.7991 22.9191 29.6923 22.7906 29.5824 22.6579C29.2689 22.2802 28.8398 21.7627 28.5089 20.9889C28.4573 20.8682 28.2947 20.5869 28.1067 20.2617C27.0877 18.4996 24.9676 14.8324 26.3295 12.9544C26.9601 12.0854 28.2148 11.7435 30.0641 11.9344C29.5202 10.3359 26.9293 5.33512 20.7826 5.23796C18.9337 5.20796 17.4173 5.75648 16.2781 6.86579C13.7272 9.35066 13.8198 13.8465 13.8209 13.8912C13.8276 14.1332 13.6293 14.3344 13.3787 14.3405C13.1278 14.348 12.9192 14.1561 12.9128 13.914C12.9072 13.7146 12.8118 8.9968 15.6327 6.24909C16.9529 4.96319 18.6905 4.32842 20.7975 4.36149C24.7308 4.42388 27.2619 6.35204 28.6931 7.95908C30.2525 9.70997 31.0174 11.6415 31.0803 12.2859C31.1274 12.7652 30.7707 12.8613 30.6986 12.8753L30.535 12.879C28.7199 12.5988 27.5556 12.7931 27.0742 13.4569C26.0382 14.8846 28.0438 18.3533 28.9002 19.8349C29.119 20.2126 29.2766 20.4857 29.3487 20.6544C29.6301 21.3124 29.997 21.7545 30.2918 22.1098C30.5509 22.4224 30.7757 22.6931 30.8563 23.0115C30.8934 23.0745 31.4228 23.8293 34.5633 23.2041C35.3505 23.0476 35.8224 23.1816 35.9666 23.6023C36.2504 24.4303 34.6581 25.3958 33.7765 25.7909C32.9855 26.1451 31.7247 26.3691 30.6336 26.3691ZM29.2971 25.2652C29.3965 25.3624 29.8948 25.5294 30.9273 25.4868C31.8449 25.4486 32.813 25.256 33.3941 24.9962C34.1371 24.6635 34.6326 24.2916 34.8896 24.0376L34.7468 24.0628C32.7388 24.4627 31.3186 24.4095 30.5258 23.9043C30.4689 23.8685 30.4183 23.831 30.372 23.7942C30.2861 23.8269 30.2066 23.8484 30.15 23.8637C29.7001 23.9854 29.2349 24.1112 29.2971 25.2652ZM16.3262 27.7126C15.8275 27.7126 15.3026 27.6475 14.7664 27.5176C14.2111 27.3836 13.2744 26.9803 13.2889 26.3179C13.3048 25.5744 14.4257 25.3514 14.848 25.2676C16.3722 24.9649 16.4715 24.8435 16.9479 24.2602C17.0869 24.0901 17.2597 23.8784 17.4951 23.6244C17.845 23.247 18.2275 23.0554 18.6318 23.0554C18.9132 23.0554 19.1444 23.1478 19.2967 23.2085C19.7831 23.4028 20.1888 23.8726 20.3557 24.4351C20.5062 24.9424 20.4345 25.4305 20.1535 25.8096C19.2317 27.055 17.9083 27.7126 16.3262 27.7126ZM14.2701 26.3558C14.4073 26.4577 14.6816 26.594 14.9866 26.668C15.451 26.7798 15.9014 26.8368 16.3262 26.8368C17.6206 26.8368 18.6594 26.3196 19.4144 25.3007C19.5717 25.0879 19.5247 24.8183 19.4826 24.6761C19.3942 24.3788 19.1751 24.1085 18.9492 24.0178C18.8266 23.9687 18.7251 23.9312 18.6318 23.9312C18.5816 23.9312 18.4293 23.9312 18.1723 24.2084C17.9553 24.4422 17.7994 24.6332 17.6612 24.8019C17.0681 25.5284 16.7963 25.7749 15.0311 26.1256C14.6006 26.2116 14.3797 26.2981 14.2701 26.3558ZM17.763 24.3349C17.5425 24.3349 17.3491 24.1797 17.3145 23.9633C17.3028 23.8907 17.2954 23.8174 17.2919 23.7437C16.1346 23.7226 15.0184 23.244 14.1712 22.391C13.0998 21.3127 12.6121 19.8189 12.8333 18.2926C13.0737 16.6351 12.9839 15.172 12.9355 14.3858C12.922 14.1673 12.9125 14.0095 12.9132 13.9001C12.9139 13.7616 12.9167 13.3938 14.191 12.771C14.6441 12.5494 15.5528 12.1628 16.5454 12.0636C18.1904 11.9 19.2744 12.6063 19.5989 14.0531C20.4748 17.9599 19.6682 19.688 19.0793 20.9497C18.9694 21.1842 18.8658 21.4065 18.7831 21.6212L18.7099 21.8111C18.3989 22.6157 18.1299 23.3108 18.2126 23.8303C18.2504 24.0696 18.0804 24.2929 17.8327 24.3301L17.763 24.3349ZM13.8244 14.0211L13.8424 14.334C13.8926 15.1505 13.986 16.6703 13.7329 18.4143C13.5505 19.673 13.9492 20.9019 14.8268 21.7852C15.5203 22.4834 16.4337 22.8686 17.3721 22.8686H17.3915C17.4969 22.4415 17.6711 21.9908 17.8588 21.505L17.9316 21.3165C18.0253 21.0737 18.1349 20.8389 18.2508 20.5903C18.8178 19.3754 19.5233 17.8631 18.7107 14.2382C18.5495 13.5206 18.1593 13.1051 17.5177 12.968C16.2 12.6871 14.2366 13.643 13.8244 14.0211ZM16.5659 13.8353C16.5432 13.9901 16.8603 14.4036 17.2731 14.4588C17.6856 14.5144 18.0387 14.1912 18.061 14.0364C18.0833 13.8813 17.7666 13.7109 17.3534 13.6553C16.9409 13.5997 16.5878 13.6802 16.5659 13.8353ZM17.3682 14.6115L17.2523 14.6037C16.996 14.5693 16.7369 14.4135 16.5598 14.1868C16.4976 14.1073 16.3958 13.9526 16.416 13.8148C16.445 13.6127 16.7002 13.492 17.0992 13.492C17.1887 13.492 17.2813 13.4985 17.3749 13.5107C17.5927 13.5401 17.7952 13.6007 17.9447 13.6812C18.2038 13.821 18.2229 13.9764 18.2112 14.0572C18.179 14.2798 17.8107 14.6115 17.3682 14.6115ZM16.7164 13.8612C16.7295 13.9566 16.9745 14.272 17.294 14.3146L17.3679 14.3197C17.6626 14.3197 17.8832 14.0957 17.909 14.0224C17.8818 13.9727 17.6923 13.8482 17.3325 13.8005C17.253 13.7896 17.1742 13.7841 17.0989 13.7841C16.8684 13.7838 16.7451 13.8339 16.7164 13.8612ZM29.1303 13.5193C29.1526 13.6744 28.8362 14.0879 28.423 14.1431C28.0102 14.1983 27.6571 13.8755 27.6345 13.7204C27.6125 13.5656 27.9292 13.3948 28.3421 13.3396C28.7549 13.2837 29.1077 13.3648 29.1303 13.5193ZM28.3279 14.2222C27.9303 14.2222 27.5878 13.9239 27.5595 13.7306C27.527 13.4985 27.9232 13.3219 28.3318 13.2673C28.4216 13.2551 28.5107 13.2489 28.5966 13.2489C28.949 13.2489 29.1823 13.3488 29.2056 13.5094C29.2208 13.6137 29.1381 13.7743 28.9953 13.9188C28.9013 14.0143 28.7033 14.1796 28.434 14.2154L28.3279 14.2222ZM28.5962 13.3948C28.5174 13.3948 28.4354 13.4006 28.3523 13.4115C27.9416 13.4664 27.6974 13.6256 27.709 13.7109C27.7228 13.8043 27.9847 14.0763 28.3276 14.0763L28.4121 14.0705C28.6362 14.0402 28.8044 13.8994 28.8846 13.8179C29.0105 13.6901 29.0607 13.5701 29.0547 13.5288C29.0472 13.4753 28.896 13.3948 28.5962 13.3948ZM29.7252 22.4128C29.6382 22.4128 29.5506 22.389 29.4728 22.3389C29.2643 22.2039 29.2084 21.9322 29.348 21.731C30.3151 20.3377 30.138 18.9165 29.9669 17.5426C29.8938 16.957 29.8185 16.3519 29.8383 15.7706C29.8581 15.173 29.9365 14.68 30.0129 14.2028C30.103 13.6379 30.1882 13.1037 30.1529 12.4703C30.1391 12.2289 30.3314 12.0227 30.582 12.009C30.8333 11.9961 31.0464 12.1815 31.0602 12.4232C31.1005 13.1473 31.004 13.7514 30.9107 14.3361C30.8386 14.7871 30.764 15.2535 30.746 15.7986C30.7287 16.313 30.7969 16.8595 30.869 17.4376C31.0514 18.8991 31.2574 20.5556 30.103 22.2182C30.0154 22.3443 29.8715 22.4128 29.7252 22.4128Z" fill="white"/>
</svg>
