<svg width="148" height="60" viewBox="0 0 148 60" fill="none" xmlns="http://www.w3.org/2000/svg">
<path fill-rule="evenodd" clip-rule="evenodd" d="M12 41C12 40.4477 12.4477 40 13 40H33C33.5523 40 34 40.4477 34 41C34 41.5523 33.5523 42 33 42H13C12.4477 42 12 41.5523 12 41Z" fill="black" fill-opacity="0.87"/>
<path fill-rule="evenodd" clip-rule="evenodd" d="M0 31C0 30.4477 0.447715 30 1 30H21C21.5523 30 22 30.4477 22 31C22 31.5523 21.5523 32 21 32H1C0.447715 32 0 31.5523 0 31Z" fill="black" fill-opacity="0.87"/>
<path fill-rule="evenodd" clip-rule="evenodd" d="M24 21C24 20.4477 24.4477 20 25 20H45C45.5523 20 46 20.4477 46 21C46 21.5523 45.5523 22 45 22H25C24.4477 22 24 21.5523 24 21Z" fill="black" fill-opacity="0.87"/>
<path fill-rule="evenodd" clip-rule="evenodd" d="M27 31C27 30.4477 27.4477 30 28 30L33 30C33.5523 30 34 30.4477 34 31C34 31.5523 33.5523 32 33 32L28 32C27.4477 32 27 31.5523 27 31Z" fill="black" fill-opacity="0.87"/>
<path fill-rule="evenodd" clip-rule="evenodd" d="M24 48C24 47.4477 24.4477 47 25 47L30 47C30.5523 47 31 47.4477 31 48C31 48.5523 30.5523 49 30 49L25 49C24.4477 49 24 48.5523 24 48Z" fill="black" fill-opacity="0.87"/>
<path d="M145.289 37.6269C139.509 33.5658 131.335 32.7138 125.496 32.7138H124.217L103.869 23.2037C101.335 22.0183 98.5161 21.3926 95.7194 21.3926H77.7577C76.0124 21.3926 74.3142 21.7417 72.7097 22.4297L54.0626 30.4338C53.0389 30.8736 51.9553 31.0966 50.8411 31.0966H49.6001C46.9868 31.0958 44.8599 33.2261 44.8599 35.8442V46.1165C44.8599 48.3839 46.473 50.3439 48.6952 50.7766L54.6741 51.9414C55.4129 56.5046 59.3726 59.9999 64.1333 59.9999C67.6948 59.9999 70.8062 58.043 72.4587 55.1475H123.631C125.283 58.043 128.395 59.9999 131.956 59.9999C135.517 59.9999 138.629 58.043 140.281 55.1475H143.26C145.873 55.1475 148 53.018 148 50.3999V42.8458C148 40.7707 146.987 38.8193 145.289 37.6269ZM102.591 25.9463L117.072 32.7138H95.5101L88.4107 24.4189H95.7186C98.0778 24.4189 100.454 24.947 102.591 25.9463ZM84.4314 24.4189L91.5308 32.7138H88.9694C87.9952 32.7138 87.0722 32.289 86.438 31.5474L80.3371 24.4189H84.4314ZM73.5612 52.1211C73.6627 51.5623 73.7185 50.9878 73.7185 50.3999C73.7185 49.7552 73.654 49.1097 73.5265 48.4816C73.3605 47.6627 72.5634 47.1339 71.7458 47.2994C70.9274 47.4657 70.3994 48.2649 70.5655 49.0837C70.6528 49.5132 70.6969 49.9562 70.6969 50.3999C70.6969 54.0244 67.7523 56.9727 64.1333 56.9727C60.5144 56.9727 57.5706 54.0244 57.5706 50.3999C57.5706 46.7753 60.5144 43.8262 64.1333 43.8262C65.0501 43.8262 65.9353 44.0114 66.7663 44.3763C67.5296 44.7113 68.4212 44.3629 68.7564 43.5977C69.0916 42.8324 68.7438 41.9403 67.9797 41.6045C66.7639 41.071 65.4695 40.7999 64.1333 40.7999C59.3726 40.7999 55.4129 44.2951 54.6741 48.8583L49.272 47.8062C48.4662 47.6494 47.8808 46.9385 47.8808 46.1165V40.5918H49.6001C50.4342 40.5918 51.111 39.914 51.111 39.0786C51.111 38.2432 50.4342 37.5654 49.6001 37.5654H47.8816V35.8442C47.8816 34.8945 48.6527 34.123 49.6001 34.123H50.8411C52.3669 34.123 53.851 33.8172 55.2532 33.2158L73.8995 25.2118C74.7171 24.8611 75.5662 24.6286 76.4357 24.5104L84.1442 33.5169C85.3528 34.93 87.1115 35.7402 88.9694 35.7402H125.496C129.534 35.7402 136.738 36.2138 142.076 39.1827H141.645C140.81 39.1827 140.134 39.8604 140.134 40.6958C140.134 41.532 140.81 42.209 141.645 42.209H144.916C144.956 42.4171 144.978 42.6299 144.978 42.8458V45.6523H140.281C138.629 42.7567 135.518 40.8006 131.956 40.8006C128.395 40.8006 125.283 42.7567 123.631 45.6523H120.653C119.818 45.6523 119.142 46.3293 119.142 47.1654C119.142 48.0008 119.818 48.6786 120.653 48.6786H122.528C122.427 49.2374 122.371 49.8119 122.371 50.3999C122.371 50.9878 122.427 51.5623 122.528 52.1211H73.5612ZM131.956 56.9727C128.337 56.9727 125.393 54.0244 125.393 50.3999C125.393 46.7753 128.337 43.8262 131.956 43.8262C135.575 43.8262 138.52 46.7753 138.52 50.3999C138.52 54.0244 135.575 56.9727 131.956 56.9727ZM143.26 52.1211H141.384C141.485 51.5623 141.541 50.9878 141.541 50.3999C141.541 49.8119 141.485 49.2374 141.384 48.6786H144.978V50.3999C144.978 51.3488 144.207 52.1211 143.26 52.1211Z" fill="black" fill-opacity="0.87"/>
<path d="M114.193 45.6532H93.9558L90.5336 41.0829C89.6428 39.8937 88.2248 39.1836 86.7407 39.1836H80.2819C79.709 39.1836 79.1865 39.5075 78.9308 40.0206C78.6742 40.5328 78.7293 41.1468 79.0732 41.6047L82.9487 46.7802C83.8386 47.9695 85.2566 48.6795 86.7407 48.6795H114.193C115.027 48.6795 115.704 48.0018 115.704 47.1664C115.704 46.3302 115.027 45.6532 114.193 45.6532ZM86.7407 45.6532C86.2025 45.6532 85.6886 45.3955 85.366 44.9644L83.3036 42.2099H86.7407C87.279 42.2099 87.7928 42.4677 88.1162 42.8988L90.1787 45.6532H86.7407Z" fill="black" fill-opacity="0.87"/>
<path d="M64.1331 47.2695C62.4098 47.2695 61.0076 48.6739 61.0076 50.3999C61.0076 52.1259 62.4098 53.5303 64.1331 53.5303C65.8572 53.5303 67.2587 52.1259 67.2587 50.3999C67.2587 48.6739 65.8572 47.2695 64.1331 47.2695Z" fill="black" fill-opacity="0.87"/>
<path d="M131.956 47.2695C130.233 47.2695 128.83 48.6739 128.83 50.3999C128.83 52.1259 130.233 53.5303 131.956 53.5303C133.679 53.5303 135.081 52.1259 135.081 50.3999C135.081 48.6739 133.679 47.2695 131.956 47.2695Z" fill="black" fill-opacity="0.87"/>
</svg>
