<svg width="40" height="40" viewBox="0 0 40 40" fill="none" xmlns="http://www.w3.org/2000/svg">
<path d="M31 2H5.15C3.41751 2 2 3.38487 2 5.07709V32.9232C2 34.6154 3.41751 36 5.15 36H22.1755C21.9822 27.7253 24.8751 11.6666 31 2Z" fill="#0B79D0"/>
<path d="M30 3H5.21956C3.99583 3 3 3.9778 3 5.17991V31C8.61224 28.8845 17.0355 27.0591 22.8597 27.142C24.0301 21.1316 27.4698 9.3524 30 3Z" fill="url(#paint0_linear)"/>
<path d="M36.2326 0.868943C34.4997 -0.664014 32.4017 -0.0482455 30.331 1.77478C30.0236 2.04562 29.7169 2.34609 29.4118 2.66706C25.8695 6.39477 22.5814 13.2997 21.5599 18.573C21.9578 19.3735 22.2687 20.3951 22.4734 21.1754C22.5258 21.3756 22.5732 21.5635 22.611 21.7234C22.7009 22.1017 22.7492 22.347 22.7492 22.347C22.7492 22.347 22.7175 22.2278 22.5871 21.853C22.5624 21.7811 22.5347 21.7026 22.502 21.6102C22.488 21.5721 22.4686 21.5257 22.4473 21.4762C22.2162 20.9434 21.5771 19.8187 21.2958 19.3291C21.0552 20.0331 20.8425 20.6918 20.6645 21.2877C21.4766 22.7616 21.9715 25.2875 21.9715 25.2875C21.9715 25.2875 21.9286 25.1238 21.7245 24.5525C21.5434 24.0472 20.641 22.4788 20.4273 22.1122C20.0616 23.4512 19.9164 24.3552 20.0474 24.5753C20.3017 25.0018 20.544 25.7377 20.7567 26.5515C21.2373 28.3849 21.5713 30.6168 21.5713 30.6168C21.5713 30.6168 21.5821 30.7647 21.6003 30.9924C21.5335 32.532 21.5736 34.1283 21.6937 35.5711C21.8529 37.4811 22.1527 39.1219 22.5347 40L22.7941 39.8597C22.2331 38.1297 22.0052 35.8624 22.105 33.2477C22.256 29.251 23.1831 24.4312 24.8962 19.4076C27.7905 11.8241 31.806 5.73959 35.4812 2.83385C32.1315 5.83481 27.5979 15.5487 26.2407 19.1459C24.7211 23.1741 23.6443 26.9541 22.9953 30.5758C24.115 27.1805 27.7355 25.7211 27.7355 25.7211C27.7355 25.7211 29.5113 23.5486 31.5864 20.4449C30.3434 20.7261 28.3022 21.2076 27.6185 21.4926C26.61 21.9123 26.3383 22.0554 26.3383 22.0554C26.3383 22.0554 29.605 20.082 32.4077 19.1884C36.2621 13.1663 40.4614 4.61116 36.2326 0.868943Z" fill="#0B79D0"/>
<defs>
<linearGradient id="paint0_linear" x1="18.5686" y1="3.57301" x2="18.5686" y2="29.4429" gradientUnits="userSpaceOnUse">
<stop stop-color="#97D9F6"/>
<stop offset="0.920245" stop-color="#0F80CC"/>
<stop offset="1" stop-color="#0F80CC"/>
</linearGradient>
</defs>
</svg>
