<svg width="148" height="60" viewBox="0 0 148 60" fill="none" xmlns="http://www.w3.org/2000/svg">
<path fill-rule="evenodd" clip-rule="evenodd" d="M24 14.1285C24 13.5797 24.4477 13.1348 25 13.1348H45C45.5523 13.1348 46 13.5797 46 14.1285C46 14.6774 45.5523 15.1223 45 15.1223H25C24.4477 15.1223 24 14.6774 24 14.1285Z" fill="black" fill-opacity="0.87"/>
<path fill-rule="evenodd" clip-rule="evenodd" d="M24 38.4742C24 37.9254 24.4477 37.4805 25 37.4805H36C36.5523 37.4805 37 37.9254 37 38.4742C37 39.0231 36.5523 39.468 36 39.468H25C24.4477 39.468 24 39.0231 24 38.4742Z" fill="black" fill-opacity="0.87"/>
<path fill-rule="evenodd" clip-rule="evenodd" d="M8 27.5436C8 26.9947 8.44772 26.5498 9 26.5498H29C29.5523 26.5498 30 26.9947 30 27.5436C30 28.0924 29.5523 28.5373 29 28.5373H9C8.44772 28.5373 8 28.0924 8 27.5436Z" fill="black" fill-opacity="0.87"/>
<path fill-rule="evenodd" clip-rule="evenodd" d="M35 27.5436C35 26.9947 35.4477 26.5498 36 26.5498L40 26.5498C40.5523 26.5498 41 26.9947 41 27.5436C41 28.0924 40.5523 28.5373 40 28.5373L36 28.5373C35.4477 28.5373 35 28.0924 35 27.5436Z" fill="black" fill-opacity="0.87"/>
<path d="M128.522 28.6851C129.559 28.2118 130.36 27.3572 130.762 26.2724C131.232 25.0046 131.083 23.6236 130.353 22.4839L122.992 10.9883C122.194 9.74329 120.832 9 119.347 9H116.548C116.096 9 115.673 9.22021 115.416 9.58894C115.158 9.95766 115.1 10.4286 115.258 10.8487L116.768 14.85H113.604C112.844 14.85 112.227 15.4626 112.227 16.2183C112.227 16.974 112.844 17.5867 113.604 17.5867H117.801L118.182 18.5969C118.365 19.0818 118.3 19.6042 118.003 20.03C117.706 20.4558 117.236 20.6999 116.715 20.6999H109.094V20.6058C109.094 16.6255 105.835 13.3875 101.83 13.3875H95.6583C92.6835 13.3875 89.766 14.4044 87.4432 16.2512L83.6868 19.2374H77.4615C76.5335 19.2374 75.6687 18.8244 75.0891 18.1044L72.2954 14.6341C70.9094 12.9124 68.842 11.925 66.6233 11.925H57.6789C57.0887 11.925 56.5642 12.2988 56.3747 12.8544C56.1852 13.4099 56.3734 14.0235 56.8421 14.38L82.7323 34.0665L79.003 38.2666L74.5898 35.8216C73.9246 35.4544 73.1554 35.3666 72.4237 35.5744C71.6921 35.7822 71.0855 36.2606 70.7161 36.9218L69.2868 39.4791C68.9173 40.1402 68.829 40.9046 69.0381 41.6316C69.1111 41.886 69.2195 42.1237 69.3551 42.3426C69.4804 42.8854 69.5476 43.4433 69.5476 44.006C69.5476 48.0903 66.2039 51.4128 62.0942 51.4128C57.9844 51.4128 54.6408 48.0903 54.6408 44.006C54.6408 39.9219 57.9843 36.5992 62.0942 36.5992C63.274 36.5992 64.4018 36.8649 65.4462 37.3885C66.125 37.7288 66.9532 37.458 67.2958 36.7831C67.6384 36.1084 67.3657 35.2856 66.6868 34.945C65.254 34.2267 63.7089 33.8624 62.0942 33.8624C56.4659 33.8624 51.8869 38.4127 51.8869 44.0058C51.8869 49.5989 56.4658 54.1493 62.0942 54.1493C67.5943 54.1493 72.0898 49.8032 72.2917 44.3857L75.2762 46.0487C74.2815 52.4885 68.7329 57.2628 62.094 57.2628C54.7383 57.2631 48.7539 51.3161 48.7539 44.0062C48.7539 36.6965 54.7383 30.7494 62.094 30.7494C64.6856 30.7494 67.1979 31.4882 69.3592 32.8859C69.9964 33.2979 70.8496 33.1187 71.2643 32.4852C71.6791 31.8518 71.4986 31.0041 70.8612 30.592C68.2519 28.9045 65.2201 28.0127 62.094 28.0127C53.2198 28.0127 46 35.1876 46 44.0062C46 52.8251 53.2198 59.9998 62.094 59.9998C66.1059 59.9998 69.9491 58.5242 72.9156 55.8448C75.3992 53.6014 77.0949 50.6722 77.8073 47.4594L81.8224 49.6965C82.8403 51.5456 84.7638 52.6874 86.8986 52.6874H105.401C106.976 52.6874 108.409 52.0723 109.456 51.0532C112.119 56.4412 117.69 60 123.906 60C132.78 60 140 52.8253 140 44.0064C140 36.7811 135.153 30.6615 128.522 28.6851ZM123.906 42.4496C124.77 42.4496 125.472 43.148 125.472 44.0062C125.472 44.8646 124.77 45.563 123.906 45.563C123.042 45.563 122.34 44.8646 122.34 44.0062C122.34 43.148 123.042 42.4496 123.906 42.4496ZM89.1634 18.3883C90.9999 16.9284 93.3064 16.1244 95.6583 16.1244H101.83C104.317 16.1244 106.34 18.1349 106.34 20.606V20.7001H96.3581C94.8352 20.7001 93.3753 21.165 92.1362 22.0447L88.7757 24.4302L86.0726 20.8455L89.1634 18.3883ZM66.6233 14.6619C68.0008 14.6619 69.2845 15.2749 70.145 16.3438L72.9387 19.8142C74.0439 21.1869 75.6924 21.9743 77.4615 21.9743H83.4819L92.4837 33.8868C91.1593 34.0037 89.9623 34.5651 89.0441 35.4199L61.7443 14.6619H66.6233ZM93 36.5996C94.6753 36.5996 96.0381 37.9541 96.0381 39.6189C96.0381 41.2837 94.6753 42.638 93 42.638C91.3247 42.638 89.9619 41.2837 89.9619 39.6189C89.9619 37.9541 91.3247 36.5996 93 36.5996ZM84.925 35.7341L87.534 37.718C87.3236 38.3135 87.208 38.953 87.208 39.6189C87.208 39.6251 87.2084 39.6311 87.2085 39.6375L84.6672 41.4052L81.4648 39.6309L84.925 35.7341ZM71.6943 40.8083L73.1238 38.2507C73.1284 38.2423 73.1429 38.2166 73.1805 38.2059C73.2183 38.1953 73.244 38.2095 73.2508 38.2132L82.1601 43.1491L81.4771 43.6242C80.7714 44.1153 80.3524 44.8874 80.279 45.6986L71.7314 40.9362C71.723 40.9314 71.6971 40.9172 71.6862 40.8798C71.6754 40.8424 71.6895 40.8168 71.6943 40.8083ZM105.401 49.9507H86.8984C85.7402 49.9507 84.699 49.3112 84.1809 48.2818L83.0257 45.9857C83.0048 45.9441 83.018 45.8929 83.056 45.8664L87.962 42.4538C88.9587 44.1961 90.8428 45.3749 92.9998 45.3749C96.1936 45.3749 98.7918 42.7929 98.7918 39.6191C98.7918 38.252 98.309 36.9955 97.5048 36.007L93.9582 31.3037L96.774 29.305C96.7903 29.2935 96.8094 29.2873 96.8292 29.2873H110.66C111.421 29.2873 112.037 28.6747 112.037 27.919C112.037 27.1631 111.421 26.5506 110.66 26.5506H96.8292C96.2322 26.5506 95.6597 26.7329 95.1734 27.0779L92.306 29.1131L90.4269 26.6212L93.7364 24.2722C94.5056 23.7262 95.4121 23.4374 96.3576 23.4374H116.714C118.131 23.4374 119.459 22.7464 120.266 21.5895C121.072 20.4326 121.257 18.9548 120.76 17.6365L118.534 11.7372H119.346C119.885 11.7372 120.379 12.0067 120.668 12.4583L128.029 23.9537C128.294 24.3669 128.348 24.8676 128.177 25.3273C128.007 25.7871 127.639 26.1332 127.168 26.2773L118.779 28.8425C113.994 30.3057 110.41 34.4285 109.649 39.346L108.403 47.3909C108.174 48.8739 106.911 49.9507 105.401 49.9507ZM123.906 57.2631C118.004 57.2631 112.804 53.394 111.125 47.8095C111.125 47.8086 111.125 47.8075 111.126 47.8066L112.371 39.7614C112.889 36.4148 115.062 33.535 118.069 32.0601L119.155 35.0273C115.814 36.7709 113.699 40.2077 113.699 44.0062C113.699 49.5993 118.278 54.1497 123.906 54.1497C129.534 54.1497 134.113 49.5993 134.113 44.0062C134.113 40.2223 132.017 36.7788 128.643 35.0192C127.969 34.668 127.137 34.9258 126.784 35.595C126.43 36.2643 126.69 37.0913 127.363 37.4425C129.828 38.7276 131.359 41.2429 131.359 44.0062C131.359 48.0904 128.016 51.413 123.906 51.413C119.796 51.413 116.452 48.0904 116.452 44.0062C116.452 41.3593 117.86 38.953 120.108 37.6317L121.213 40.6523C120.222 41.4397 119.585 42.6501 119.585 44.0062C119.585 46.3736 121.523 48.2997 123.906 48.2997C126.288 48.2997 128.226 46.3736 128.226 44.0062C128.226 41.6388 126.288 39.7129 123.906 39.7129C123.87 39.7129 123.836 39.7147 123.801 39.7156L120.665 31.1452C121.719 30.8835 122.806 30.7494 123.906 30.7494C131.261 30.7494 137.246 36.6965 137.246 44.0062C137.246 51.3161 131.262 57.2631 123.906 57.2631Z" fill="black" fill-opacity="0.87"/>
<path d="M62.094 39.7129C59.7117 39.7129 57.7737 41.639 57.7737 44.0062C57.7737 46.3737 59.7119 48.2997 62.094 48.2997C64.4761 48.2997 66.4143 46.3737 66.4143 44.0062C66.4143 41.639 64.4763 39.7129 62.094 39.7129ZM62.094 45.563C61.2302 45.563 60.5276 44.8646 60.5276 44.0062C60.5276 43.148 61.2304 42.4496 62.094 42.4496C62.9576 42.4496 63.6604 43.148 63.6604 44.0062C63.6604 44.8648 62.9578 45.563 62.094 45.563Z" fill="black" fill-opacity="0.87"/>
</svg>
