<svg width="97" height="60" viewBox="0 0 97 60" fill="none" xmlns="http://www.w3.org/2000/svg">
<path fill-rule="evenodd" clip-rule="evenodd" d="M16.8179 22C16.8179 21.4477 17.2646 21 17.8158 21L21.8074 21C22.3585 21 22.8053 21.4477 22.8053 22C22.8053 22.5523 22.3585 23 21.8074 23L17.8158 23C17.2646 23 16.8179 22.5523 16.8179 22Z" fill="black" fill-opacity="0.87"/>
<path fill-rule="evenodd" clip-rule="evenodd" d="M0.851318 30C0.851318 29.4477 1.29809 29 1.84922 29L6.83874 29C7.38987 29 7.83664 29.4477 7.83664 30C7.83664 30.5523 7.38987 31 6.83874 31L1.84922 31C1.29809 31 0.851318 30.5523 0.851318 30Z" fill="black" fill-opacity="0.87"/>
<path fill-rule="evenodd" clip-rule="evenodd" d="M11.8284 30C11.8284 29.4477 12.2751 29 12.8263 29L21.8074 29C22.3585 29 22.8053 29.4477 22.8053 30C22.8053 30.5523 22.3585 31 21.8074 31L12.8263 31C12.2751 31 11.8284 30.5523 11.8284 30Z" fill="black" fill-opacity="0.87"/>
<g clip-path="url(#clip0)">
<path d="M40.2156 41.4706C42.7402 41.4706 45.0254 42.5074 46.6795 44.1838C48.1323 45.6562 49.0954 47.614 49.313 49.8033H61.6914C73.2264 49.8033 72.1599 49.6434 74.4887 40.2629C74.603 39.7941 74.7227 39.3143 75.1199 37.7702L77.9166 26.7849C77.9492 26.6471 78.0036 26.5257 78.0798 26.4099L74.7607 15.8658C74.5431 15.1875 74.9077 14.4596 75.5769 14.239C76.2462 14.0184 76.9644 14.3879 77.182 15.0662L85.7027 41.6471C86.2849 41.5257 86.8888 41.4651 87.5091 41.4651C90.0338 41.4651 92.319 42.5018 93.9731 44.1783C95.6272 45.8548 96.6501 48.171 96.6501 50.7298C96.6501 53.2886 95.6272 55.6048 93.9731 57.2812C92.319 58.9577 90.0338 59.9945 87.5091 59.9945C84.9845 59.9945 82.6992 58.9577 81.0452 57.2812C79.3911 55.6048 78.3682 53.2886 78.3682 50.7298C78.3682 48.171 79.3911 45.8548 81.0452 44.1783C81.7035 43.511 82.4598 42.943 83.2977 42.5074L79.5162 30.8382L77.5847 38.4099C77.5248 38.6526 77.231 39.8217 76.9644 40.886C74.1514 52.1967 75.2124 52.3897 61.6914 52.3897H49.2096C48.8723 54.2868 47.9636 55.9798 46.6795 57.2868C45.0254 58.9632 42.7402 60 40.2156 60C37.6909 60 35.4057 58.9632 33.7516 57.2868C32.0975 55.6103 31.0746 53.2941 31.0746 50.7353C31.0746 48.1765 32.0975 45.8603 33.7516 44.1838C35.4057 42.5074 37.6909 41.4706 40.2156 41.4706ZM68.8735 0.700368C69.1837 0.700368 69.4829 0.766544 69.7387 0.882353C69.7985 0.805147 69.8638 0.727941 69.9345 0.65625C70.3317 0.248162 70.8867 0 71.4961 0C72.1055 0 72.6605 0.248162 73.0577 0.65625C73.4603 1.06434 73.7052 1.62132 73.7052 2.23897C73.7052 2.68015 73.58 3.09375 73.357 3.44118L75.3919 9.53493C75.7238 9.64522 76.0176 9.83272 76.2625 10.0809C76.6651 10.489 76.91 11.046 76.91 11.6636C76.91 12.2812 76.6651 12.8438 76.2625 13.2463L76.257 13.2518C75.8598 13.6544 75.3049 13.9026 74.7009 13.9026C74.0915 13.9026 73.5365 13.6544 73.1393 13.2463C72.7367 12.8382 72.4918 12.2812 72.4918 11.6636C72.4918 11.1452 72.666 10.671 72.9543 10.2904L70.9956 4.42279C70.5875 4.32904 70.2175 4.11397 69.9291 3.82169C69.8693 3.76103 69.8094 3.69485 69.7604 3.62868C69.4938 3.75 69.1946 3.82169 68.8735 3.82169C68.3675 3.82169 67.9105 3.65074 67.5786 3.36949C67.2412 3.08824 67.029 2.69118 67.029 2.25551C67.029 1.81985 67.2412 1.42831 67.5786 1.14154C67.9105 0.871323 68.3675 0.700368 68.8735 0.700368ZM56.1633 44.8952H68.3022V47.0129H56.1633V44.8952ZM29.7905 41.7684C31.4283 39.6287 33.5448 38.0625 35.8464 37.1691C37.7889 36.4136 39.8673 36.1434 41.9132 36.4026C43.9644 36.6673 45.9667 37.4669 47.746 38.8676C49.7265 40.4228 51.4241 42.7114 52.5939 45.8107L50.6406 46.5662C49.6177 43.8529 48.1595 41.8676 46.4728 40.5441C44.9982 39.3805 43.3387 38.7187 41.652 38.4982C39.9598 38.2831 38.2241 38.5147 36.5918 39.1489C34.6385 39.9044 32.8375 41.239 31.4446 43.0588L29.7905 41.7684ZM86.4318 43.9136L87.1337 46.0864C87.3513 46.7647 86.9868 47.4926 86.3175 47.7132C85.6483 47.9338 84.9301 47.5643 84.7124 46.886L84.0323 44.7904C83.5426 45.0882 83.0855 45.4412 82.6884 45.8493C81.4532 47.1011 80.6915 48.8272 80.6915 50.7353C80.6915 52.6434 81.4532 54.3695 82.6884 55.6213C83.9235 56.8732 85.6265 57.6452 87.5091 57.6452C89.3917 57.6452 91.0948 56.8732 92.3299 55.6213C93.565 54.3695 94.3267 52.6434 94.3267 50.7353C94.3267 48.8272 93.565 47.1011 92.3299 45.8493C91.0948 44.5974 89.3917 43.8254 87.5091 43.8254C87.1446 43.8254 86.7855 43.8529 86.4318 43.9136ZM44.8241 52.3952C44.1168 52.3952 43.5455 51.8162 43.5455 51.0993C43.5455 50.3824 44.1168 49.8033 44.8241 49.8033H46.9733C46.7666 48.2702 46.0647 46.8915 45.0363 45.8493C43.8012 44.5974 42.0982 43.8254 40.2156 43.8254C38.333 43.8254 36.6299 44.5974 35.3948 45.8493C34.1597 47.1011 33.3979 48.8272 33.3979 50.7353C33.3979 52.6434 34.1597 54.3695 35.3948 55.6213C36.6299 56.8732 38.333 57.6452 40.2156 57.6452C42.0982 57.6452 43.8012 56.8732 45.0363 55.6213C45.9015 54.7445 46.5326 53.636 46.8373 52.3897H44.8241V52.3952ZM87.5091 48.3254C88.1675 48.3254 88.7606 48.5956 89.1904 49.0312C89.6202 49.4669 89.8868 50.0735 89.8868 50.7353C89.8868 51.4026 89.6202 52.0037 89.1904 52.4393C88.7606 52.875 88.162 53.1452 87.5091 53.1452C86.8507 53.1452 86.2577 52.875 85.8278 52.4393C85.398 52.0037 85.1314 51.3971 85.1314 50.7353C85.1314 50.068 85.398 49.4669 85.8278 49.0312C86.2577 48.5956 86.8507 48.3254 87.5091 48.3254ZM40.2156 48.3254C40.8739 48.3254 41.467 48.5956 41.8968 49.0312C42.3267 49.4669 42.5933 50.0735 42.5933 50.7353C42.5933 51.4026 42.3267 52.0037 41.8968 52.4393C41.467 52.875 40.8685 53.1452 40.2156 53.1452C39.5572 53.1452 38.9641 52.875 38.5343 52.4393C38.1044 52.0037 37.8378 51.3971 37.8378 50.7353C37.8378 50.068 38.1044 49.4669 38.5343 49.0312C38.9641 48.5956 39.5572 48.3254 40.2156 48.3254Z" fill="black" fill-opacity="0.87"/>
</g>
<defs>
<clipPath id="clip0">
<rect width="66.8595" height="60" fill="white" transform="translate(29.7905)"/>
</clipPath>
</defs>
</svg>
