<svg width="40" height="40" viewBox="0 0 40 40" fill="none" xmlns="http://www.w3.org/2000/svg">
<path d="M30.625 38.125H9.375C8.38044 38.125 7.42661 37.7299 6.72335 37.0266C6.02009 36.3234 5.625 35.3696 5.625 34.375V5.625C5.625 4.63044 6.02009 3.67661 6.72335 2.97335C7.42661 2.27009 8.38044 1.875 9.375 1.875H26.875L34.375 9.375V34.375C34.375 35.3696 33.9799 36.3234 33.2767 37.0266C32.5734 37.7299 31.6196 38.125 30.625 38.125Z" fill="black" fill-opacity="0.08"/>
<path d="M5.625 28.125H34.375V34.375C34.375 35.3696 33.9799 36.3234 33.2767 37.0267C32.5734 37.7299 31.6196 38.125 30.625 38.125H9.375C8.38044 38.125 7.42661 37.7299 6.72335 37.0267C6.02009 36.3234 5.625 35.3696 5.625 34.375V28.125Z" fill="black" fill-opacity="0.87"/>
<path d="M34.375 9.375H30.625C29.6304 9.375 28.6766 8.97991 27.9733 8.27665C27.2701 7.57339 26.875 6.61956 26.875 5.625V1.875L34.375 9.375Z" fill="black" fill-opacity="0.87"/>
<path d="M29.375 16.25H10.625C10.4592 16.25 10.3003 16.1842 10.1831 16.0669C10.0658 15.9497 10 15.7908 10 15.625C10 15.4592 10.0658 15.3003 10.1831 15.1831C10.3003 15.0658 10.4592 15 10.625 15H29.375C29.5408 15 29.6997 15.0658 29.8169 15.1831C29.9342 15.3003 30 15.4592 30 15.625C30 15.7908 29.9342 15.9497 29.8169 16.0669C29.6997 16.1842 29.5408 16.25 29.375 16.25Z" fill="black" fill-opacity="0.87"/>
<path d="M29.375 18.75H10.625C10.4592 18.75 10.3003 18.6842 10.1831 18.5669C10.0658 18.4497 10 18.2908 10 18.125C10 17.9592 10.0658 17.8003 10.1831 17.6831C10.3003 17.5658 10.4592 17.5 10.625 17.5H29.375C29.5408 17.5 29.6997 17.5658 29.8169 17.6831C29.9342 17.8003 30 17.9592 30 18.125C30 18.2908 29.9342 18.4497 29.8169 18.5669C29.6997 18.6842 29.5408 18.75 29.375 18.75Z" fill="black" fill-opacity="0.87"/>
<path d="M29.375 21.25H10.625C10.4592 21.25 10.3003 21.1842 10.1831 21.0669C10.0658 20.9497 10 20.7908 10 20.625C10 20.4592 10.0658 20.3003 10.1831 20.1831C10.3003 20.0658 10.4592 20 10.625 20H29.375C29.5408 20 29.6997 20.0658 29.8169 20.1831C29.9342 20.3003 30 20.4592 30 20.625C30 20.7908 29.9342 20.9497 29.8169 21.0669C29.6997 21.1842 29.5408 21.25 29.375 21.25Z" fill="black" fill-opacity="0.87"/>
<path d="M29.375 13.75H10.625C10.4592 13.75 10.3003 13.6842 10.1831 13.5669C10.0658 13.4497 10 13.2908 10 13.125C10 12.9592 10.0658 12.8003 10.1831 12.6831C10.3003 12.5658 10.4592 12.5 10.625 12.5H29.375C29.5408 12.5 29.6997 12.5658 29.8169 12.6831C29.9342 12.8003 30 12.9592 30 13.125C30 13.2908 29.9342 13.4497 29.8169 13.5669C29.6997 13.6842 29.5408 13.75 29.375 13.75Z" fill="black" fill-opacity="0.87"/>
<path d="M25.625 23.75H10.625C10.4592 23.75 10.3003 23.6842 10.1831 23.5669C10.0658 23.4497 10 23.2908 10 23.125C10 22.9592 10.0658 22.8003 10.1831 22.6831C10.3003 22.5658 10.4592 22.5 10.625 22.5H25.625C25.7908 22.5 25.9497 22.5658 26.0669 22.6831C26.1842 22.8003 26.25 22.9592 26.25 23.125C26.25 23.2908 26.1842 23.4497 26.0669 23.5669C25.9497 23.6842 25.7908 23.75 25.625 23.75Z" fill="black" fill-opacity="0.87"/>
<path d="M16.25 11.25H10.625C10.4592 11.25 10.3003 11.1842 10.1831 11.0669C10.0658 10.9497 10 10.7908 10 10.625C10 10.4592 10.0658 10.3003 10.1831 10.1831C10.3003 10.0658 10.4592 10 10.625 10H16.25C16.4158 10 16.5747 10.0658 16.6919 10.1831C16.8092 10.3003 16.875 10.4592 16.875 10.625C16.875 10.7908 16.8092 10.9497 16.6919 11.0669C16.5747 11.1842 16.4158 11.25 16.25 11.25Z" fill="black" fill-opacity="0.87"/>
<path d="M16.25 30H13.75C13.5842 30 13.4253 30.0658 13.3081 30.1831C13.1908 30.3003 13.125 30.4592 13.125 30.625C13.125 30.7908 13.1908 30.9497 13.3081 31.0669C13.4253 31.1842 13.5842 31.25 13.75 31.25H14.375V35.625C14.375 35.7908 14.4408 35.9497 14.5581 36.0669C14.6753 36.1842 14.8342 36.25 15 36.25C15.1658 36.25 15.3247 36.1842 15.4419 36.0669C15.5592 35.9497 15.625 35.7908 15.625 35.625V31.25H16.25C16.4158 31.25 16.5747 31.1842 16.6919 31.0669C16.8092 30.9497 16.875 30.7908 16.875 30.625C16.875 30.4592 16.8092 30.3003 16.6919 30.1831C16.5747 30.0658 16.4158 30 16.25 30Z" fill="white"/>
<path d="M26.25 30H23.75C23.5842 30 23.4253 30.0658 23.3081 30.1831C23.1908 30.3003 23.125 30.4592 23.125 30.625C23.125 30.7908 23.1908 30.9497 23.3081 31.0669C23.4253 31.1842 23.5842 31.25 23.75 31.25H24.375V35.625C24.375 35.7908 24.4408 35.9497 24.5581 36.0669C24.6753 36.1842 24.8342 36.25 25 36.25C25.1658 36.25 25.3247 36.1842 25.4419 36.0669C25.5592 35.9497 25.625 35.7908 25.625 35.625V31.25H26.25C26.4158 31.25 26.5747 31.1842 26.6919 31.0669C26.8092 30.9497 26.875 30.7908 26.875 30.625C26.875 30.4592 26.8092 30.3003 26.6919 30.1831C26.5747 30.0658 26.4158 30 26.25 30Z" fill="white"/>
<path d="M21.5295 30.066C21.3813 29.9919 21.2096 29.9797 21.0524 30.0321C20.8951 30.0845 20.7651 30.1972 20.691 30.3454L20 31.7275L19.309 30.3454C19.2341 30.1985 19.1041 30.0872 18.9475 30.0356C18.7908 29.9841 18.6201 29.9966 18.4726 30.0703C18.3251 30.1441 18.2128 30.2732 18.16 30.4294C18.1072 30.5857 18.1184 30.7564 18.191 30.9045L19.3012 33.125L18.191 35.3454C18.1535 35.4189 18.131 35.4991 18.1246 35.5813C18.1183 35.6636 18.1283 35.7463 18.1541 35.8246C18.1799 35.903 18.2209 35.9755 18.2748 36.0379C18.3287 36.1003 18.3945 36.1514 18.4683 36.1883C18.542 36.2252 18.6224 36.2471 18.7047 36.2528C18.787 36.2585 18.8696 36.2479 18.9477 36.2215C19.0259 36.1951 19.098 36.1535 19.16 36.0991C19.222 36.0447 19.2727 35.9786 19.309 35.9045L20 34.5225L20.691 35.9045C20.7273 35.9786 20.7779 36.0447 20.8399 36.0991C20.9019 36.1535 20.9741 36.1951 21.0522 36.2215C21.1304 36.2479 21.213 36.2585 21.2953 36.2528C21.3776 36.2471 21.4579 36.2252 21.5317 36.1883C21.6055 36.1514 21.6712 36.1003 21.7251 36.0379C21.7791 35.9755 21.8201 35.903 21.8459 35.8246C21.8716 35.7463 21.8817 35.6636 21.8753 35.5813C21.869 35.4991 21.8464 35.4189 21.809 35.3454L20.6987 33.125L21.809 30.9045C21.8831 30.7563 21.8953 30.5846 21.8429 30.4274C21.7905 30.2701 21.6778 30.1401 21.5295 30.066Z" fill="white"/>
</svg>
