<svg width="58" height="58" viewBox="0 0 58 58" fill="none" xmlns="http://www.w3.org/2000/svg">
<path d="M20.5 28.2916C18.545 28.2916 16.9583 29.8783 16.9583 31.8333C16.9583 33.7883 18.545 35.375 20.5 35.375C22.455 35.375 24.0416 33.7883 24.0416 31.8333C24.0416 29.8783 22.455 28.2916 20.5 28.2916ZM37.5 28.2916C35.545 28.2916 33.9583 29.8783 33.9583 31.8333C33.9583 33.7883 35.545 35.375 37.5 35.375C39.455 35.375 41.0416 33.7883 41.0416 31.8333C41.0416 29.8783 39.455 28.2916 37.5 28.2916ZM29 0.666626C13.36 0.666626 0.666626 13.36 0.666626 29C0.666626 44.64 13.36 57.3333 29 57.3333C44.64 57.3333 57.3333 44.64 57.3333 29C57.3333 13.36 44.64 0.666626 29 0.666626ZM29 51.6666C16.505 51.6666 6.33329 41.495 6.33329 29C6.33329 28.1783 6.38996 27.3566 6.47496 26.5633C13.1616 23.5883 18.46 18.12 21.2366 11.3483C26.365 18.6016 34.8083 23.3333 44.3566 23.3333C46.5666 23.3333 48.6916 23.0783 50.7316 22.5966C51.3266 24.6083 51.6666 26.7616 51.6666 29C51.6666 41.495 41.495 51.6666 29 51.6666Z" fill="#F88078"/>
</svg>
