<svg width="40" height="40" viewBox="0 0 40 40" fill="none" xmlns="http://www.w3.org/2000/svg">
<path d="M16.1113 12.5389C12.5764 16.2047 13.3478 22.2882 17.397 24.9832C17.5304 25.072 17.7079 25.0544 17.8225 24.9422C18.675 24.1073 19.3961 23.2986 20.0276 22.2702C20.1242 22.1128 20.0641 21.9087 19.902 21.8206C19.2844 21.4853 18.6698 20.8564 18.3238 20.1921L18.3234 20.1924C17.909 19.3652 17.7679 18.438 17.9873 17.4804C17.9875 17.4804 17.9878 17.4805 17.988 17.4805C18.2405 16.2545 19.5536 15.1141 20.5566 14.0593C20.5544 14.0586 20.5524 14.0579 20.5503 14.0572L24.308 10.213C25.8055 8.68109 28.2687 8.66846 29.7818 10.185C31.3101 11.6859 31.3354 14.1673 29.8379 15.6991L27.5618 18.0451C27.4565 18.1537 27.4223 18.3121 27.4716 18.4553C27.9957 19.9785 28.1246 22.1264 27.7734 23.7491C27.7635 23.7945 27.8195 23.8242 27.8519 23.791L32.6961 18.8353C35.7907 15.6696 35.7645 10.5153 32.6378 7.38142C29.4469 4.18319 24.2523 4.2098 21.0942 7.44047L16.1307 12.5181C16.1242 12.525 16.118 12.532 16.1113 12.5389Z" fill="black" fill-opacity="0.26"/>
<path d="M25.1675 25.6814C25.1674 25.6816 25.1673 25.6818 25.1672 25.682C25.1703 25.6807 25.1732 25.6794 25.1763 25.6781C26.165 23.8661 26.3596 21.788 25.8962 19.7622L25.8941 19.7644L25.8918 19.7634C25.4519 17.959 24.2447 16.1673 22.6053 15.0642C22.4642 14.9693 22.2389 14.9803 22.1069 15.0874C21.2764 15.7604 20.4635 16.6235 19.9271 17.7248C19.8429 17.8977 19.906 18.1054 20.072 18.202C20.6945 18.5643 21.2566 19.0946 21.633 19.7987L21.6336 19.7983C21.927 20.2956 22.216 21.2393 22.0288 22.2533C22.0287 22.2533 22.0285 22.2533 22.0284 22.2533C21.8537 23.5977 20.4992 24.8309 19.4225 25.9421L19.423 25.9426C18.6034 26.7827 16.5199 28.9116 15.6856 29.7659C14.1881 31.2978 11.7125 31.3231 10.1842 29.8222C8.65581 28.3213 8.63055 25.84 10.128 24.3081L12.4108 21.955C12.5143 21.8484 12.5495 21.6934 12.5034 21.552C11.9966 19.9931 11.8577 17.8938 12.1776 16.2729C12.1866 16.2277 12.1311 16.1988 12.0989 16.2317L7.32754 21.1128C4.20122 24.3111 4.22772 29.5182 7.38651 32.6843C10.5772 35.8177 15.7455 35.7648 18.8717 32.5667C19.9578 31.3491 24.6068 27.0347 25.1675 25.6814Z" fill="black" fill-opacity="0.26"/>
</svg>
