<svg width="658" height="190" viewBox="0 0 658 190" fill="none" xmlns="http://www.w3.org/2000/svg">
<path d="M347.101 -62.1371C424.31 -101.501 559.293 -62.7751 585.496 58.096C607.788 160.887 543.747 268.986 534.07 278.835C440.144 374.34 389.392 308.188 221.274 304.392C53.1549 300.595 59.4656 148.907 89.6291 105.384C113.687 70.6564 169.055 104.665 239.659 60.3009C306.123 18.4951 296.085 -36.1149 347.101 -62.1371Z" fill="white"/>
<path d="M347.101 -62.1371C424.31 -101.501 559.293 -62.7751 585.496 58.096C607.788 160.887 543.747 268.986 534.07 278.835C440.144 374.34 389.392 308.188 221.274 304.392C53.1549 300.595 59.4656 148.907 89.6291 105.384C113.687 70.6564 169.055 104.665 239.659 60.3009C306.123 18.4951 296.085 -36.1149 347.101 -62.1371Z" fill="#5555CE" fill-opacity="0.08"/>
<path d="M318.983 129.047L340.161 131.27C340.438 131.299 340.638 131.547 340.609 131.824L340.592 131.989C340.563 132.266 340.315 132.466 340.039 132.437L318.86 130.213C318.584 130.184 318.383 129.937 318.412 129.66L318.429 129.495C318.459 129.218 318.706 129.018 318.983 129.047Z" fill="#9FC1F4"/>
<path d="M362.734 127.683L356.048 126.981L365.369 38.2161L372.055 38.9182L362.734 127.683Z" fill="#C5CAE9"/>
<path d="M373.764 128.845L367.078 128.143L372.686 74.7352L379.372 75.4372L373.764 128.845Z" fill="#C5CAE9"/>
<path d="M384.799 130.004L378.113 129.302L386.038 53.8286L392.724 54.5307L384.799 130.004Z" fill="#C5CAE9"/>
<path d="M395.826 131.158L389.14 130.456L393.431 89.5838L400.117 90.2858L395.826 131.158Z" fill="#C5CAE9"/>
<path d="M406.86 132.321L400.174 131.619L406.045 75.703L412.731 76.405L406.86 132.321Z" fill="#C5CAE9"/>
<path d="M417.895 133.475L411.209 132.773L413.355 112.337L420.041 113.039L417.895 133.475Z" fill="#BED7FB"/>
<path d="M428.921 134.633L422.235 133.931L429.265 66.9804L435.951 67.6824L428.921 134.633Z" fill="#C5CAE9"/>
<path d="M462.104 77.6648C475.791 78.8531 487.19 92.0255 489.561 103.426C494.607 127.839 460.205 154.255 439.728 165.449C387.9 193.729 334.466 173.904 307.058 163.734C284.764 155.466 283.179 149.607 283.222 147.111C283.342 139.961 297.357 133.528 308.259 131.541C321.513 129.124 325.575 134.11 338.096 132.958C353.977 131.469 353.911 121.593 372.075 116.418C400.788 108.238 416.141 120.187 427.316 108.699C434.394 101.417 430.776 94.007 440.415 85.5743C442.03 84.1268 450.874 76.6915 462.104 77.6648Z" fill="#7C7CD9"/>
<path d="M472.107 104.832C465.601 126.8 438.028 160.072 329.526 154.731C324.606 154.489 319.093 146.902 318.536 141.996L320.027 145.816C319.753 143.419 320.35 141.004 321.709 139.01C323.068 137.017 325.098 135.578 327.429 134.957L408.152 113.434C408.577 113.32 408.995 113.179 409.402 113.012L458.628 92.6767C466.429 89.4596 474.506 96.7287 472.107 104.832Z" fill="#5555CE"/>
<path d="M432.337 74.2818C432.337 74.2818 421.389 99.215 406.31 99.3217C406.31 99.3217 410.115 100.63 409.789 102.303C409.463 103.976 413.674 103.947 413.674 103.947L420.814 103.465C420.814 103.465 437.129 78.0747 432.337 74.2818Z" fill="#FF7542"/>
<path d="M444.051 69.2577C444.051 69.2577 435.826 70.3028 433.395 72.7068C430.963 75.1108 421.066 101.313 414.692 102.912C408.317 104.512 427.732 101.558 427.732 101.558L433.862 86.7602L438.036 79.1519L444.849 72.2367L448.945 69.9904L447.031 68.0436L444.051 69.2577Z" fill="#E63E00"/>
<path d="M448.53 70.3458C448.53 70.3458 434.396 73.5799 430 83.0951C425.604 92.6102 421.165 102.327 416.454 103.119C411.743 103.911 426.565 108.95 426.565 108.95L436.199 108.332L438.689 96.4247L444.74 85.3247L452.755 75.6535L451.164 72.3853L448.53 70.3458Z" fill="white"/>
<path d="M459.575 66.7875C459.575 66.7875 463.208 69.8498 462.36 71.7209C461.511 73.592 438.403 109.19 438.238 109.46C438.072 109.73 434.426 110.47 434.426 110.47C434.426 110.47 434.105 83.3417 451.152 74.7046L452.621 73.705L452.793 72.0674L455.595 69.3592L459.575 66.7875Z" fill="#FF7542"/>
<path d="M441.402 76.4214C441.402 76.4214 449.584 75.3762 450.679 74.9635C451.773 74.5508 459.839 68.2819 459.87 68.1093C459.901 67.9367 458.55 62.2918 457.597 61.647C457.016 61.2557 456.581 60.0906 456.335 59.2455C456.174 58.701 456.088 58.293 456.088 58.293L455.273 58.3748L451.497 58.7589L447.128 62.6237L447.036 64.0638L446.739 68.695C447.037 69.3222 447.271 69.9776 447.438 70.6514C447.655 71.5749 447.667 72.5584 447.012 72.9529C445.592 73.7774 442.362 74.6349 441.402 76.4214Z" fill="#FFB27D"/>
<path d="M446.735 68.6947C447.032 69.3218 447.267 69.9772 447.434 70.6511C453.13 69.9623 454.484 60.4967 454.855 60.4713C455.227 60.446 456.209 59.5497 456.209 59.5497L456.331 59.2451L456.802 58.0679L455.82 58.1921L455.269 58.3744L454.735 58.55L453.448 59.5815L448.458 62.579L447.015 64.0617L446.735 68.6947Z" fill="#E2915A"/>
<path d="M437.757 50.5992C437.757 50.5992 438.086 70.9603 445.008 70.2331C451.93 69.5058 455.457 59.8866 454.408 57.0184C453.358 54.1502 450.438 46.3332 448.262 46.4736C446.085 46.6139 437.996 47.8791 437.757 50.5992Z" fill="#FFB27D"/>
<path d="M438.222 49.6057C438.222 49.6057 433.244 46.6896 436.527 42.2176C436.527 42.2176 436.292 43.9601 436.93 43.9756C437.567 43.9911 437.013 41.6682 438.147 40.5562C438.147 40.5562 438.047 42.3686 438.617 42.5272C438.617 42.5272 438.543 40.0488 439.448 39.6462C439.448 39.6462 439.419 41.2259 440.516 41.1524C441.613 41.0789 447.264 40.5741 449.833 38.9781C452.403 37.3821 459.052 41.3358 458.233 43.3773C458.233 43.3773 462.162 45.3768 460.515 53.3406C458.868 61.3043 457.604 61.1287 458.32 61.9931C459.036 62.8574 457.5 62.6491 456.371 60.5016C455.241 58.3542 453.333 53.5686 451.661 55.1046C449.99 56.6405 451.282 57.2866 449.889 57.1188C448.495 56.951 449.323 55.0348 447.311 54.7036C445.3 54.3723 445.752 52.644 446.601 51.056C447.449 49.468 441.729 47.5335 438.222 49.6057Z" fill="#2196F3"/>
<path d="M438.222 49.6057C438.222 49.6057 433.244 46.6896 436.527 42.2176C436.527 42.2176 436.292 43.9601 436.93 43.9756C437.567 43.9911 437.013 41.6682 438.147 40.5562C438.147 40.5562 438.047 42.3686 438.617 42.5272C438.617 42.5272 438.543 40.0488 439.448 39.6462C439.448 39.6462 439.419 41.2259 440.516 41.1524C441.613 41.0789 447.264 40.5741 449.833 38.9781C452.403 37.3821 459.052 41.3358 458.233 43.3773C458.233 43.3773 462.162 45.3768 460.515 53.3406C458.868 61.3043 457.604 61.1287 458.32 61.9931C459.036 62.8574 457.5 62.6491 456.371 60.5016C455.241 58.3542 453.333 53.5686 451.661 55.1046C449.99 56.6405 451.282 57.2866 449.889 57.1188C448.495 56.951 449.323 55.0348 447.311 54.7036C445.3 54.3723 445.752 52.644 446.601 51.056C447.449 49.468 441.729 47.5335 438.222 49.6057Z" fill="black" fill-opacity="0.6"/>
<path d="M452.074 55.6714C452.074 55.6714 455.121 52.0195 455.695 56.4805C456.269 60.9415 452.373 60.3781 452.373 60.3781L452.074 55.6714Z" fill="#FFB27D"/>
<path d="M331.738 142.859L345.219 144.704L349.515 145.292C349.515 145.292 351.865 145.62 355.116 145.914C361.038 146.45 369.953 146.885 373.106 145.045C377.99 142.2 429.775 129.893 435.848 132.555C441.92 135.217 437.892 111.98 437.892 111.98L418.309 110.129C418.309 110.129 416.383 110.785 413.332 111.858L413.028 114.181L409.196 117.755L391.029 124.057L382.27 123.043C377.167 124.995 373.461 126.545 372.984 127.086C372.214 127.962 370.26 129.219 367.937 130.224C365.887 131.115 363.554 131.809 361.513 131.878C360.778 131.912 360.041 131.835 359.329 131.649C354.987 130.43 343.077 134.995 342.181 135.399C341.285 135.802 331.738 142.859 331.738 142.859Z" fill="#2D2D9A"/>
<path d="M345.219 144.699L349.515 145.288C349.515 145.288 351.866 145.616 355.116 145.91C364.783 142.773 367.893 130.434 367.954 130.221L363.751 130.256L361.535 131.876L349.923 140.342L345.609 144.461C345.609 144.461 345.445 144.552 345.219 144.699Z" fill="#2196F3"/>
<path d="M345.219 144.699L349.515 145.288C349.515 145.288 351.866 145.616 355.116 145.91C364.783 142.773 367.893 130.434 367.954 130.221L363.751 130.256L361.535 131.876L349.923 140.342L345.609 144.461C345.609 144.461 345.445 144.552 345.219 144.699Z" fill="black" fill-opacity="0.6"/>
<path d="M390.171 105.884C390.171 105.884 372.912 100.773 368.665 105.882C364.419 110.99 356.136 120.591 352.157 121.884C348.178 123.178 341.192 127.338 341.127 128.897C341.062 130.456 338.402 133.565 338.402 133.565L341.603 135.754L345.065 139.27L346.244 144.374L348.64 145.17C348.64 145.17 372.376 128.961 376.416 120.584C376.416 120.584 376.967 122.448 386.379 123.745C395.79 125.042 408.277 117.762 408.277 117.762L415.225 115.317L413.797 109.475L390.171 105.884Z" fill="#2D2D9A"/>
<path d="M382.279 123.04C391.695 119.435 405.885 114.444 413.337 111.85L413.555 110.183L400.561 111.392L382.279 123.04Z" fill="#2196F3"/>
<path d="M382.279 123.04C391.695 119.435 405.885 114.444 413.337 111.85L413.555 110.183L400.561 111.392L382.279 123.04Z" fill="black" fill-opacity="0.6"/>
<path d="M338.871 128.523C338.871 128.523 333.454 127.01 331.993 128.015C330.532 129.02 333.252 130.116 333.252 130.116L335.554 130.13L337.983 129.789L338.871 128.523Z" fill="#2196F3"/>
<path d="M338.871 128.523C338.871 128.523 333.454 127.01 331.993 128.015C330.532 129.02 333.252 130.116 333.252 130.116L335.554 130.13L337.983 129.789L338.871 128.523Z" fill="black" fill-opacity="0.6"/>
<path d="M340.672 131.303C340.672 131.303 343.885 129.543 342.55 128.244C341.215 126.946 339.24 128.111 339.173 128.139C339.106 128.166 335.232 130.011 335.232 130.011C335.232 130.011 337.137 132.09 337.313 132.168C337.489 132.247 340.672 131.303 340.672 131.303Z" fill="white"/>
<path d="M326.617 134.408C326.617 134.408 334.169 127.021 333.338 127.582C332.507 128.142 317.771 123.228 317.771 123.228C317.771 123.228 313.513 112.1 312.669 111.03C311.825 109.959 309.129 109.701 308.669 110.61C308.209 111.518 306.617 121.735 310.8 131.73C314.984 141.726 316.264 149.551 317.639 149.481C319.015 149.411 324.876 148.204 326.29 145.851C327.704 143.499 326.617 134.408 326.617 134.408Z" fill="white"/>
<path d="M333.351 127.583C333.351 127.583 333.902 124.051 332.388 124.051C330.874 124.05 328.275 123.885 327.889 124.252C327.503 124.618 329.654 128.198 329.654 128.198L333.351 127.583Z" fill="#EBF3FF"/>
<path d="M315.456 127.381C315.456 127.381 316.818 136.506 322.394 141.243C327.971 145.981 328.924 152.828 330.971 153.725C331.971 154.164 333.484 155.237 335.111 155.717C336.816 156.222 338.645 156.088 340.139 153.911C343.059 149.667 343.874 147.539 345.808 146.726C347.743 145.912 348.701 142.423 348.189 141.215C347.676 140.008 346.793 132.452 345.03 131.962C343.267 131.472 339.167 131.256 339.167 131.256C339.167 131.256 331.709 128.758 329.722 125.546C327.734 122.335 323.522 112.615 318.874 116.481C318.542 116.756 318.231 117.056 317.943 117.378C314.406 121.365 315.456 127.381 315.456 127.381Z" fill="white"/>
<path d="M434.728 115.113C434.728 115.113 432.728 131.824 436.87 133.353C441.012 134.881 448.869 126.794 451.55 128.349C454.23 129.904 449.93 125.97 451.215 123.368C452.5 120.767 456.01 114.671 455.07 112.141C454.131 109.61 434.728 115.113 434.728 115.113Z" fill="#FF7542"/>
<path d="M455.226 113.684C455.226 113.684 451.923 125.24 434.636 115.987L440.028 112.877L449.809 111.76L455.226 113.684Z" fill="#E63E00"/>
<path d="M461.731 71.6591C462.25 71.793 462.751 71.9896 463.223 72.2446C465.491 73.381 467.485 74.9984 469.065 76.9842C470.667 78.9531 471.625 81.3673 471.808 83.8992C472.407 89.4737 470.63 95.1247 467.764 99.8637C464.337 105.509 459.403 110.056 454.435 114.39C453.489 115.234 452.469 116.084 451.267 116.537C449.888 117.052 448.371 116.996 446.898 116.936C443.323 116.749 439.753 116.493 436.187 116.167C431.738 115.764 427.239 115.227 423.082 113.603C422.388 113.389 421.766 112.987 421.287 112.441C420.776 111.752 420.731 110.83 420.74 109.968C420.754 108.489 420.857 107.011 421.05 105.544C421.054 105.306 421.146 105.078 421.306 104.902C421.42 104.832 421.548 104.785 421.68 104.765C421.813 104.745 421.948 104.752 422.078 104.786C427.721 105.49 433.348 106.437 439.05 106.547C441.567 106.592 444.207 106.449 446.393 105.237C448.473 104.096 449.963 102.121 451.197 100.089C452.972 97.1609 454.358 93.9266 454.694 90.5177C455.018 87.1889 454.335 83.8102 454.815 80.5021C455.188 77.9471 456.241 75.5392 457.863 73.5305C458.607 72.6135 459.557 71.7438 460.727 71.6223C461.062 71.5809 461.401 71.5934 461.731 71.6591Z" fill="#FF7542"/>
<path d="M457.806 83.0595L449.864 84.4731L440.986 101.667L437.659 108.275L444.436 109.827L452.703 104.459L457.369 92.4155L457.806 83.0595Z" fill="#FF7542"/>
<path d="M423.271 112.915C423.271 112.915 398.018 111.55 397.114 110.88L394.76 109.162L395.31 108.002L396.446 108.627L397.748 109.664L421.306 111.606L423.271 112.915Z" fill="#EBF3FF"/>
<path d="M397.727 109.658L387.638 103.169L403.015 103.218L415.618 108.508L419.972 109.039L423.271 112.915L418.086 111.924L397.773 110.405L397.727 109.658Z" fill="white"/>
<path d="M397.114 110.881L388.504 82.5856L375.453 78.4101L382.567 103.138L397.114 110.881Z" fill="white"/>
<path d="M407.653 99.4455C406.74 99.1553 405.803 98.9478 404.852 98.8255C403.963 98.7965 403.698 98.0138 402.771 98.2252C401.844 98.4367 398.66 98.1238 397.836 98.6936C397.013 99.2634 395.324 102.192 397.055 104.702L397.366 104.683C397.366 104.683 397.246 105.374 397.684 105.249C398.122 105.123 399.153 105.068 399.021 103.836C398.888 102.604 399.404 101.209 400.032 100.94C400.661 100.672 400.342 101.71 400.342 101.71C400.342 101.71 398.485 105.097 399.011 105.521C399.537 105.945 400.387 106.425 401.849 103.245C403.311 100.066 414.489 106.601 414.489 106.601L407.653 99.4455Z" fill="#FFB27D"/>
<path d="M409.525 101.422C409.525 101.422 402.415 100.221 401.937 100.814C401.459 101.407 400.187 105.511 400.187 105.511L404.303 103.082L406.492 101.961L409.525 101.422Z" fill="#E2915A"/>
<path d="M421.339 105.206C421.339 105.206 411.639 101.224 410.65 101.287C409.661 101.351 408.99 101.696 407.079 101.517C405.168 101.338 403.295 101.12 402.754 101.449C402.213 101.778 399.486 105.734 400.145 106.566C400.292 106.799 400.508 106.979 400.762 107.083C401.016 107.186 401.297 107.208 401.564 107.144C401.564 107.144 401.714 108.82 402.926 107.489C404.138 106.158 404.105 104.966 404.76 104.894L405.35 105.316C405.35 105.316 402.772 106.877 403.267 107.593C403.762 108.31 404.392 108.068 406.14 107.234C407.887 106.401 409.6 109.129 411.158 109.16C412.716 109.19 421.155 110.806 421.927 110.758C422.7 110.71 421.339 105.206 421.339 105.206Z" fill="#FFB27D"/>
<path d="M401.566 107.084C401.566 107.084 401.993 104.813 402.241 104.74L401.566 107.084Z" fill="#231F20"/>
<path d="M405.372 105.314C405.372 105.314 405.806 105.265 405.732 105.154C405.658 105.044 405.321 104.987 405.321 104.987L405.145 104.942L404.933 104.92L404.797 104.906L405.372 105.314Z" fill="#E2915A"/>
<path d="M404.764 104.89C404.764 104.89 405.625 104.864 405.67 105.092L404.764 104.89Z" fill="#231F20"/>
<path d="M398.347 100.81C398.347 100.81 396.897 101.057 397.357 104.682C397.357 104.682 397.222 101.232 398.347 100.81Z" fill="#E2915A"/>
<path d="M397.358 104.682C397.358 104.682 397.256 100.991 398.523 100.769C398.523 100.769 397.136 100.743 397.358 104.682Z" fill="#231F20"/>
<path d="M468.533 77.9622C468.533 77.9622 462.939 76.9459 458.297 82.6778C458.301 82.6825 463.001 77.8703 468.533 77.9622Z" fill="#E63E00"/>
<path d="M457.862 83.9575C457.862 83.9575 448.529 104.955 438.857 105.896C438.857 105.896 447.208 109.042 457.862 83.9575Z" fill="#E63E00"/>
<path d="M462.361 71.7078C462.361 71.7078 453.6 79.4092 451.151 80.4302C448.702 81.4513 438.141 94.4497 438.243 96.4592C438.243 96.4592 450.027 81.2944 451.848 80.9838C453.669 80.6732 462.361 71.7078 462.361 71.7078Z" fill="#E63E00"/>
<path d="M315.456 127.381C315.456 127.381 316.819 136.506 322.395 141.243C327.971 145.981 328.925 152.828 330.971 153.725C331.971 154.164 333.484 155.237 335.111 155.716C335.316 155.681 335.517 155.621 335.709 155.539C336.713 155.044 340.788 150.591 336.793 148.232C332.799 145.874 327.002 134.29 326.995 132.191C326.988 130.093 325.933 128.46 323.578 122.045C321.671 116.843 318.918 117.12 317.948 117.413C314.407 121.365 315.456 127.381 315.456 127.381Z" fill="#FF7542"/>
<path d="M318.126 117.354C319.399 117.488 321.177 118.404 322.534 122.106C324.889 128.522 325.945 130.138 325.951 132.253C325.956 134.368 331.752 145.957 335.749 148.294C339.745 150.631 335.752 155.007 334.7 155.583C334.832 155.631 334.965 155.675 335.115 155.717C335.321 155.681 335.521 155.621 335.713 155.539C336.717 155.044 340.792 150.591 336.797 148.233C332.803 145.875 327.007 134.29 327 132.192C326.993 130.094 325.937 128.46 323.583 122.045C321.777 117.146 319.208 117.099 318.126 117.354Z" fill="#FF7542"/>
<path d="M323.438 116.518C323.438 116.518 326.262 121.245 325.873 121.921C325.213 120.056 324.398 118.248 323.438 116.518Z" fill="#231F20"/>
<path d="M312.422 110.772C312.422 110.772 310.577 115.271 311.601 117.733C311.597 117.733 310.273 114.737 312.422 110.772Z" fill="#231F20"/>
<path d="M504.346 82.3485L509.136 82.8515C509.933 82.9351 510.511 83.6487 510.427 84.4453L509.728 91.106C509.644 91.9026 508.93 92.4806 508.134 92.397L503.344 91.8941C502.547 91.8104 501.97 91.0968 502.053 90.3002L502.753 83.6395C502.836 82.8429 503.55 82.2649 504.346 82.3485Z" fill="#C5CAE9"/>
<path d="M510.88 43.1618C513.981 43.487 516.94 44.6276 519.456 46.4678C521.972 48.3079 523.957 50.7817 525.207 53.6377C526.456 56.4936 526.927 59.6297 526.572 62.7268C526.216 65.8239 525.046 68.7715 523.181 71.2697C523.104 71.4307 523.014 71.5848 522.91 71.7302L513.649 84.4832C513.476 84.762 513.285 85.0285 513.076 85.2809L513.036 85.3325C512.205 86.3237 511.144 87.0956 509.945 87.5804C508.746 88.0653 507.446 88.2482 506.16 88.1132C504.874 87.9781 503.641 87.5292 502.569 86.8059C501.497 86.0826 500.619 85.107 500.012 83.965L499.984 83.9063C499.832 83.6159 499.7 83.3154 499.589 83.007L493.179 68.6084C493.106 68.4455 493.049 68.2757 493.009 68.1016C491.701 65.271 491.167 62.1443 491.461 59.0401C491.755 55.9358 492.866 52.9649 494.682 50.4301C496.498 47.8953 498.953 45.8872 501.798 44.6103C504.643 43.3334 507.775 42.8335 510.876 43.1613L510.88 43.1618Z" fill="#C5CAE9"/>
<path d="M499.034 56.7972C499.128 56.7745 499.225 56.7705 499.321 56.7855C499.416 56.8006 499.508 56.8343 499.59 56.8848C499.673 56.9353 499.744 57.0015 499.801 57.0798C499.858 57.158 499.898 57.2467 499.921 57.3407L506.497 84.9075L518.655 59.3078C518.739 59.1318 518.89 58.9963 519.073 58.9311C519.257 58.866 519.459 58.8765 519.635 58.9604C519.811 59.0443 519.947 59.1947 520.012 59.3785C520.077 59.5623 520.067 59.7645 519.983 59.9405L506.927 87.4233C506.897 87.4844 506.857 87.5409 506.811 87.5912C506.768 87.6335 506.719 87.6702 506.667 87.7005L506.63 87.7223C506.576 87.7505 506.519 87.7719 506.46 87.786C506.304 87.8239 506.139 87.8066 505.994 87.737C505.939 87.711 505.888 87.6782 505.841 87.6395L505.81 87.6105C505.765 87.57 505.725 87.524 505.691 87.4736C505.656 87.4148 505.63 87.3514 505.612 87.2852L498.55 57.69C498.5 57.5075 498.522 57.3127 498.613 57.1463C498.703 56.98 498.854 56.8549 499.034 56.7972Z" fill="white"/>
<path d="M499.034 56.7972C499.128 56.7745 499.225 56.7705 499.321 56.7855C499.416 56.8006 499.508 56.8343 499.59 56.8848C499.673 56.9353 499.744 57.0015 499.801 57.0798C499.858 57.158 499.898 57.2467 499.921 57.3407L506.497 84.9075L518.655 59.3078C518.739 59.1318 518.89 58.9963 519.073 58.9311C519.257 58.866 519.459 58.8765 519.635 58.9604C519.811 59.0443 519.947 59.1947 520.012 59.3785C520.077 59.5623 520.067 59.7645 519.983 59.9405L506.927 87.4233C506.897 87.4844 506.857 87.5409 506.811 87.5912C506.768 87.6335 506.719 87.6702 506.667 87.7005L506.63 87.7223C506.576 87.7505 506.519 87.7719 506.46 87.786C506.304 87.8239 506.139 87.8066 505.994 87.737C505.939 87.711 505.888 87.6782 505.841 87.6395L505.81 87.6105C505.765 87.57 505.725 87.524 505.691 87.4736C505.656 87.4148 505.63 87.3514 505.612 87.2852L498.55 57.69C498.5 57.5075 498.522 57.3127 498.613 57.1463C498.703 56.98 498.854 56.8549 499.034 56.7972Z" fill="#5555CE" fill-opacity="0.08"/>
<path d="M503.997 59.0425C504.124 59.0572 504.252 59.0412 504.371 58.9959C504.485 58.9418 504.588 58.8647 504.672 58.7695C504.755 58.6743 504.819 58.5629 504.858 58.4423C505.046 57.934 505.029 57.3727 504.812 56.8762C504.676 56.5923 504.468 56.3488 504.209 56.1695C504.78 55.8847 505.427 55.7903 506.055 55.9002C506.197 55.9285 506.336 55.966 506.473 56.0126C506.177 56.1766 505.945 56.4344 505.812 56.7454C505.726 56.9856 505.689 57.2406 505.703 57.4954C505.716 57.7502 505.781 57.9997 505.893 58.2293C505.952 58.3729 506.042 58.5024 506.154 58.6095C506.267 58.7166 506.401 58.799 506.548 58.8514C506.727 58.8882 506.913 58.8834 507.09 58.8373C507.267 58.7913 507.432 58.7052 507.571 58.5856C507.789 58.4316 507.969 58.2309 508.1 57.9983C508.23 57.7657 508.307 57.507 508.325 57.2408C508.315 57.0185 508.253 56.8016 508.146 56.6067C508.038 56.4118 507.888 56.2441 507.706 56.1163C508.241 56.0368 508.784 56.0189 509.324 56.0632C509.83 56.0995 510.33 56.2009 510.811 56.3651C510.578 56.5054 510.377 56.6932 510.221 56.9163C510.065 57.1394 509.958 57.3928 509.907 57.66C509.906 57.8503 509.945 58.0387 510.02 58.2134C510.095 58.3881 510.206 58.5454 510.345 58.6753C510.464 58.8064 510.609 58.9114 510.77 58.9838C510.932 59.0561 511.106 59.0941 511.283 59.0955C511.454 59.0767 511.618 59.0217 511.765 58.9344C511.913 58.8471 512.04 58.7294 512.138 58.5891C512.289 58.4078 512.4 58.1973 512.465 57.9709C512.53 57.7445 512.548 57.507 512.517 57.2735C512.472 57.0822 512.389 56.9016 512.274 56.7423C512.159 56.583 512.014 56.448 511.846 56.3452C512.724 55.9485 513.972 55.7106 514.829 56.2853L514.873 56.3156C514.741 56.3912 514.619 56.4837 514.51 56.5906C513.974 57.1177 513.568 58.2074 514.186 58.9028C514.337 59.0616 514.519 59.1885 514.721 59.2759C514.922 59.3634 515.139 59.4097 515.359 59.412C515.505 59.4226 515.651 59.4032 515.789 59.355C515.927 59.3067 516.053 59.2307 516.16 59.1315C516.276 58.9868 516.358 58.8187 516.402 58.639C516.446 58.4592 516.451 58.272 516.416 58.0903C516.339 57.5275 516.122 56.9929 515.785 56.5358C515.928 56.5217 516.072 56.521 516.215 56.5337C517.329 56.6207 518.43 57.7785 519.002 59.4814L519.447 59.3223C518.791 57.4004 517.572 56.1444 516.232 56.0422C515.952 56.0182 515.67 56.0393 515.397 56.1047C515.305 56.0195 515.205 55.9417 515.1 55.8719C514.009 55.1526 512.461 55.479 511.469 55.9796L511.328 56.0506C510.71 55.7906 510.052 55.6346 509.382 55.589C508.618 55.5254 507.849 55.5896 507.106 55.7789C506.794 55.6287 506.464 55.5191 506.124 55.4527C505.282 55.2944 504.411 55.4638 503.689 55.9262C502.882 55.6103 501.992 55.5727 501.161 55.8195C500.29 56.1062 499.553 56.7016 499.09 57.4935L499.492 57.746C499.893 57.0573 500.532 56.5387 501.288 56.2875C501.929 56.1033 502.608 56.1062 503.247 56.2959C503.152 56.4002 503.067 56.5134 502.993 56.6338C502.844 56.8423 502.745 57.0829 502.705 57.3364C502.665 57.5899 502.685 57.8492 502.763 58.0936C502.916 58.4842 503.215 58.8 503.597 58.9747C503.725 59.0208 503.861 59.0438 503.997 59.0425ZM503.782 56.4764C504.039 56.6124 504.247 56.8245 504.379 57.0838C504.538 57.4584 504.55 57.8793 504.413 58.2627C504.403 58.3236 504.378 58.381 504.34 58.4295C504.302 58.4779 504.252 58.5157 504.195 58.5394C504.137 58.563 504.075 58.5717 504.014 58.5646C503.953 58.5575 503.894 58.5349 503.844 58.4989C503.583 58.3791 503.376 58.1642 503.268 57.8979C503.218 57.7224 503.209 57.5376 503.242 57.3581C503.275 57.1785 503.349 57.009 503.458 56.8627C503.547 56.719 503.656 56.5888 503.782 56.4764ZM507.092 56.2835C507.521 56.5259 507.863 56.862 507.849 57.2423C507.831 57.4323 507.771 57.6161 507.675 57.7807C507.578 57.9454 507.447 58.0871 507.29 58.1958C507.211 58.2684 507.116 58.3226 507.013 58.3548C506.911 58.387 506.802 58.3964 506.696 58.3822C506.616 58.3482 506.543 58.2986 506.483 58.2362C506.423 58.1739 506.375 58.1001 506.343 58.0193C506.178 57.6814 506.152 57.2917 506.273 56.9352C506.355 56.7742 506.471 56.6324 506.612 56.5194C506.753 56.4063 506.917 56.3244 507.092 56.2793L507.092 56.2835ZM511.369 56.5997C511.533 56.6679 511.679 56.7713 511.798 56.9024C511.917 57.0334 512.005 57.189 512.057 57.3582C512.088 57.6907 511.987 58.0218 511.776 58.2809C511.72 58.3654 511.646 58.4375 511.561 58.4927C511.475 58.5479 511.38 58.585 511.279 58.6019C511.172 58.5956 511.067 58.5683 510.97 58.5213C510.874 58.4743 510.787 58.4088 510.716 58.3283C510.626 58.2468 510.554 58.1481 510.503 58.0382C510.452 57.9282 510.423 57.8091 510.419 57.688C510.445 57.3562 510.818 56.945 511.37 56.5954L511.369 56.5997ZM515.288 56.6551C515.646 57.0741 515.876 57.5864 515.952 58.1318C515.976 58.2416 515.977 58.355 515.957 58.4655C515.937 58.576 515.895 58.6813 515.833 58.7755C515.708 58.8749 515.549 58.9213 515.391 58.9049C515.238 58.9037 515.086 58.8724 514.946 58.8127C514.805 58.753 514.677 58.6661 514.569 58.557C514.187 58.1179 514.478 57.3078 514.87 56.9201C514.991 56.8046 515.133 56.7132 515.289 56.6509L515.288 56.6551Z" fill="white"/>
<path d="M503.997 59.0425C504.124 59.0572 504.252 59.0412 504.371 58.9959C504.485 58.9418 504.588 58.8647 504.672 58.7695C504.755 58.6743 504.819 58.5629 504.858 58.4423C505.046 57.934 505.029 57.3727 504.812 56.8762C504.676 56.5923 504.468 56.3488 504.209 56.1695C504.78 55.8847 505.427 55.7903 506.055 55.9002C506.197 55.9285 506.336 55.966 506.473 56.0126C506.177 56.1766 505.945 56.4344 505.812 56.7454C505.726 56.9856 505.689 57.2406 505.703 57.4954C505.716 57.7502 505.781 57.9997 505.893 58.2293C505.952 58.3729 506.042 58.5024 506.154 58.6095C506.267 58.7166 506.401 58.799 506.548 58.8514C506.727 58.8882 506.913 58.8834 507.09 58.8373C507.267 58.7913 507.432 58.7052 507.571 58.5856C507.789 58.4316 507.969 58.2309 508.1 57.9983C508.23 57.7657 508.307 57.507 508.325 57.2408C508.315 57.0185 508.253 56.8016 508.146 56.6067C508.038 56.4118 507.888 56.2441 507.706 56.1163C508.241 56.0368 508.784 56.0189 509.324 56.0632C509.83 56.0995 510.33 56.2009 510.811 56.3651C510.578 56.5054 510.377 56.6932 510.221 56.9163C510.065 57.1394 509.958 57.3928 509.907 57.66C509.906 57.8503 509.945 58.0387 510.02 58.2134C510.095 58.3881 510.206 58.5454 510.345 58.6753C510.464 58.8064 510.609 58.9114 510.77 58.9838C510.932 59.0561 511.106 59.0941 511.283 59.0955C511.454 59.0767 511.618 59.0217 511.765 58.9344C511.913 58.8471 512.04 58.7294 512.138 58.5891C512.289 58.4078 512.4 58.1973 512.465 57.9709C512.53 57.7445 512.548 57.507 512.517 57.2735C512.472 57.0822 512.389 56.9016 512.274 56.7423C512.159 56.583 512.014 56.448 511.846 56.3452C512.724 55.9485 513.972 55.7106 514.829 56.2853L514.873 56.3156C514.741 56.3912 514.619 56.4837 514.51 56.5906C513.974 57.1177 513.568 58.2074 514.186 58.9028C514.337 59.0616 514.519 59.1885 514.721 59.2759C514.922 59.3634 515.139 59.4097 515.359 59.412C515.505 59.4226 515.651 59.4032 515.789 59.355C515.927 59.3067 516.053 59.2307 516.16 59.1315C516.276 58.9868 516.358 58.8187 516.402 58.639C516.446 58.4592 516.451 58.272 516.416 58.0903C516.339 57.5275 516.122 56.9929 515.785 56.5358C515.928 56.5217 516.072 56.521 516.215 56.5337C517.329 56.6207 518.43 57.7785 519.002 59.4814L519.447 59.3223C518.791 57.4004 517.572 56.1444 516.232 56.0422C515.952 56.0182 515.67 56.0393 515.397 56.1047C515.305 56.0195 515.205 55.9417 515.1 55.8719C514.009 55.1526 512.461 55.479 511.469 55.9796L511.328 56.0506C510.71 55.7906 510.052 55.6346 509.382 55.589C508.618 55.5254 507.849 55.5896 507.106 55.7789C506.794 55.6287 506.464 55.5191 506.124 55.4527C505.282 55.2944 504.411 55.4638 503.689 55.9262C502.882 55.6103 501.992 55.5727 501.161 55.8195C500.29 56.1062 499.553 56.7016 499.09 57.4935L499.492 57.746C499.893 57.0573 500.532 56.5387 501.288 56.2875C501.929 56.1033 502.608 56.1062 503.247 56.2959C503.152 56.4002 503.067 56.5134 502.993 56.6338C502.844 56.8423 502.745 57.0829 502.705 57.3364C502.665 57.5899 502.685 57.8492 502.763 58.0936C502.916 58.4842 503.215 58.8 503.597 58.9747C503.725 59.0208 503.861 59.0438 503.997 59.0425ZM503.782 56.4764C504.039 56.6124 504.247 56.8245 504.379 57.0838C504.538 57.4584 504.55 57.8793 504.413 58.2627C504.403 58.3236 504.378 58.381 504.34 58.4295C504.302 58.4779 504.252 58.5157 504.195 58.5394C504.137 58.563 504.075 58.5717 504.014 58.5646C503.953 58.5575 503.894 58.5349 503.844 58.4989C503.583 58.3791 503.376 58.1642 503.268 57.8979C503.218 57.7224 503.209 57.5376 503.242 57.3581C503.275 57.1785 503.349 57.009 503.458 56.8627C503.547 56.719 503.656 56.5888 503.782 56.4764ZM507.092 56.2835C507.521 56.5259 507.863 56.862 507.849 57.2423C507.831 57.4323 507.771 57.6161 507.675 57.7807C507.578 57.9454 507.447 58.0871 507.29 58.1958C507.211 58.2684 507.116 58.3226 507.013 58.3548C506.911 58.387 506.802 58.3964 506.696 58.3822C506.616 58.3482 506.543 58.2986 506.483 58.2362C506.423 58.1739 506.375 58.1001 506.343 58.0193C506.178 57.6814 506.152 57.2917 506.273 56.9352C506.355 56.7742 506.471 56.6324 506.612 56.5194C506.753 56.4063 506.917 56.3244 507.092 56.2793L507.092 56.2835ZM511.369 56.5997C511.533 56.6679 511.679 56.7713 511.798 56.9024C511.917 57.0334 512.005 57.189 512.057 57.3582C512.088 57.6907 511.987 58.0218 511.776 58.2809C511.72 58.3654 511.646 58.4375 511.561 58.4927C511.475 58.5479 511.38 58.585 511.279 58.6019C511.172 58.5956 511.067 58.5683 510.97 58.5213C510.874 58.4743 510.787 58.4088 510.716 58.3283C510.626 58.2468 510.554 58.1481 510.503 58.0382C510.452 57.9282 510.423 57.8091 510.419 57.688C510.445 57.3562 510.818 56.945 511.37 56.5954L511.369 56.5997ZM515.288 56.6551C515.646 57.0741 515.876 57.5864 515.952 58.1318C515.976 58.2416 515.977 58.355 515.957 58.4655C515.937 58.576 515.895 58.6813 515.833 58.7755C515.708 58.8749 515.549 58.9213 515.391 58.9049C515.238 58.9037 515.086 58.8724 514.946 58.8127C514.805 58.753 514.677 58.6661 514.569 58.557C514.187 58.1179 514.478 57.3078 514.87 56.9201C514.991 56.8046 515.133 56.7132 515.289 56.6509L515.288 56.6551Z" fill="#5555CE" fill-opacity="0.08"/>
<path d="M209.476 140.674L195.2 129.987L166.448 139.074L166.037 137.78L195.455 128.479L209.317 138.857L279.637 63.8941L298.192 92.9012L316.978 21.7655L325.209 84.7615L336.979 64.6819L347.904 79.8647L346.803 80.6559L337.095 67.1677L324.377 88.8704L316.526 28.7949L298.715 96.2393L279.434 66.098L209.476 140.674Z" fill="#C5CAE9"/>
<path d="M316.754 29.2196C318.929 29.2196 320.693 27.456 320.693 25.2805C320.693 23.1049 318.929 21.3413 316.754 21.3413C314.578 21.3413 312.814 23.1049 312.814 25.2805C312.814 27.456 314.578 29.2196 316.754 29.2196Z" fill="#C5CAE9"/>
<path d="M279.536 68.9337C281.711 68.9337 283.475 67.1701 283.475 64.9946C283.475 62.819 281.711 61.0554 279.536 61.0554C277.36 61.0554 275.596 62.819 275.596 64.9946C275.596 67.1701 277.36 68.9337 279.536 68.9337Z" fill="#C5CAE9"/>
<path d="M209.398 143.278C211.574 143.278 213.337 141.515 213.337 139.339C213.337 137.164 211.574 135.4 209.398 135.4C207.223 135.4 205.459 137.164 205.459 139.339C205.459 141.515 207.223 143.278 209.398 143.278Z" fill="#C5CAE9"/>
<path d="M194.64 133.173C196.815 133.173 198.579 131.409 198.579 129.233C198.579 127.058 196.815 125.294 194.64 125.294C192.464 125.294 190.701 127.058 190.701 129.233C190.701 131.409 192.464 133.173 194.64 133.173Z" fill="#C5CAE9"/>
<path d="M337.037 69.864C339.213 69.864 340.976 68.1004 340.976 65.9249C340.976 63.7493 339.213 61.9857 337.037 61.9857C334.862 61.9857 333.098 63.7493 333.098 65.9249C333.098 68.1004 334.862 69.864 337.037 69.864Z" fill="#C5CAE9"/>
<path d="M224.143 8.66772H119.076C112.63 8.66772 107.405 13.8932 107.405 20.3392V77.0495C107.405 83.4954 112.63 88.7209 119.076 88.7209H224.143C230.589 88.7209 235.814 83.4954 235.814 77.0495V20.3392C235.814 13.8932 230.589 8.66772 224.143 8.66772Z" fill="#C5CAE9"/>
<path d="M219.341 11.6596L123.878 11.6596C117.432 11.6596 112.206 16.8851 112.206 23.3311V74.0545C112.206 80.5005 117.432 85.7259 123.878 85.7259H219.341C225.787 85.7259 231.013 80.5005 231.013 74.0545V23.3311C231.013 16.8851 225.787 11.6596 219.341 11.6596Z" fill="white"/>
<path d="M131.926 25.5212H128.476V56.0667H131.926V25.5212Z" fill="#C5CAE9"/>
<path d="M137.621 37.6886H134.17V56.0668H137.621V37.6886Z" fill="#C5CAE9"/>
<path d="M143.315 30.0922H139.865V56.0634H143.315V30.0922Z" fill="#C5CAE9"/>
<path d="M149.01 42.001H145.56V56.0665H149.01V42.001Z" fill="#C5CAE9"/>
<path d="M154.705 36.8225H151.255V56.0633H154.705V36.8225Z" fill="#C5CAE9"/>
<path d="M160.4 49.0339H156.949V56.0667H160.4V49.0339Z" fill="#C5CAE9"/>
<path d="M166.094 33.0259H162.644V56.0632H166.094V33.0259Z" fill="#C5CAE9"/>
<path d="M212.862 47.4414C211.879 50.4918 210.013 53.1821 207.5 55.1722C204.988 57.1622 201.942 58.3626 198.748 58.6216C195.553 58.8805 192.354 58.1863 189.554 56.6269C186.754 55.0674 184.479 52.7127 183.017 49.8604C181.555 47.0082 180.972 43.7865 181.342 40.6029C181.711 37.4192 183.016 34.4165 185.091 31.9745C187.167 29.5325 189.92 27.7609 193.003 26.8836C196.086 26.0064 199.359 26.0629 202.41 27.0461L197.048 43.6856L212.159 35.9431L212.234 35.8616C213.871 39.5104 214.095 43.637 212.862 47.4414Z" fill="#C5CAE9"/>
<path d="M214.743 32.9684L214.669 33.0499L199.557 40.7924L204.919 24.1528C207.085 24.8483 209.079 25.993 210.772 27.5121C212.465 29.0312 213.818 30.8905 214.743 32.9684Z" fill="#C5CAE9"/>
<path d="M185.912 64.6072H128.475C128.191 64.6072 127.918 64.4942 127.717 64.2929C127.515 64.0917 127.402 63.8188 127.402 63.5342C127.402 63.2496 127.515 62.9766 127.717 62.7754C127.918 62.5741 128.191 62.4611 128.475 62.4611H185.912C186.197 62.4611 186.47 62.5741 186.671 62.7754C186.872 62.9766 186.985 63.2496 186.985 63.5342C186.985 63.8188 186.872 64.0917 186.671 64.2929C186.47 64.4942 186.197 64.6072 185.912 64.6072Z" fill="#C5CAE9"/>
<path d="M213.65 69.0527H128.241C128.061 69.0527 127.888 68.9811 127.761 68.8537C127.634 68.7264 127.562 68.5536 127.562 68.3735C127.562 68.1934 127.634 68.0206 127.761 67.8932C127.888 67.7659 128.061 67.6943 128.241 67.6943H213.66C213.84 67.6943 214.013 67.7659 214.14 67.8932C214.267 68.0206 214.339 68.1934 214.339 68.3735C214.339 68.5536 214.267 68.7264 214.14 68.8537C214.013 68.9811 213.84 69.0527 213.66 69.0527H213.65Z" fill="#C5CAE9"/>
<path d="M213.65 73.9051H128.241C128.061 73.9051 127.888 73.8335 127.761 73.7062C127.634 73.5788 127.562 73.406 127.562 73.2259C127.562 73.0458 127.634 72.8731 127.761 72.7457C127.888 72.6183 128.061 72.5468 128.241 72.5468H213.66C213.84 72.5468 214.013 72.6183 214.14 72.7457C214.267 72.8731 214.339 73.0458 214.339 73.2259C214.339 73.406 214.267 73.5788 214.14 73.7062C214.013 73.8335 213.84 73.9051 213.66 73.9051H213.65Z" fill="#C5CAE9"/>
</svg>
